STARTFONT 2.3
FONT -FontForge-Monofett-Book-R-Normal--32-320-72-72-P-181-ISO10646-1
SIZE 32 72 72  4
FONTBOUNDINGBOX 22 37 -1 -5
COMMENT "Generated by fontforge, http://fontforge.sourceforge.net"
COMMENT "Copyright (c) 2011 by vernon adams. All rights reserved."
STARTPROPERTIES 41
FOUNDRY "FontForge"
FAMILY_NAME "Monofett"
WEIGHT_NAME "Book"
SLANT "R"
SETWIDTH_NAME "Normal"
ADD_STYLE_NAME ""
PIXEL_SIZE 32
POINT_SIZE 320
RESOLUTION_X 72
RESOLUTION_Y 72
SPACING "P"
AVERAGE_WIDTH 181
CHARSET_REGISTRY "ISO10646"
CHARSET_ENCODING "1"
FONTNAME_REGISTRY ""
CHARSET_COLLECTIONS "ISO8859-2 ISO8859-9 ISO8859-4 ISO10646-1"
BITS_PER_PIXEL 4
FONT_NAME "Monofett"
FACE_NAME "Monofett"
COPYRIGHT "Copyright (c) 2011 by vernon adams. All rights reserved."
FONT_VERSION "1.000"
FONT_ASCENT 26
FONT_DESCENT 6
UNDERLINE_POSITION -4
UNDERLINE_THICKNESS 1
X_HEIGHT 21
CAP_HEIGHT 21
RAW_ASCENT 799
RAW_DESCENT 200
NORM_SPACE 5
RELATIVE_WEIGHT 40
RELATIVE_SETWIDTH 50
SUPERSCRIPT_X 0
SUPERSCRIPT_Y 15
SUPERSCRIPT_SIZE 20
SUBSCRIPT_X 0
SUBSCRIPT_Y 4
SUBSCRIPT_SIZE 20
FIGURE_WIDTH 19
AVG_LOWERCASE_WIDTH 190
AVG_UPPERCASE_WIDTH 190
ENDPROPERTIES
CHARS 409
STARTCHAR uni000D
ENCODING 13
SWIDTH 144 0
DWIDTH 5 0
BBX 1 1 0 0
BITMAP
00
ENDCHAR
STARTCHAR space
ENCODING 32
SWIDTH 144 0
DWIDTH 5 0
BBX 1 1 0 0
BITMAP
00
ENDCHAR
STARTCHAR exclam
ENCODING 33
SWIDTH 424 0
DWIDTH 14 0
BBX 15 22 -1 0
BITMAP
0000014653000000
0003BFFFFFE70000
005FFFC00FFFC100
02FFFFD01FFFFB00
0AFFFFE02FFFFF30
0EFFFFF03FFFFF80
1FFFFFF14FFFFF90
1FFFFFF25FFFFFA0
1FFFFFF36FFFFFA0
1FFFFFF47FFFFFA0
1FFFFFF58FFFFFA0
1FFFFFF69FFFFFA0
1FFFFFFDEFFFFFA0
1FFFFFF89FFFFFA0
1FFFFFF11FFFFFA0
1FFFFFFDDFFFFFA0
0FFFFFFFFFFFFF90
0DFFFFFFFFFFFF60
07FFFFFFFFFFFE10
01CFFFFFFFFFF600
001BFFFFFFFF6000
00005AEFEC820000
ENDCHAR
STARTCHAR quotedbl
ENCODING 34
SWIDTH 424 0
DWIDTH 14 0
BBX 15 22 -1 0
BITMAP
0000014653000000
0003BFFFFFE70000
005FFF1660FFC100
02FFFF1660FFFB00
0AFFFF1660FFFF30
0EFFFF1660FFFF80
1FFFFFFFFFFFFF90
1FFFFFFFFFFFFFA0
1FFFFFFFFFFFFFA0
1FFFFFFFFFFFFFA0
1FFFFFFFFFFFFFA0
1FFFFFFFFFFFFFA0
1FFFFFFFFFFFFFA0
1FFFFFFFFFFFFFA0
1FFFFFFFFFFFFFA0
1FFFFFFFFFFFFFA0
0FFFFFFFFFFFFF90
0DFFFFFFFFFFFF60
07FFFFFFFFFFFE10
01CFFFFFFFFFF600
001BFFFFFFFF6000
00005AEFEC820000
ENDCHAR
STARTCHAR numbersign
ENCODING 35
SWIDTH 482 0
DWIDTH 15 0
BBX 17 22 -1 0
BITMAP
000001466653000000
0003BFFFFFFFD70000
005FFFFFFFFFFFB000
02FFFFF8AF8AFFF900
0AFFFFE06F06FFFF20
0EFFFD604703BFFF60
1FFFFA0000009FFF70
1FFFFE80A809EFFF80
1FFFFF70D90CFFFF80
1FFFFF60F70EFFFF80
1FFFFA319409FFFF80
1FFFF2000002FFFF80
1FFFFB13B12CFFFF80
1FFFFF06F15FFFFF80
1FFFFFBDFBCFFFFF80
1FFFFFFFFFFFFFFF80
0FFFFFFFFFFFFFFF70
0DFFFFFFFFFFFFFF50
07FFFFFFFFFFFFFE00
01CFFFFFFFFFFFF500
001BFFFFFFFFFE5000
00005ADFFFEC710000
ENDCHAR
STARTCHAR dollar
ENCODING 36
SWIDTH 578 0
DWIDTH 19 0
BBX 20 22 -1 0
BITMAP
00000146666665300000
0003BFFFFFFFFFFE7000
005FFFFFFC0DFFFFFB10
02FFFFE7530458FFFFA0
0AFFFF300101006FFFF2
0EFFFF04FC0DE22FFFF7
1FFFFE07FC0DFCCFFFF8
1FFFFE05FC0DFFFFFFF8
1FFFFF20440458FFFFF8
1FFFFFC31101007FFFF8
1FFFFFFFFC0DE13FFFF8
1FFFFFFEFC0DF23FFFF8
1FFFFE05FC0DF13FFFF8
1FFFFF203304306FFFF8
1FFFFFC3210125EFFFF8
1FFFFFFFFC0DFFFFFFF8
0FFFFFFFFD3EFFFFFFF8
0DFFFFFFFFFFFFFFFFF5
07FFFFFFFFFFFFFFFFE1
01CFFFFFFFFFFFFFFF50
001BFFFFFFFFFFFFE600
00005ADFFFFFFEC81000
ENDCHAR
STARTCHAR percent
ENCODING 37
SWIDTH 578 0
DWIDTH 19 0
BBX 20 22 -1 0
BITMAP
00000146666665300000
0003BFFFFFFFFFFE7000
005FFEDEFFFEFFFFFB10
02FF80008FE06FFFFFA0
0AFD03820FA08FFFFFF2
0EFC08F60F60DFFFFFF7
1FFD02611F22FFFFFFF8
1FFF8102BC07FFFFFFF8
1FFFFFEFF80BFFFFFFF8
1FFFFFFFF41FA213CFF8
1FFFFFFFE05E01411FF8
1FFFFFFFA0AD07F60EF8
1FFFFFFF50ED04A30EF8
1FFFFFFF14FF60006FF8
1FFFFFFFEDFFFDBCFFF8
1FFFFFFFFFFFFFFFFFF8
0FFFFFFFFFFFFFFFFFF8
0DFFFFFFFFFFFFFFFFF5
07FFFFFFFFFFFFFFFFE1
01CFFFFFFFFFFFFFFF50
001BFFFFFFFFFFFFE600
00005ADFFFFFFEC81000
ENDCHAR
STARTCHAR ampersand
ENCODING 38
SWIDTH 578 0
DWIDTH 19 0
BBX 20 22 -1 0
BITMAP
00000146666665300000
0003BFFFFFFFFFFE7000
005FFFFA200004FFFB10
02FFFFE0155549FFFFA0
0AFFFFC08FFFFFFFFFF2
0EFFFFC09FFFFFFFFFF7
1FFFFFC08FFFF80CFFF8
1FFFFFF427888406DFF8
1FFFFFFD10000005FFF8
1FFFFFE25CCCC60CFFF8
1FFFFFC09FFFF80CFFF8
1FFFFFC09FFFF80CFFF8
1FFFFFC07FFFF70DFFF8
1FFFFFE01344311FFFF8
1FFFFFFB311123BFFFF8
1FFFFFFFFFFFFFFFFFF8
0FFFFFFFFFFFFFFFFFF8
0DFFFFFFFFFFFFFFFFF5
07FFFFFFFFFFFFFFFFE1
01CFFFFFFFFFFFFFFF50
001BFFFFFFFFFFFFE600
00005ADFFFFFFEC81000
ENDCHAR
STARTCHAR quotesingle
ENCODING 39
SWIDTH 424 0
DWIDTH 14 0
BBX 15 22 -1 0
BITMAP
0000014653000000
0003BFFFFFE70000
005FFFF25FFFC100
02FFFFF25FFFFB00
0AFFFFF25FFFFF30
0EFFFFF25FFFFF80
1FFFFFFFFFFFFF90
1FFFFFFFFFFFFFA0
1FFFFFFFFFFFFFA0
1FFFFFFFFFFFFFA0
1FFFFFFFFFFFFFA0
1FFFFFFFFFFFFFA0
1FFFFFFFFFFFFFA0
1FFFFFFFFFFFFFA0
1FFFFFFFFFFFFFA0
1FFFFFFFFFFFFFA0
0FFFFFFFFFFFFF90
0DFFFFFFFFFFFF60
07FFFFFFFFFFFE10
01CFFFFFFFFFF600
001BFFFFFFFF6000
00005AEFEC820000
ENDCHAR
STARTCHAR parenleft
ENCODING 40
SWIDTH 483 0
DWIDTH 15 0
BBX 17 22 -1 0
BITMAP
000001466653000000
0003BFFFFFFFE70000
005FFFE3002FFFB100
02FFFF50467FFFF900
0AFFFF32FFFFFFFF20
0EFFFF33FFFFFFFF60
1FFFFF33FFFFFFFF80
1FFFFF33FFFFFFFF80
1FFFFF33FFFFFFFF80
1FFFFF33FFFFFFFF80
1FFFFF33FFFFFFFF80
1FFFFF33FFFFFFFF80
1FFFFF33FFFFFFFF80
1FFFFF33FFFFFFFF80
1FFFFF32FFFFFFFF80
1FFFFF50345FFFFF80
0FFFFFE5212FFFFF80
0DFFFFFFFFFFFFFF50
07FFFFFFFFFFFFFE10
01CFFFFFFFFFFFF500
001BFFFFFFFFFE5000
00005ADFFFEC810000
ENDCHAR
STARTCHAR parenright
ENCODING 41
SWIDTH 483 0
DWIDTH 15 0
BBX 17 22 -1 0
BITMAP
000001466653000000
0003BFFFFFFFE70000
005FFF90019FFFB100
02FFFFB6520DFFF900
0AFFFFFFF90BFFFF20
0EFFFFFFFA0BFFFF60
1FFFFFFFFA0BFFFF80
1FFFFFFFFA0BFFFF80
1FFFFFFFFA0BFFFF80
1FFFFFFFFA0BFFFF80
1FFFFFFFFA0BFFFF80
1FFFFFFFFA0BFFFF80
1FFFFFFFFA0BFFFF80
1FFFFFFFFA0BFFFF80
1FFFFFFFF90BFFFF80
1FFFFFB4410DFFFF80
0FFFFF9113AFFFFF80
0DFFFFFFFFFFFFFF50
07FFFFFFFFFFFFFE10
01CFFFFFFFFFFFF500
001BFFFFFFFFFE5000
00005ADFFFEC810000
ENDCHAR
STARTCHAR asterisk
ENCODING 42
SWIDTH 428 0
DWIDTH 14 0
BBX 15 22 -1 0
BITMAP
0000014654000000
0003BFFFFFE81000
005FFE67F76ED200
02FFFF30A03FFC00
0AFFEDA000ADEF50
0EFFA0000000AFA0
1FFFC7600067CFB0
1FFFFF70407FFFC0
1FFFFE13F31EFFC0
1FFFFFEDFDEFFFC0
1FFFFFFFFFFFFFC0
1FFFFFFFFFFFFFC0
1FFFFFFFFFFFFFC0
1FFFFFFFFFFFFFC0
1FFFFFFFFFFFFFC0
1FFFFFFFFFFFFFC0
0FFFFFFFFFFFFFB0
0DFFFFFFFFFFFF80
07FFFFFFFFFFFF30
01CFFFFFFFFFF800
001BFFFFFFFF8000
00005ADFED920000
ENDCHAR
STARTCHAR plus
ENCODING 43
SWIDTH 428 0
DWIDTH 14 0
BBX 15 22 -1 0
BITMAP
0000014654000000
0003BFFFFFE81000
005FFFF23FFFD200
02FFFFF23FFFFC00
0AFFFFF23FFFFF50
0EFF21100113FFA0
1FFF64411446FFB0
1FFFFFF23FFFFFC0
1FFFFFF23FFFFFC0
1FFFFFF56FFFFFC0
1FFFFFFFFFFFFFC0
1FFFFFFFFFFFFFC0
1FFFFFFFFFFFFFC0
1FFFFFFFFFFFFFC0
1FFFFFFFFFFFFFC0
1FFFFFFFFFFFFFC0
0FFFFFFFFFFFFFB0
0DFFFFFFFFFFFF80
07FFFFFFFFFFFF30
01CFFFFFFFFFF800
001BFFFFFFFF8000
00005ADFED920000
ENDCHAR
STARTCHAR comma
ENCODING 44
SWIDTH 428 0
DWIDTH 14 0
BBX 15 22 -1 0
BITMAP
0000014654000000
0003BFFFFFE81000
005FFFFFFFFFD200
02FFFFFFFFFFFC00
0AFFFFFFFFFFFF50
0EFFFFFFFFFFFFA0
1FFFFFFFFFFFFFB0
1FFFFFFFFFFFFFC0
1FFFFFFFFFFFFFC0
1FFFFFFFFFFFFFC0
1FFFFFFFFFFFFFC0
1FFFFFFFFFFFFFC0
1FFFFFFEEFFFFFC0
1FFFFFC00CFFFFC0
1FFFFFD10CFFFFC0
1FFFFFF92FFFFFC0
0FFFFFF89FFFFFB0
0DFFFFFFFFFFFF80
07FFFFFFFFFFFF30
01CFFFFFFFFFF800
001BFFFFFFFF8000
00005ADFED920000
ENDCHAR
STARTCHAR hyphen
ENCODING 45
SWIDTH 428 0
DWIDTH 14 0
BBX 15 22 -1 0
BITMAP
0000014654000000
0003BFFFFFE81000
005FFFFFFFFFD200
02FFFFFFFFFFFC00
0AFFFFFFFFFFFF50
0EFFFFFFFFFFFFA0
1FFFE000003FFFB0
1FFFE555557FFFC0
1FFFFFFFFFFFFFC0
1FFFFFFFFFFFFFC0
1FFFFFFFFFFFFFC0
1FFFFFFFFFFFFFC0
1FFFFFFFFFFFFFC0
1FFFFFFFFFFFFFC0
1FFFFFFFFFFFFFC0
1FFFFFFFFFFFFFC0
0FFFFFFFFFFFFFB0
0DFFFFFFFFFFFF80
07FFFFFFFFFFFF30
01CFFFFFFFFFF800
001BFFFFFFFF8000
00005ADFED920000
ENDCHAR
STARTCHAR period
ENCODING 46
SWIDTH 428 0
DWIDTH 14 0
BBX 15 22 -1 0
BITMAP
0000014654000000
0003BFFFFFE81000
005FFFFFFFFFD200
02FFFFFFFFFFFC00
0AFFFFFFFFFFFF50
0EFFFFFFFFFFFFA0
1FFFFFFFFFFFFFB0
1FFFFFFFFFFFFFC0
1FFFFFFFFFFFFFC0
1FFFFFFFFFFFFFC0
1FFFFFFFFFFFFFC0
1FFFFFFFFFFFFFC0
1FFFFFFEEFFFFFC0
1FFFFFC02FFFFFC0
1FFFFFD13FFFFFC0
1FFFFFFFFFFFFFC0
0FFFFFFFFFFFFFB0
0DFFFFFFFFFFFF80
07FFFFFFFFFFFF30
01CFFFFFFFFFF800
001BFFFFFFFF8000
00005ADFED920000
ENDCHAR
STARTCHAR slash
ENCODING 47
SWIDTH 428 0
DWIDTH 14 0
BBX 15 22 -1 0
BITMAP
0000014654000000
0003BFFFFFE81000
005FFFFF89FFD200
02FFFFFE06FFFC00
0AFFFFFB09FFFF50
0EFFFFF90BFFFFA0
1FFFFFF60EFFFFB0
1FFFFFF41FFFFFC0
1FFFFFF14FFFFFC0
1FFFFFE06FFFFFC0
1FFFFFB09FFFFFC0
1FFFFF80BFFFFFC0
1FFFFF60EFFFFFC0
1FFFFF31FFFFFFC0
1FFFFF14FFFFFFC0
1FFFFFACFFFFFFC0
0FFFFFFFFFFFFFB0
0DFFFFFFFFFFFF80
07FFFFFFFFFFFF30
01CFFFFFFFFFF800
001BFFFFFFFF8000
00005ADFED920000
ENDCHAR
STARTCHAR zero
ENCODING 48
SWIDTH 578 0
DWIDTH 19 0
BBX 20 22 -1 0
BITMAP
00000146666665300000
0003BFFFFFFFFFFE7000
005FFFC31000014EFB10
02FFFF2145555406FFA0
0AFFFF05FFFFFF14FFF2
0EFFFF06FFFFFF23FFF7
1FFFFF06FFFFFF23FFF8
1FFFFF06FFFFFF23FFF8
1FFFFF06FFFFFF23FFF8
1FFFFF06FFFFFF23FFF8
1FFFFF06FFFFFF23FFF8
1FFFFF06FFFFFF23FFF8
1FFFFF04FFFFFF14FFF8
1FFFFF3034444206FFF8
1FFFFFD42111125EFFF8
1FFFFFFFFFFFFFFFFFF8
0FFFFFFFFFFFFFFFFFF8
0DFFFFFFFFFFFFFFFFF5
07FFFFFFFFFFFFFFFFE1
01CFFFFFFFFFFFFFFF50
001BFFFFFFFFFFFFE600
00005ADFFFFFFEC81000
ENDCHAR
STARTCHAR one
ENCODING 49
SWIDTH 578 0
DWIDTH 19 0
BBX 20 22 -1 0
BITMAP
00000146666665300000
0003BFFFFFFFFFFE7000
005FFFFE8307FFFFFB10
02FFFFFD0107FFFFFFA0
0AFFFFFECD07FFFFFFF2
0EFFFFFFFD07FFFFFFF7
1FFFFFFFFD07FFFFFFF8
1FFFFFFFFD07FFFFFFF8
1FFFFFFFFD07FFFFFFF8
1FFFFFFFFD07FFFFFFF8
1FFFFFFFFD07FFFFFFF8
1FFFFFFFFD07FFFFFFF8
1FFFFFFFFD07FFFFFFF8
1FFFFFFFFD07FFFFFFF8
1FFFFFFFFD28FFFFFFF8
1FFFFFFFFFFFFFFFFFF8
0FFFFFFFFFFFFFFFFFF8
0DFFFFFFFFFFFFFFFFF5
07FFFFFFFFFFFFFFFFE1
01CFFFFFFFFFFFFFFF50
001BFFFFFFFFFFFFE600
00005ADFFFFFFEC81000
ENDCHAR
STARTCHAR two
ENCODING 50
SWIDTH 578 0
DWIDTH 19 0
BBX 20 22 -1 0
BITMAP
00000146666665300000
0003BFFFFFFFFFFE7000
005FFFD31000028FFB10
02FFFF314555520CFFA0
0AFFFF14FFFFFA09FFF2
0EFFFFFFFFFFFB09FFF7
1FFFFFFFFFFFFB09FFF8
1FFFFFFFEDDDD60AFFF8
1FFFFFC40000003EFFF8
1FFFFF2178888CFFFFF8
1FFFFF15FFFFFFFFFFF8
1FFFFF05FFFFFFFFFFF8
1FFFFF05FFFFFFFFFFF8
1FFFFF024444446FFFF8
1FFFFF911111113FFFF8
1FFFFFFFFFFFFFFFFFF8
0FFFFFFFFFFFFFFFFFF8
0DFFFFFFFFFFFFFFFFF5
07FFFFFFFFFFFFFFFFE1
01CFFFFFFFFFFFFFFF50
001BFFFFFFFFFFFFE600
00005ADFFFFFFEC81000
ENDCHAR
STARTCHAR three
ENCODING 51
SWIDTH 578 0
DWIDTH 19 0
BBX 20 22 -1 0
BITMAP
00000146666665300000
0003BFFFFFFFFFFE7000
005FFF72100013BFFB10
02FFFA024444410EFFA0
0AFFF70CFFFFF80CFFF2
0EFFFFFFFFFFF90CFFF7
1FFFFFFFFFFFF80CFFF8
1FFFFFFFBBBBA40DFFF8
1FFFFFFF0000002FFFF8
1FFFFFFFCCCCC50DFFF8
1FFFFFFFFFFFF90CFFF8
1FFFFFFFFFFFF90CFFF8
1FFFF70CFFFFF80CFFF8
1FFFFA024444410EFFF8
1FFFFF72111113AFFFF8
1FFFFFFFFFFFFFFFFFF8
0FFFFFFFFFFFFFFFFFF8
0DFFFFFFFFFFFFFFFFF5
07FFFFFFFFFFFFFFFFE1
01CFFFFFFFFFFFFFFF50
001BFFFFFFFFFFFFE600
00005ADFFFFFFEC81000
ENDCHAR
STARTCHAR four
ENCODING 52
SWIDTH 578 0
DWIDTH 19 0
BBX 20 22 -1 0
BITMAP
00000146666665300000
0003BFFFFFFFFFFE7000
005FFFA0BFFF24FFFB10
02FFFFA0BFFF24FFFFA0
0AFFFFA0BFFF24FFFFF2
0EFFFFA0BFFF24FFFFF7
1FFFFFA0BFFF24FFFFF8
1FFFFFA0BFFF24FFFFF8
1FFFFFA0BFFF24FFFFF8
1FFFFFA0AFFF24FFFFF8
1FFFFFD013440133DFF8
1FFFFFFA32220022DFF8
1FFFFFFFFFFF24FFFFF8
1FFFFFFFFFFF24FFFFF8
1FFFFFFFFFFF34FFFFF8
1FFFFFFFFFFFFFFFFFF8
0FFFFFFFFFFFFFFFFFF8
0DFFFFFFFFFFFFFFFFF5
07FFFFFFFFFFFFFFFFE1
01CFFFFFFFFFFFFFFF50
001BFFFFFFFFFFFFE600
00005ADFFFFFFEC81000
ENDCHAR
STARTCHAR five
ENCODING 53
SWIDTH 578 0
DWIDTH 19 0
BBX 20 22 -1 0
BITMAP
00000146666665300000
0003BFFFFFFFFFFE7000
005FFFA00000000FFB10
02FFFF316666666FFFA0
0AFFFF32FFFFFFFFFFF2
0EFFFF32FFFFFFFFFFF7
1FFFFF32FFFFFFFFFFF8
1FFFFF302000026FFFF8
1FFFFF4235555309FFF8
1FFFFFFFFFFFFE06FFF8
1FFFFFFFFFFFFF06FFF8
1FFFFFFFFFFFFF06FFF8
1FFFFF97FFFFFD06FFF8
1FFFFF6034444209FFF8
1FFFFFE52111126FFFF8
1FFFFFFFFFFFFFFFFFF8
0FFFFFFFFFFFFFFFFFF8
0DFFFFFFFFFFFFFFFFF5
07FFFFFFFFFFFFFFFFE1
01CFFFFFFFFFFFFFFF50
001BFFFFFFFFFFFFE600
00005ADFFFFFFEC81000
ENDCHAR
STARTCHAR six
ENCODING 54
SWIDTH 578 0
DWIDTH 19 0
BBX 20 22 -1 0
BITMAP
00000146666665300000
0003BFFFFFFFFFFE7000
005FFFE41000014FFB10
02FFFF603333323FFFA0
0AFFFF32FFFFFFFFFFF2
0EFFFF32FFFFFFFFFFF7
1FFFFF32FFFFFFFFFFF8
1FFFFF301000013DFFF8
1FFFFF3045555413FFF8
1FFFFF32FFFFFF40FFF8
1FFFFF32FFFFFF50FFF8
1FFFFF32FFFFFF50FFF8
1FFFFF31FFFFFF40FFF8
1FFFFF6034444303FFF8
1FFFFFE52111124DFFF8
1FFFFFFFFFFFFFFFFFF8
0FFFFFFFFFFFFFFFFFF8
0DFFFFFFFFFFFFFFFFF5
07FFFFFFFFFFFFFFFFE1
01CFFFFFFFFFFFFFFF50
001BFFFFFFFFFFFFE600
00005ADFFFFFFEC81000
ENDCHAR
STARTCHAR seven
ENCODING 55
SWIDTH 578 0
DWIDTH 19 0
BBX 20 22 -1 0
BITMAP
00000146666665300000
0003BFFFFFFFFFFE7000
005FFFF8000000AFFB10
02FFFFFB555520BFFFA0
0AFFFFFFFFFF22FFFFF2
0EFFFFFFFFFB07FFFFF7
1FFFFFFFFFF60CFFFFF8
1FFFFFFFFFF12FFFFFF8
1FFFFFFFFFA08FFFFFF8
1FFFFFFFFF40DFFFFFF8
1FFFFFFFFE03FFFFFFF8
1FFFFFFFF908FFFFFFF8
1FFFFFFFF30DFFFFFFF8
1FFFFFFFD04FFFFFFFF8
1FFFFFFF819FFFFFFFF8
1FFFFFFFFFFFFFFFFFF8
0FFFFFFFFFFFFFFFFFF8
0DFFFFFFFFFFFFFFFFF5
07FFFFFFFFFFFFFFFFE1
01CFFFFFFFFFFFFFFF50
001BFFFFFFFFFFFFE600
00005ADFFFFFFEC81000
ENDCHAR
STARTCHAR eight
ENCODING 56
SWIDTH 578 0
DWIDTH 19 0
BBX 20 22 -1 0
BITMAP
00000146666665300000
0003BFFFFFFFFFFE7000
005FFFC31000015EFB10
02FFFF1145555307FFA0
0AFFFE06FFFFFF05FFF2
0EFFFD07FFFFFF14FFF7
1FFFFE06FFFFFF04FFF8
1FFFFF1178887506FFF8
1FFFFF400000000AFFF8
1FFFFF04CCCCCA06FFF8
1FFFFD07FFFFFF14FFF8
1FFFFD07FFFFFF14FFF8
1FFFFE05FFFFFE05FFF8
1FFFFF2034444207FFF8
1FFFFFC32111126FFFF8
1FFFFFFFFFFFFFFFFFF8
0FFFFFFFFFFFFFFFFFF8
0DFFFFFFFFFFFFFFFFF5
07FFFFFFFFFFFFFFFFE1
01CFFFFFFFFFFFFFFF50
001BFFFFFFFFFFFFE600
00005ADFFFFFFEC81000
ENDCHAR
STARTCHAR nine
ENCODING 57
SWIDTH 578 0
DWIDTH 19 0
BBX 20 22 -1 0
BITMAP
00000146666665300000
0003BFFFFFFFFFFE7000
005FFF920000016FFB10
02FFFD015666520AFFA0
0AFFFB08FFFFFC07FFF2
0EFFFB09FFFFFD07FFF7
1FFFFB09FFFFFD07FFF8
1FFFFB09FFFFFC07FFF8
1FFFFD0144444207FFF8
1FFFFFA311111207FFF8
1FFFFFFFFFFFFD07FFF8
1FFFFFFFFFFFFD07FFF8
1FFFFFFFFFFFFC07FFF8
1FFFFFD01222210AFFF8
1FFFFFD42111138FFFF8
1FFFFFFFFFFFFFFFFFF8
0FFFFFFFFFFFFFFFFFF8
0DFFFFFFFFFFFFFFFFF5
07FFFFFFFFFFFFFFFFE1
01CFFFFFFFFFFFFFFF50
001BFFFFFFFFFFFFE600
00005ADFFFFFFEC81000
ENDCHAR
STARTCHAR colon
ENCODING 58
SWIDTH 428 0
DWIDTH 14 0
BBX 15 22 -1 0
BITMAP
0000014654000000
0003BFFFFFE81000
005FFFFFFFFFD200
02FFFFFFFFFFFC00
0AFFFFFFFFFFFF50
0EFFFFFFFFFFFFA0
1FFFFFFFFFFFFFB0
1FFFFFFFFFFFFFC0
1FFFFFD67FFFFFC0
1FFFFFC02FFFFFC0
1FFFFFE99FFFFFC0
1FFFFFFFFFFFFFC0
1FFFFFFEEFFFFFC0
1FFFFFC02FFFFFC0
1FFFFFD13FFFFFC0
1FFFFFFFFFFFFFC0
0FFFFFFFFFFFFFB0
0DFFFFFFFFFFFF80
07FFFFFFFFFFFF30
01CFFFFFFFFFF800
001BFFFFFFFF8000
00005ADFED920000
ENDCHAR
STARTCHAR semicolon
ENCODING 59
SWIDTH 428 0
DWIDTH 14 0
BBX 15 22 -1 0
BITMAP
0000014654000000
0003BFFFFFE81000
005FFFFFFFFFD200
02FFFFFFFFFFFC00
0AFFFFFFFFFFFF50
0EFFFFFFFFFFFFA0
1FFFFFFFFFFFFFB0
1FFFFFFFFFFFFFC0
1FFFFFF76EFFFFC0
1FFFFFF10DFFFFC0
1FFFFFF99EFFFFC0
1FFFFFFFFFFFFFC0
1FFFFFFEEFFFFFC0
1FFFFFC00CFFFFC0
1FFFFFD10CFFFFC0
1FFFFFF92FFFFFC0
0FFFFFF89FFFFFB0
0DFFFFFFFFFFFF80
07FFFFFFFFFFFF30
01CFFFFFFFFFF800
001BFFFFFFFF8000
00005ADFED920000
ENDCHAR
STARTCHAR less
ENCODING 60
SWIDTH 482 0
DWIDTH 15 0
BBX 17 24 -1 1
BITMAP
000000345541000000
00018EFFFFFFA30000
002DFFFFFFFFFF7000
01DFFFFFFFFFFFF500
08FFFFFFFFFFFFFE00
0DFFFFFFFFFFFFFF40
0FFFFFFFFFBFFFFF70
1FFFFFFFF64FFFFF80
1FFFFFFF83EFFFFF80
1FFFFFFA2DFFFFFF80
1FFFFFC1CFFFFFFF80
1FFFFD1BFFFFFFFF80
1FFFF46FFFFFFFFF80
1FFFFC1CFFFFFFFF80
1FFFFFB1DFFFFFFF80
1FFFFFF92EFFFFFF80
1FFFFFFF73FFFFFF80
0FFFFFFFF55FFFFF70
0DFFFFFFFFAFFFFF50
08FFFFFFFFFFFFFF10
01EFFFFFFFFFFFF700
003EFFFFFFFFFF9000
00019FFFFFFFC50000
000001467752000000
ENDCHAR
STARTCHAR equal
ENCODING 61
SWIDTH 482 0
DWIDTH 15 0
BBX 17 24 -1 1
BITMAP
000000245541000000
00017EFFFFFFB30000
002DFFFFFFFFFF7000
01DFFFFFFFFFFFF600
08FFFFFFFFFFFFFE10
0DFFFFFFFFFFFFFF50
0FFFFFFFFFFFFFFF70
1FFFFFFFFFFFFFFF80
1FFFFFFFFFFFFFFF80
1FFFFFEEEEEEFFFF80
1FFFFF111111EFFF80
1FFFFFFFFFFFFFFF80
1FFFFFFFFFFFFFFF80
1FFFFF000000EFFF80
1FFFFFEEEEEEFFFF80
1FFFFFFFFFFFFFFF80
1FFFFFFFFFFFFFFF80
0FFFFFFFFFFFFFFF70
0DFFFFFFFFFFFFFF50
08FFFFFFFFFFFFFE10
01EFFFFFFFFFFFF700
004EFFFFFFFFFF9000
0002AFFFFFFFC50000
000001577762000000
ENDCHAR
STARTCHAR greater
ENCODING 62
SWIDTH 482 0
DWIDTH 15 0
BBX 17 24 -1 1
BITMAP
000000245541000000
00017EFFFFFFB30000
002DFFFFFFFFFF7000
01DFFFFFFFFFFFF600
08FFFFFFFFFFFFFE10
0DFFFFFFFFFFFFFF50
0FFFFFECFFFFFFFF70
1FFFFFB1DFFFFFFF80
1FFFFFF82EFFFFFF80
1FFFFFFF64FFFFFF80
1FFFFFFFF55FFFFF80
1FFFFFFFFE37FFFF80
1FFFFFFFFFD0DFFF80
1FFFFFFFFF46FFFF80
1FFFFFFFF64FFFFF80
1FFFFFFF83EFFFFF80
1FFFFFFA2EFFFFFF80
0FFFFFB1CFFFFFFF70
0DFFFFDBFFFFFFFF50
08FFFFFFFFFFFFFE10
01EFFFFFFFFFFFF700
004EFFFFFFFFFF9000
0002AFFFFFFFC50000
000001577762000000
ENDCHAR
STARTCHAR question
ENCODING 63
SWIDTH 578 0
DWIDTH 19 0
BBX 20 22 -1 0
BITMAP
00000146666665300000
0003BFFFFFFFFFFE7000
005FFFFD5322249FFB10
02FFFFF23667760CFFA0
0AFFFFF3BFFFFF19FFF2
0EFFFFFFFFFFFF18FFF7
1FFFFFFFFFFFFF18FFF8
1FFFFFFFFFFFFF19FFF8
1FFFFFFFFFA5430CFFF8
1FFFFFFFFF2246BFFFF8
1FFFFFFFFF18FFFFFFF8
1FFFFFFFFF18FFFFFFF8
1FFFFFFFFFBDFFFFFFF8
1FFFFFFFFE38FFFFFFF8
1FFFFFFFFE48FFFFFFF8
1FFFFFFFFFFFFFFFFFF8
0FFFFFFFFFFFFFFFFFF8
0DFFFFFFFFFFFFFFFFF5
07FFFFFFFFFFFFFFFFE1
01CFFFFFFFFFFFFFFF50
001BFFFFFFFFFFFFE600
00005ADFFFFFFEC81000
ENDCHAR
STARTCHAR at
ENCODING 64
SWIDTH 578 0
DWIDTH 19 0
BBX 20 22 -1 0
BITMAP
00000146666665300000
0003BFFFFDCCDFFE7000
005FFE830000016EFB10
02FFD2048BCCB712DFA0
0AFF51BFFFFFFFD25FF2
0EFE18FE30013DFA0EF7
1FFD0BFF9CDB34FD0BF8
1FFC0CFFFFFF81FF0AF8
1FFD0CFFCA8960FF0AF8
1FFD0CFA012100FF0AF8
1FFD0CF16FFF80FF0AF8
1FFE0BF33CDC60FF09F8
1FFF0AFD200030EE0BF8
1FFF36FFFEDFF3221EF8
1FFF909FFFFFFDBBDFF8
1FFFF501455CFFFFFFF8
0FFFFFB8765CFFFFFFF8
0DFFFFFFFFFFFFFFFFF5
07FFFFFFFFFFFFFFFFE1
01CFFFFFFFFFFFFFFF50
001BFFFFFFFFFFFFE600
00005ADFFFFFFEC81000
ENDCHAR
STARTCHAR A
ENCODING 65
SWIDTH 578 0
DWIDTH 19 0
BBX 20 22 -1 0
BITMAP
00000146666665300000
0003BFFFFFFFFFFE7000
005FFFFA310025EFFB10
02FFFFD01455306FFFA0
0AFFFFB09FFFF13FFFF2
0EFFFFA0AFFFF22FFFF7
1FFFFF80CFFFF40FFFF8
1FFFFF60DFFFF60EFFF8
1FFFFF509AAAA50CFFF8
1FFFFF300000000BFFF8
1FFFFF12DDDDD909FFF8
1FFFFF04FFFFFC07FFF8
1FFFFD05FFFFFD06FFF8
1FFFFB06FFFFFE04FFF8
1FFFFA18FFFFFF24FFF8
1FFFFFFFFFFFFFFFFFF8
0FFFFFFFFFFFFFFFFFF8
0DFFFFFFFFFFFFFFFFF5
07FFFFFFFFFFFFFFFFE1
01CFFFFFFFFFFFFFFF50
001BFFFFFFFFFFFFE600
00005ADFFFFFFEC81000
ENDCHAR
STARTCHAR B
ENCODING 66
SWIDTH 578 0
DWIDTH 19 0
BBX 20 22 -1 0
BITMAP
00000146666665300000
0003BFFFFFFFFFFE7000
005FFC00000002BFFB10
02FFFC035555411FFFA0
0AFFFC08FFFFF50DFFF2
0EFFFC08FFFFF60CFFF7
1FFFFC08FFFFF70DFFF8
1FFFFC048888722FFFF8
1FFFFC00000001AFFFF8
1FFFFC07DDDDC50EFFF8
1FFFFC08FFFFF80CFFF8
1FFFFC08FFFFF80CFFF8
1FFFFC08FFFFF70DFFF8
1FFFFC024444311FFFF8
1FFFFC11111123BFFFF8
1FFFFFFFFFFFFFFFFFF8
0FFFFFFFFFFFFFFFFFF8
0DFFFFFFFFFFFFFFFFF5
07FFFFFFFFFFFFFFFFE1
01CFFFFFFFFFFFFFFF50
001BFFFFFFFFFFFFE600
00005ADFFFFFFEC81000
ENDCHAR
STARTCHAR C
ENCODING 67
SWIDTH 578 0
DWIDTH 19 0
BBX 20 22 -1 0
BITMAP
00000146666665300000
0003BFFFFFFFFFFE7000
005FFFB2000002DFFB10
02FFFF11566653EFFFA0
0AFFFD06FFFFFFFFFFF2
0EFFFD07FFFFFFFFFFF7
1FFFFD07FFFFFFFFFFF8
1FFFFD07FFFFFFFFFFF8
1FFFFD07FFFFFFFFFFF8
1FFFFD07FFFFFFFFFFF8
1FFFFD07FFFFFFFFFFF8
1FFFFD07FFFFFFFFFFF8
1FFFFD06FFFFFFFFFFF8
1FFFFF10344442FFFFF8
1FFFFFC3211113DFFFF8
1FFFFFFFFFFFFFFFFFF8
0FFFFFFFFFFFFFFFFFF8
0DFFFFFFFFFFFFFFFFF5
07FFFFFFFFFFFFFFFFE1
01CFFFFFFFFFFFFFFF50
001BFFFFFFFFFFFFE600
00005ADFFFFFFEC81000
ENDCHAR
STARTCHAR D
ENCODING 68
SWIDTH 578 0
DWIDTH 19 0
BBX 20 22 -1 0
BITMAP
00000146666665300000
0003BFFFFFFFFFFE7000
005FFF200000013DFB10
02FFFF2155555404FFA0
0AFFFF24FFFFFF32FFF2
0EFFFF24FFFFFF41FFF7
1FFFFF24FFFFFF41FFF8
1FFFFF24FFFFFF41FFF8
1FFFFF24FFFFFF41FFF8
1FFFFF24FFFFFF41FFF8
1FFFFF24FFFFFF41FFF8
1FFFFF24FFFFFF41FFF8
1FFFFF24FFFFFF32FFF8
1FFFFF2144444304FFF8
1FFFFF311111124EFFF8
1FFFFFFFFFFFFFFFFFF8
0FFFFFFFFFFFFFFFFFF8
0DFFFFFFFFFFFFFFFFF5
07FFFFFFFFFFFFFFFFE1
01CFFFFFFFFFFFFFFF50
001BFFFFFFFFFFFFE600
00005ADFFFFFFEC81000
ENDCHAR
STARTCHAR E
ENCODING 69
SWIDTH 578 0
DWIDTH 19 0
BBX 20 22 -1 0
BITMAP
00000146666665300000
0003BFFFFFFFFFFE7000
005FFFF40000001FFB10
02FFFFF40555556FFFA0
0AFFFFF41FFFFFFFFFF2
0EFFFFF41FFFFFFFFFF7
1FFFFFF41FFFFFFFFFF8
1FFFFFF41AAAAAEFFFF8
1FFFFFF4000000DFFFF8
1FFFFFF41BBBBBEFFFF8
1FFFFFF41FFFFFFFFFF8
1FFFFFF41FFFFFFFFFF8
1FFFFFF41FFFFFFFFFF8
1FFFFFF40444444DFFF8
1FFFFFF51111111DFFF8
1FFFFFFFFFFFFFFFFFF8
0FFFFFFFFFFFFFFFFFF8
0DFFFFFFFFFFFFFFFFF5
07FFFFFFFFFFFFFFFFE1
01CFFFFFFFFFFFFFFF50
001BFFFFFFFFFFFFE600
00005ADFFFFFFEC81000
ENDCHAR
STARTCHAR F
ENCODING 70
SWIDTH 578 0
DWIDTH 19 0
BBX 20 22 -1 0
BITMAP
00000146666665300000
0003BFFFFFFFFFFE7000
005FFFF30000000FFB10
02FFFFF31555555FFFA0
0AFFFFF32FFFFFFFFFF2
0EFFFFF32FFFFFFFFFF7
1FFFFFF32FFFFFFFFFF8
1FFFFFF3166666EFFFF8
1FFFFFF3000000EFFFF8
1FFFFFF32FFFFFFFFFF8
1FFFFFF32FFFFFFFFFF8
1FFFFFF32FFFFFFFFFF8
1FFFFFF32FFFFFFFFFF8
1FFFFFF32FFFFFFFFFF8
1FFFFFF43FFFFFFFFFF8
1FFFFFFFFFFFFFFFFFF8
0FFFFFFFFFFFFFFFFFF8
0DFFFFFFFFFFFFFFFFF5
07FFFFFFFFFFFFFFFFE1
01CFFFFFFFFFFFFFFF50
001BFFFFFFFFFFFFE600
00005ADFFFFFFEC81000
ENDCHAR
STARTCHAR G
ENCODING 71
SWIDTH 578 0
DWIDTH 19 0
BBX 20 22 -1 0
BITMAP
00000146666665300000
0003BFFFFFFFFFFE7000
005FFFF62000002EFB10
02FFFF803666653FFFA0
0AFFFF60EFFFFFFFFFF2
0EFFFF50FFFFFFFFFFF7
1FFFFF50FFFFFFFFFFF8
1FFFFF50FFFFFFFFFFF8
1FFFFF50FFF84446FFF8
1FFFFF50FFF50002FFF8
1FFFFF50FFFFFF32FFF8
1FFFFF50FFFFFF32FFF8
1FFFFF60EFFFFF22FFF8
1FFFFF8024444305FFF8
1FFFFFF62111125EFFF8
1FFFFFFFFFFFFFFFFFF8
0FFFFFFFFFFFFFFFFFF8
0DFFFFFFFFFFFFFFFFF5
07FFFFFFFFFFFFFFFFE1
01CFFFFFFFFFFFFFFF50
001BFFFFFFFFFFFFE600
00005ADFFFFFFEC81000
ENDCHAR
STARTCHAR H
ENCODING 72
SWIDTH 578 0
DWIDTH 19 0
BBX 20 22 -1 0
BITMAP
00000146666665300000
0003BFFFFFFFFFFE7000
005FFF23FFFFFF41FB10
02FFFF23FFFFFF41FFA0
0AFFFF23FFFFFF41FFF2
0EFFFF23FFFFFF41FFF7
1FFFFF23FFFFFF41FFF8
1FFFFF2277777721FFF8
1FFFFF2000000001FFF8
1FFFFF23DDDDDD41FFF8
1FFFFF23FFFFFF41FFF8
1FFFFF23FFFFFF41FFF8
1FFFFF23FFFFFF41FFF8
1FFFFF23FFFFFF41FFF8
1FFFFF34FFFFFF52FFF8
1FFFFFFFFFFFFFFFFFF8
0FFFFFFFFFFFFFFFFFF8
0DFFFFFFFFFFFFFFFFF5
07FFFFFFFFFFFFFFFFE1
01CFFFFFFFFFFFFFFF50
001BFFFFFFFFFFFFE600
00005ADFFFFFFEC81000
ENDCHAR
STARTCHAR I
ENCODING 73
SWIDTH 578 0
DWIDTH 19 0
BBX 20 22 -1 0
BITMAP
00000146666665300000
0003BFFFFFFFFFFE7000
005FFF9000000006FB10
02FFFFB555105559FFA0
0AFFFFFFFF41FFFFFFF2
0EFFFFFFFF41FFFFFFF7
1FFFFFFFFF41FFFFFFF8
1FFFFFFFFF41FFFFFFF8
1FFFFFFFFF41FFFFFFF8
1FFFFFFFFF41FFFFFFF8
1FFFFFFFFF41FFFFFFF8
1FFFFFFFFF41FFFFFFF8
1FFFFFFFFF41FFFFFFF8
1FFFFFB444104448FFF8
1FFFFF9111111116FFF8
1FFFFFFFFFFFFFFFFFF8
0FFFFFFFFFFFFFFFFFF8
0DFFFFFFFFFFFFFFFFF5
07FFFFFFFFFFFFFFFFE1
01CFFFFFFFFFFFFFFF50
001BFFFFFFFFFFFFE600
00005ADFFFFFFEC81000
ENDCHAR
STARTCHAR J
ENCODING 74
SWIDTH 578 0
DWIDTH 19 0
BBX 20 22 -1 0
BITMAP
00000146666665300000
0003BFFFFFFFFFFE7000
005FFFFFFFFA0BFFFB10
02FFFFFFFFFA0BFFFFA0
0AFFFFFFFFFA0BFFFFF2
0EFFFFFFFFFA0BFFFFF7
1FFFFFFFFFFA0BFFFFF8
1FFFFFFFFFFA0BFFFFF8
1FFFFFFFFFFA0BFFFFF8
1FFFFFFFFFFA0BFFFFF8
1FFFFFFFFFFA0BFFFFF8
1FFFFFFFFFFA0BFFFFF8
1FFFFFFFFFF90BFFFFF8
1FFFFFFF54310BFFFFF8
1FFFFFFF21139FFFFFF8
1FFFFFFFFFFFFFFFFFF8
0FFFFFFFFFFFFFFFFFF8
0DFFFFFFFFFFFFFFFFF5
07FFFFFFFFFFFFFFFFE1
01CFFFFFFFFFFFFFFF50
001BFFFFFFFFFFFFE600
00005ADFFFFFFEC81000
ENDCHAR
STARTCHAR K
ENCODING 75
SWIDTH 578 0
DWIDTH 19 0
BBX 20 22 -1 0
BITMAP
00000146666665300000
0003BFFFFFFFFFFB7000
005FFFF60FFFFF80BB10
02FFFFF60FFFF702EFA0
0AFFFFF60FFF702EFFF2
0EFFFFF60FF703EFFFF7
1FFFFFF60F703EFFFFF8
1FFFFFF60603EFFFFFF8
1FFFFFF60007FFFFFFF8
1FFFFFF606309FFFFFF8
1FFFFFF60FE20BFFFFF8
1FFFFFF60FFC11CFFFF8
1FFFFFF60FFFB01DFFF8
1FFFFFF60FFFF903EFF8
1FFFFFF61FFFFF63EFF8
1FFFFFFFFFFFFFFEFFF8
0FFFFFFFFFFFFFFFFFF8
0DFFFFFFFFFFFFFFFFF5
07FFFFFFFFFFFFFFFFE1
01CFFFFFFFFFFFFFFF50
001BFFFFFFFFFFFFE600
00005ADFFFFFFEC81000
ENDCHAR
STARTCHAR L
ENCODING 76
SWIDTH 578 0
DWIDTH 19 0
BBX 20 22 -1 0
BITMAP
00000146666665300000
0003BFFFFFFFFFFE7000
005FFFFF05FFFFFFFB10
02FFFFFF05FFFFFFFFA0
0AFFFFFF05FFFFFFFFF2
0EFFFFFF05FFFFFFFFF7
1FFFFFFF05FFFFFFFFF8
1FFFFFFF05FFFFFFFFF8
1FFFFFFF05FFFFFFFFF8
1FFFFFFF05FFFFFFFFF8
1FFFFFFF05FFFFFFFFF8
1FFFFFFF05FFFFFFFFF8
1FFFFFFF05FFFFFFFFF8
1FFFFFFF014444AFFFF8
1FFFFFFF1111119FFFF8
1FFFFFFFFFFFFFFFFFF8
0FFFFFFFFFFFFFFFFFF8
0DFFFFFFFFFFFFFFFFF5
07FFFFFFFFFFFFFFFFE1
01CFFFFFFFFFFFFFFF50
001BFFFFFFFFFFFFE600
00005ADFFFFFFEC81000
ENDCHAR
STARTCHAR M
ENCODING 77
SWIDTH 578 0
DWIDTH 19 0
BBX 20 22 -1 0
BITMAP
00000146666665300000
0003BFFFFFFFFFFE7000
005FFA2001A40015FB10
02FFF015541255309FA0
0AFFF05FFD07FFC08FF2
0EFFF05FFD07FFC08FF7
1FFFF05FFD07FFC08FF8
1FFFF05FFD07FFC08FF8
1FFFF05FFD07FFC08FF8
1FFFF05FFD07FFC08FF8
1FFFF05FFE9BFFC08FF8
1FFFF05FFFFFFFC08FF8
1FFFF05FFFFFFFC08FF8
1FFFF05FFFFFFFC08FF8
1FFFF16FFFFFFFC19FF8
1FFFFFFFFFFFFFFFFFF8
0FFFFFFFFFFFFFFFFFF8
0DFFFFFFFFFFFFFFFFF5
07FFFFFFFFFFFFFFFFE1
01CFFFFFFFFFFFFFFF50
001BFFFFFFFFFFFFE600
00005ADFFFFFFEC81000
ENDCHAR
STARTCHAR N
ENCODING 78
SWIDTH 578 0
DWIDTH 19 0
BBX 20 22 -1 0
BITMAP
00000146666665300000
0003BFFFFFFFFFFE7000
005FFF531000016FFB10
02FFFF0156665309FFA0
0AFFFF05FFFFFD07FFF2
0EFFFF05FFFFFD07FFF7
1FFFFF05FFFFFD07FFF8
1FFFFF05FFFFFD07FFF8
1FFFFF05FFFFFD07FFF8
1FFFFF05FFFFFD07FFF8
1FFFFF05FFFFFD07FFF8
1FFFFF05FFFFFD07FFF8
1FFFFF05FFFFFD07FFF8
1FFFFF05FFFFFD07FFF8
1FFFFF25FFFFFE17FFF8
1FFFFFFFFFFFFFFFFFF8
0FFFFFFFFFFFFFFFFFF8
0DFFFFFFFFFFFFFFFFF5
07FFFFFFFFFFFFFFFFE1
01CFFFFFFFFFFFFFFF50
001BFFFFFFFFFFFFE600
00005ADFFFFFFEC81000
ENDCHAR
STARTCHAR O
ENCODING 79
SWIDTH 578 0
DWIDTH 19 0
BBX 20 22 -1 0
BITMAP
00000146666665300000
0003BFFFFFFFFFFE7000
005FFFD31000014EFB10
02FFFF4045555405FFA0
0AFFFF24FFFFFF32FFF2
0EFFFF14FFFFFF32FFF7
1FFFFF14FFFFFF32FFF8
1FFFFF14FFFFFF32FFF8
1FFFFF14FFFFFF32FFF8
1FFFFF14FFFFFF32FFF8
1FFFFF14FFFFFF32FFF8
1FFFFF14FFFFFF32FFF8
1FFFFF23FFFFFF22FFF8
1FFFFF4034444305FFF8
1FFFFFE42111124EFFF8
1FFFFFFFFFFFFFFFFFF8
0FFFFFFFFFFFFFFFFFF8
0DFFFFFFFFFFFFFFFFF5
07FFFFFFFFFFFFFFFFE1
01CFFFFFFFFFFFFFFF50
001BFFFFFFFFFFFFE600
00005ADFFFFFFEC81000
ENDCHAR
STARTCHAR P
ENCODING 80
SWIDTH 578 0
DWIDTH 19 0
BBX 20 22 -1 0
BITMAP
00000146666665300000
0003BFFFFFFFFFFE7000
005FFFD00000027FFB10
02FFFFD02555520AFFA0
0AFFFFD07FFFFC07FFF2
0EFFFFD07FFFFD07FFF7
1FFFFFD07FFFFD07FFF8
1FFFFFD07FFFFD07FFF8
1FFFFFD05AAAA609FFF8
1FFFFFD00000002EFFF8
1FFFFFD05AAAACEFFFF8
1FFFFFD07FFFFFFFFFF8
1FFFFFD07FFFFFFFFFF8
1FFFFFD07FFFFFFFFFF8
1FFFFFE18FFFFFFFFFF8
1FFFFFFFFFFFFFFFFFF8
0FFFFFFFFFFFFFFFFFF8
0DFFFFFFFFFFFFFFFFF5
07FFFFFFFFFFFFFFFFE1
01CFFFFFFFFFFFFFFF50
001BFFFFFFFFFFFFE600
00005ADFFFFFFEC81000
ENDCHAR
STARTCHAR Q
ENCODING 81
SWIDTH 578 0
DWIDTH 19 0
BBX 20 22 -1 0
BITMAP
00000146666665300000
0003BFFFFFFFFFFE7000
005FFFD41000013DFB10
02FFFF4045555404FFA0
0AFFFF23FFFFFF32FFF2
0EFFFF24FFFFFF41FFF7
1FFFFF24FFFFFF41FFF8
1FFFFF24FFFFFF41FFF8
1FFFFF24FFFFFF41FFF8
1FFFFF24FFFFFF41FFF8
1FFFFF24FFFFFF41FFF8
1FFFFF24FFFAFF41FFF8
1FFFFF22FF70BF32FFF8
1FFFFF5034301304FFF8
1FFFFFE42111014EFFF8
1FFFFFFFFFFE13FFFFF8
0FFFFFFFFFFF71CFFFF8
0DFFFFFFFFFFEEFFFFF5
07FFFFFFFFFFFFFFFFE1
01CFFFFFFFFFFFFFFF50
001BFFFFFFFFFFFFE600
00005ADFFFFFFEC81000
ENDCHAR
STARTCHAR R
ENCODING 82
SWIDTH 578 0
DWIDTH 19 0
BBX 20 22 -1 0
BITMAP
00000146666665300000
0003BFFFFFFFFFFE7000
005FFF60000013EFFB10
02FFFF605555304FFFA0
0AFFFF60EFFFF41FFFF2
0EFFFF60EFFFF50FFFF7
1FFFFF60EFFFF51FFFF8
1FFFFF60EFFFD15FFFF8
1FFFFF60111108EFFFF8
1FFFFF604444219FFFF8
1FFFFF60EFFFF41FFFF8
1FFFFF60EFFFF70DFFF8
1FFFFF60EFFFF70DFFF8
1FFFFF60EFFFF70DFFF8
1FFFFF61EFFFF71EFFF8
1FFFFFFFFFFFFFFFFFF8
0FFFFFFFFFFFFFFFFFF8
0DFFFFFFFFFFFFFFFFF5
07FFFFFFFFFFFFFFFFE1
01CFFFFFFFFFFFFFFF50
001BFFFFFFFFFFFFE600
00005ADFFFFFFEC81000
ENDCHAR
STARTCHAR S
ENCODING 83
SWIDTH 578 0
DWIDTH 19 0
BBX 20 22 -1 0
BITMAP
00000146666665300000
0003BFFFFFFFFFFE7000
005FFFF62000002EFB10
02FFFF902555543FFFA0
0AFFFF70DFFFFFFFFFF2
0EFFFF70EFFFFFFFFFF7
1FFFFF70DFFFFFFFFFF8
1FFFFF80588889DFFFF8
1FFFFFE30000001CFFF8
1FFFFFFFECCCC907FFF8
1FFFFFFFFFFFFE06FFF8
1FFFFFFFFFFFFE06FFF8
1FFFFFFFFFFFFD07FFF8
1FFFFFF334444209FFF8
1FFFFFF32111127FFFF8
1FFFFFFFFFFFFFFFFFF8
0FFFFFFFFFFFFFFFFFF8
0DFFFFFFFFFFFFFFFFF5
07FFFFFFFFFFFFFFFFE1
01CFFFFFFFFFFFFFFF50
001BFFFFFFFFFFFFE600
00005ADFFFFFFEC81000
ENDCHAR
STARTCHAR T
ENCODING 84
SWIDTH 578 0
DWIDTH 19 0
BBX 20 22 -1 0
BITMAP
00000146666665300000
0003BFFFFFFFFFFE7000
005FFF9000000006FB10
02FFFFB555105559FFA0
0AFFFFFFFF41FFFFFFF2
0EFFFFFFFF41FFFFFFF7
1FFFFFFFFF41FFFFFFF8
1FFFFFFFFF41FFFFFFF8
1FFFFFFFFF41FFFFFFF8
1FFFFFFFFF41FFFFFFF8
1FFFFFFFFF41FFFFFFF8
1FFFFFFFFF41FFFFFFF8
1FFFFFFFFF41FFFFFFF8
1FFFFFFFFF41FFFFFFF8
1FFFFFFFFF52FFFFFFF8
1FFFFFFFFFFFFFFFFFF8
0FFFFFFFFFFFFFFFFFF8
0DFFFFFFFFFFFFFFFFF5
07FFFFFFFFFFFFFFFFE1
01CFFFFFFFFFFFFFFF50
001BFFFFFFFFFFFFE600
00005ADFFFFFFEC81000
ENDCHAR
STARTCHAR U
ENCODING 85
SWIDTH 578 0
DWIDTH 19 0
BBX 20 22 -1 0
BITMAP
00000146666665300000
0003BFFFFFFFFFFE7000
005FFF06FFFFFF23FB10
02FFFF06FFFFFF23FFA0
0AFFFF06FFFFFF23FFF2
0EFFFF06FFFFFF23FFF7
1FFFFF06FFFFFF23FFF8
1FFFFF06FFFFFF23FFF8
1FFFFF06FFFFFF23FFF8
1FFFFF06FFFFFF23FFF8
1FFFFF06FFFFFF23FFF8
1FFFFF06FFFFFF23FFF8
1FFFFF04FFFFFF14FFF8
1FFFFF3034444206FFF8
1FFFFFD42111125EFFF8
1FFFFFFFFFFFFFFFFFF8
0FFFFFFFFFFFFFFFFFF8
0DFFFFFFFFFFFFFFFFF5
07FFFFFFFFFFFFFFFFE1
01CFFFFFFFFFFFFFFF50
001BFFFFFFFFFFFFE600
00005ADFFFFFFEC81000
ENDCHAR
STARTCHAR V
ENCODING 86
SWIDTH 578 0
DWIDTH 19 0
BBX 20 22 -1 0
BITMAP
00000146666665300000
0003BFFFFFFFFFFE7000
005FFE34FFFFFE16FB10
02FFFF20EFFFFA07FFA0
0AFFFF60BFFFF60BFFF2
0EFFFFA07FFFF30EFFF7
1FFFFFE03FFFE04FFFF8
1FFFFFF30EFFA08FFFF8
1FFFFFF70BFF60CFFFF8
1FFFFFFB07FF21FFFFF8
1FFFFFFF13FE05FFFFF8
1FFFFFFF40EA09FFFFF8
1FFFFFFF80B60DFFFFF8
1FFFFFFFC0212FFFFFF8
1FFFFFFFF912CFFFFFF8
1FFFFFFFFFFFFFFFFFF8
0FFFFFFFFFFFFFFFFFF8
0DFFFFFFFFFFFFFFFFF5
07FFFFFFFFFFFFFFFFE1
01CFFFFFFFFFFFFFFF50
001BFFFFFFFFFFFFE600
00005ADFFFFFFEC81000
ENDCHAR
STARTCHAR W
ENCODING 87
SWIDTH 578 0
DWIDTH 19 0
BBX 20 22 -1 0
BITMAP
00000146666665300000
0003BFFFFFFFFFFE7000
005F92BFFE8CFFF25B10
02FF80AFFB06FFF03FA0
0AFFA08FF803FFD05FF2
0EFFC07FF601FFC07FF7
1FFFD05FF300DFA08FF8
1FFFF04FF130AF90AFF8
1FFFF13FD0708F80CFF8
1FFFF31FA0B15F60DFF8
1FFFF50F80D33F50FFF8
1FFFF60D50F50F31FFF8
1FFFF80C23F70C23FFF8
1FFFFA0305FA0305FFF8
1FFFFF714EFF714EFFF8
1FFFFFFFFFFFFFFFFFF8
0FFFFFFFFFFFFFFFFFF8
0DFFFFFFFFFFFFFFFFF5
07FFFFFFFFFFFFFFFFE1
01CFFFFFFFFFFFFFFF50
001BFFFFFFFFFFFFE600
00005ADFFFFFFEC81000
ENDCHAR
STARTCHAR X
ENCODING 88
SWIDTH 578 0
DWIDTH 19 0
BBX 20 22 -1 0
BITMAP
00000146666665300000
0003BFFFFFFFFFFE7000
005FFF73FFFFFF45FB10
02FFFF907FFFF907FFA0
0AFFFFF40DFFE12FFFF2
0EFFFFFC04FF50BFFFF7
1FFFFFFF70AB05FFFFF8
1FFFFFFFE2121EFFFFF8
1FFFFFFFF8006FFFFFF8
1FFFFFFFE2111EFFFFF8
1FFFFFFF709A05FFFFF8
1FFFFFFD04FF50BFFFF8
1FFFFFF40DFFD12FFFF8
1FFFFF908FFFF907FFF8
1FFFFF84FFFFFF57FFF8
1FFFFFFFFFFFFFFFFFF8
0FFFFFFFFFFFFFFFFFF8
0DFFFFFFFFFFFFFFFFF5
07FFFFFFFFFFFFFFFFE1
01CFFFFFFFFFFFFFFF50
001BFFFFFFFFFFFFE600
00005ADFFFFFFEC81000
ENDCHAR
STARTCHAR Y
ENCODING 89
SWIDTH 578 0
DWIDTH 19 0
BBX 20 22 -1 0
BITMAP
00000146666665300000
0003BFFFFFFFFFFE7000
005FFF609FFFF907FB10
02FFFFD04FFFF30DFFA0
0AFFFFF40DFFC05FFFF2
0EFFFFFA07FF60BFFFF7
1FFFFFFF21FE13FFFFF8
1FFFFFFF80A909FFFFF8
1FFFFFFFE0421EFFFFF8
1FFFFFFFF6007FFFFFF8
1FFFFFFFFC00DFFFFFF8
1FFFFFFFFF23FFFFFFF8
1FFFFFFFFF23FFFFFFF8
1FFFFFFFFF23FFFFFFF8
1FFFFFFFFF34FFFFFFF8
1FFFFFFFFFFFFFFFFFF8
0FFFFFFFFFFFFFFFFFF8
0DFFFFFFFFFFFFFFFFF5
07FFFFFFFFFFFFFFFFE1
01CFFFFFFFFFFFFFFF50
001BFFFFFFFFFFFFE600
00005ADFFFFFFEC81000
ENDCHAR
STARTCHAR Z
ENCODING 90
SWIDTH 578 0
DWIDTH 19 0
BBX 20 22 -1 0
BITMAP
00000146666665300000
0003BFFFFFFFFFFE7000
005FFFF2000000EFFB10
02FFFFF7555520AFFFA0
0AFFFFFFFFFE13FFFFF2
0EFFFFFFFFF60BFFFFF7
1FFFFFFFFFC04FFFFFF8
1FFFFFFFFF40CFFFFFF8
1FFFFFFFFB06FFFFFFF8
1FFFFFFFF31EFFFFFFF8
1FFFFFFF908FFFFFFFF8
1FFFFFFE12EFFFFFFFF8
1FFFFFF709FFFFFFFFF8
1FFFFFF10444446FFFF8
1FFFFFF41111114FFFF8
1FFFFFFFFFFFFFFFFFF8
0FFFFFFFFFFFFFFFFFF8
0DFFFFFFFFFFFFFFFFF5
07FFFFFFFFFFFFFFFFE1
01CFFFFFFFFFFFFFFF50
001BFFFFFFFFFFFFE600
00005ADFFFFFFEC81000
ENDCHAR
STARTCHAR bracketleft
ENCODING 91
SWIDTH 484 0
DWIDTH 16 0
BBX 17 22 -1 0
BITMAP
000001466653000000
0003BFFC99EFE70000
005FFFF800CFFFC100
02FFFFF809EFFFFA00
0AFFFFF80CFFFFFF30
0EFFFFF80CFFFFFF70
1FFFFFF80CFFFFFF80
1FFFFFF80CFFFFFF90
1FFFFFF80CFFFFFF90
1FFFFFF80CFFFFFF90
1FFFFFF80CFFFFFF90
1FFFFFF80CFFFFFF90
1FFFFFF80CFFFFFF90
1FFFFFF80CFFFFFF90
1FFFFFF80AEFFFFF90
1FFFFFF800CFFFFF90
0FFFFFFC88DFFFFF80
0DFFFFFFFFFFFFFF50
07FFFFFFFFFFFFFE10
01CFFFFFFFFFFFF500
001BFFFFFFFFFE6000
00005ADFFFEC820000
ENDCHAR
STARTCHAR backslash
ENCODING 92
SWIDTH 516 0
DWIDTH 17 0
BBX 18 22 -1 0
BITMAP
000001466665300000
0003BFFFFFFFFE7000
005FFFFB09FFFFFC10
02FFFFFD06FFFFFFA0
0AFFFFFF14FFFFFFF3
0EFFFFFF31FFFFFFF7
1FFFFFFF60EFFFFFF8
1FFFFFFF80BFFFFFF9
1FFFFFFFB09FFFFFF9
1FFFFFFFD06FFFFFF9
1FFFFFFFF14FFFFFF9
1FFFFFFFF31FFFFFF9
1FFFFFFFF50EFFFFF9
1FFFFFFFF80CFFFFF9
1FFFFFFFFB1AFFFFF9
1FFFFFFFFFFFFFFFF9
0FFFFFFFFFFFFFFFF8
0DFFFFFFFFFFFFFFF5
07FFFFFFFFFFFFFFE1
01CFFFFFFFFFFFFF50
001BFFFFFFFFFFE600
00005ADFFFFEC82000
ENDCHAR
STARTCHAR bracketright
ENCODING 93
SWIDTH 484 0
DWIDTH 16 0
BBX 17 22 -1 0
BITMAP
000001466653000000
0003BFFB99FFE70000
005FFFF400FFFFC100
02FFFFFC30FFFFFA00
0AFFFFFF40FFFFFF30
0EFFFFFF40FFFFFF70
1FFFFFFF40FFFFFF80
1FFFFFFF40FFFFFF90
1FFFFFFF40FFFFFF90
1FFFFFFF40FFFFFF90
1FFFFFFF40FFFFFF90
1FFFFFFF40FFFFFF90
1FFFFFFF40FFFFFF90
1FFFFFFF40FFFFFF90
1FFFFFFD40FFFFFF90
1FFFFFF400FFFFFF90
0FFFFFFA88FFFFFF80
0DFFFFFFFFFFFFFF50
07FFFFFFFFFFFFFE10
01CFFFFFFFFFFFF500
001BFFFFFFFFFE6000
00005ADFFFEC820000
ENDCHAR
STARTCHAR asciicircum
ENCODING 94
SWIDTH 355 0
DWIDTH 11 0
BBX 12 12 0 7
BITMAP
0007DFEA2000
007FFFFFC000
01EFFFFFF600
06FFE18FFC00
0DFF852FFF30
4FFF3E6BFF90
9FFA7FD5FFE1
EFF5EFF6DFF5
FFFCFFFEDFF6
CFFFFFFFFFF3
3DFFFBEFFF80
005530155200
ENDCHAR
STARTCHAR underscore
ENCODING 95
SWIDTH 428 0
DWIDTH 14 0
BBX 15 22 -1 0
BITMAP
0000014654000000
0003BFFFFFE81000
005FFFFFFFFFD200
02FFFFFFFFFFFC00
0AFFFFFFFFFFFF50
0EFFFFFFFFFFFFA0
1FFFFFFFFFFFFFB0
1FFFFFFFFFFFFFC0
1FFFFFFFFFFFFFC0
1FFFFFFFFFFFFFC0
1FFFFFFFFFFFFFC0
1FFFFFFFFFFFFFC0
1FFFFFFFFFFFFFC0
1FFFFFFFFFFFFFC0
1FFFEEEEEEEFFFC0
1FFF40000008FFC0
0FFF8666666BFFB0
0DFFFFFFFFFFFF80
07FFFFFFFFFFFF30
01CFFFFFFFFFF800
001BFFFFFFFF8000
00005ADFED920000
ENDCHAR
STARTCHAR grave
ENCODING 96
SWIDTH 308 0
DWIDTH 10 0
BBX 10 11 0 0
BITMAP
0169BA7100
3EFFFFFD10
DFFFFFFF70
FFF909FFB0
CFFF14FFF1
5FFF80EFF5
0CFFE1AFF9
03FFF66FFD
009FFEDFFC
001EFFFFF6
0005AAAA50
ENDCHAR
STARTCHAR a
ENCODING 97
SWIDTH 578 0
DWIDTH 19 0
BBX 20 22 -1 0
BITMAP
00000146666665300000
0003BFFFFFFFFFFE7000
005FFFB2000014EFFB10
02FFFFD35666307FFFA0
0AFFFFFFFFFFF06FFFF2
0EFFFFFFFFFFF16FFFF7
1FFFFFFFFFFFF16FFFF8
1FFFFFFFFFFFF16FFFF8
1FFFFFA42222306FFFF8
1FFFFC013333206FFFF8
1FFFFA0AFFFFF16FFFF8
1FFFF90BFFFFF16FFFF8
1FFFFA0AFFFFF16FFFF8
1FFFFC014444306FFFF8
1FFFFF931111337FFFF8
1FFFFFFFFFFFFFFFFFF8
0FFFFFFFFFFFFFFFFFF8
0DFFFFFFFFFFFFFFFFF5
07FFFFFFFFFFFFFFFFE1
01CFFFFFFFFFFFFFFF50
001BFFFFFFFFFFFFE600
00005ADFFFFFFEC81000
ENDCHAR
STARTCHAR b
ENCODING 98
SWIDTH 578 0
DWIDTH 19 0
BBX 20 22 -1 0
BITMAP
00000146666665300000
0003BFFFFFFFFFFE7000
005FFC00000002BFFB10
02FFFC035555411FFFA0
0AFFFC08FFFFF50DFFF2
0EFFFC08FFFFF60CFFF7
1FFFFC08FFFFF70DFFF8
1FFFFC048888722FFFF8
1FFFFC00000001AFFFF8
1FFFFC07DDDDC50EFFF8
1FFFFC08FFFFF80CFFF8
1FFFFC08FFFFF80CFFF8
1FFFFC08FFFFF70DFFF8
1FFFFC024444311FFFF8
1FFFFC11111123BFFFF8
1FFFFFFFFFFFFFFFFFF8
0FFFFFFFFFFFFFFFFFF8
0DFFFFFFFFFFFFFFFFF5
07FFFFFFFFFFFFFFFFE1
01CFFFFFFFFFFFFFFF50
001BFFFFFFFFFFFFE600
00005ADFFFFFFEC81000
ENDCHAR
STARTCHAR c
ENCODING 99
SWIDTH 578 0
DWIDTH 19 0
BBX 20 22 -1 0
BITMAP
00000146666665300000
0003BFFFFFFFFFFE7000
005FFFB2000002DFFB10
02FFFF11566653EFFFA0
0AFFFD06FFFFFFFFFFF2
0EFFFD07FFFFFFFFFFF7
1FFFFD07FFFFFFFFFFF8
1FFFFD07FFFFFFFFFFF8
1FFFFD07FFFFFFFFFFF8
1FFFFD07FFFFFFFFFFF8
1FFFFD07FFFFFFFFFFF8
1FFFFD07FFFFFFFFFFF8
1FFFFD06FFFFFFFFFFF8
1FFFFF10344442FFFFF8
1FFFFFC3211113DFFFF8
1FFFFFFFFFFFFFFFFFF8
0FFFFFFFFFFFFFFFFFF8
0DFFFFFFFFFFFFFFFFF5
07FFFFFFFFFFFFFFFFE1
01CFFFFFFFFFFFFFFF50
001BFFFFFFFFFFFFE600
00005ADFFFFFFEC81000
ENDCHAR
STARTCHAR d
ENCODING 100
SWIDTH 578 0
DWIDTH 19 0
BBX 20 22 -1 0
BITMAP
00000146666665300000
0003BFFFFFFFFFFE7000
005FFF200000013DFB10
02FFFF2155555404FFA0
0AFFFF24FFFFFF32FFF2
0EFFFF24FFFFFF41FFF7
1FFFFF24FFFFFF41FFF8
1FFFFF24FFFFFF41FFF8
1FFFFF24FFFFFF41FFF8
1FFFFF24FFFFFF41FFF8
1FFFFF24FFFFFF41FFF8
1FFFFF24FFFFFF41FFF8
1FFFFF24FFFFFF32FFF8
1FFFFF2144444304FFF8
1FFFFF311111124EFFF8
1FFFFFFFFFFFFFFFFFF8
0FFFFFFFFFFFFFFFFFF8
0DFFFFFFFFFFFFFFFFF5
07FFFFFFFFFFFFFFFFE1
01CFFFFFFFFFFFFFFF50
001BFFFFFFFFFFFFE600
00005ADFFFFFFEC81000
ENDCHAR
STARTCHAR e
ENCODING 101
SWIDTH 578 0
DWIDTH 19 0
BBX 20 22 -1 0
BITMAP
00000146666665300000
0003BFFFFFFFFFFE7000
005FFFA2000015EFFB10
02FFFE025666407FFFA0
0AFFFB08FFFFF05FFFF2
0EFFFB09FFFFF04FFFF7
1FFFFB07CCCCC04FFFF8
1FFFFB000000004FFFF8
1FFFFB05888888AFFFF8
1FFFFB09FFFFFFFFFFF8
1FFFFB09FFFFFFFFFFF8
1FFFFB09FFFFFFFFFFF8
1FFFFD04BBBBB9FFFFF8
1FFFFF40000000DFFFF8
1FFFFFFB99999BEFFFF8
1FFFFFFFFFFFFFFFFFF8
0FFFFFFFFFFFFFFFFFF8
0DFFFFFFFFFFFFFFFFF5
07FFFFFFFFFFFFFFFFE1
01CFFFFFFFFFFFFFFF50
001BFFFFFFFFFFFFE600
00005ADFFFFFFEC81000
ENDCHAR
STARTCHAR f
ENCODING 102
SWIDTH 578 0
DWIDTH 19 0
BBX 20 22 -1 0
BITMAP
00000146666665300000
0003BFFFFFFFFFFE7000
005FFFF30000000FFB10
02FFFFF31555555FFFA0
0AFFFFF32FFFFFFFFFF2
0EFFFFF32FFFFFFFFFF7
1FFFFFF32FFFFFFFFFF8
1FFFFFF3166666EFFFF8
1FFFFFF3000000EFFFF8
1FFFFFF32FFFFFFFFFF8
1FFFFFF32FFFFFFFFFF8
1FFFFFF32FFFFFFFFFF8
1FFFFFF32FFFFFFFFFF8
1FFFFFF32FFFFFFFFFF8
1FFFFFF43FFFFFFFFFF8
1FFFFFFFFFFFFFFFFFF8
0FFFFFFFFFFFFFFFFFF8
0DFFFFFFFFFFFFFFFFF5
07FFFFFFFFFFFFFFFFE1
01CFFFFFFFFFFFFFFF50
001BFFFFFFFFFFFFE600
00005ADFFFFFFEC81000
ENDCHAR
STARTCHAR g
ENCODING 103
SWIDTH 578 0
DWIDTH 19 0
BBX 20 22 -1 0
BITMAP
00000146666665300000
0003BFFFFFFFFFFE7000
005FFFF62000002EFB10
02FFFF803666653FFFA0
0AFFFF60EFFFFFFFFFF2
0EFFFF50FFFFFFFFFFF7
1FFFFF50FFFFFFFFFFF8
1FFFFF50FFFFFFFFFFF8
1FFFFF50FFF84446FFF8
1FFFFF50FFF50002FFF8
1FFFFF50FFFFFF32FFF8
1FFFFF50FFFFFF32FFF8
1FFFFF60EFFFFF22FFF8
1FFFFF8024444305FFF8
1FFFFFF62111125EFFF8
1FFFFFFFFFFFFFFFFFF8
0FFFFFFFFFFFFFFFFFF8
0DFFFFFFFFFFFFFFFFF5
07FFFFFFFFFFFFFFFFE1
01CFFFFFFFFFFFFFFF50
001BFFFFFFFFFFFFE600
00005ADFFFFFFEC81000
ENDCHAR
STARTCHAR h
ENCODING 104
SWIDTH 578 0
DWIDTH 19 0
BBX 20 22 -1 0
BITMAP
00000146666665300000
0003BFFFFFFFFFFE7000
005FFF23FFFFFF41FB10
02FFFF23FFFFFF41FFA0
0AFFFF23FFFFFF41FFF2
0EFFFF23FFFFFF41FFF7
1FFFFF23FFFFFF41FFF8
1FFFFF2277777721FFF8
1FFFFF2000000001FFF8
1FFFFF23DDDDDD41FFF8
1FFFFF23FFFFFF41FFF8
1FFFFF23FFFFFF41FFF8
1FFFFF23FFFFFF41FFF8
1FFFFF23FFFFFF41FFF8
1FFFFF34FFFFFF52FFF8
1FFFFFFFFFFFFFFFFFF8
0FFFFFFFFFFFFFFFFFF8
0DFFFFFFFFFFFFFFFFF5
07FFFFFFFFFFFFFFFFE1
01CFFFFFFFFFFFFFFF50
001BFFFFFFFFFFFFE600
00005ADFFFFFFEC81000
ENDCHAR
STARTCHAR i
ENCODING 105
SWIDTH 578 0
DWIDTH 19 0
BBX 20 22 -1 0
BITMAP
00000146666665300000
0003BFFFFFFFFFFE7000
005FFF9000000006FB10
02FFFFB555105559FFA0
0AFFFFFFFF41FFFFFFF2
0EFFFFFFFF41FFFFFFF7
1FFFFFFFFF41FFFFFFF8
1FFFFFFFFF41FFFFFFF8
1FFFFFFFFF41FFFFFFF8
1FFFFFFFFF41FFFFFFF8
1FFFFFFFFF41FFFFFFF8
1FFFFFFFFF41FFFFFFF8
1FFFFFFFFF41FFFFFFF8
1FFFFFB444104448FFF8
1FFFFF9111111116FFF8
1FFFFFFFFFFFFFFFFFF8
0FFFFFFFFFFFFFFFFFF8
0DFFFFFFFFFFFFFFFFF5
07FFFFFFFFFFFFFFFFE1
01CFFFFFFFFFFFFFFF50
001BFFFFFFFFFFFFE600
00005ADFFFFFFEC81000
ENDCHAR
STARTCHAR j
ENCODING 106
SWIDTH 578 0
DWIDTH 19 0
BBX 20 22 -1 0
BITMAP
00000146666665300000
0003BFFFFFFFFFFE7000
005FFFFFFFFA0BFFFB10
02FFFFFFFFFA0BFFFFA0
0AFFFFFFFFFA0BFFFFF2
0EFFFFFFFFFA0BFFFFF7
1FFFFFFFFFFA0BFFFFF8
1FFFFFFFFFFA0BFFFFF8
1FFFFFFFFFFA0BFFFFF8
1FFFFFFFFFFA0BFFFFF8
1FFFFFFFFFFA0BFFFFF8
1FFFFFFFFFFA0BFFFFF8
1FFFFFFFFFF90BFFFFF8
1FFFFFFF54310BFFFFF8
1FFFFFFF21139FFFFFF8
1FFFFFFFFFFFFFFFFFF8
0FFFFFFFFFFFFFFFFFF8
0DFFFFFFFFFFFFFFFFF5
07FFFFFFFFFFFFFFFFE1
01CFFFFFFFFFFFFFFF50
001BFFFFFFFFFFFFE600
00005ADFFFFFFEC81000
ENDCHAR
STARTCHAR k
ENCODING 107
SWIDTH 578 0
DWIDTH 19 0
BBX 20 22 -1 0
BITMAP
00000146666665300000
0003BFFFFFFFFFFB7000
005FFFF60FFFFF80BB10
02FFFFF60FFFF702EFA0
0AFFFFF60FFF702EFFF2
0EFFFFF60FF703EFFFF7
1FFFFFF60F703EFFFFF8
1FFFFFF60603EFFFFFF8
1FFFFFF60007FFFFFFF8
1FFFFFF606309FFFFFF8
1FFFFFF60FE20BFFFFF8
1FFFFFF60FFC11CFFFF8
1FFFFFF60FFFB01DFFF8
1FFFFFF60FFFF903EFF8
1FFFFFF61FFFFF63EFF8
1FFFFFFFFFFFFFFEFFF8
0FFFFFFFFFFFFFFFFFF8
0DFFFFFFFFFFFFFFFFF5
07FFFFFFFFFFFFFFFFE1
01CFFFFFFFFFFFFFFF50
001BFFFFFFFFFFFFE600
00005ADFFFFFFEC81000
ENDCHAR
STARTCHAR l
ENCODING 108
SWIDTH 578 0
DWIDTH 19 0
BBX 20 22 -1 0
BITMAP
00000146666665300000
0003BFFFFFFFFFFE7000
005FFFFF05FFFFFFFB10
02FFFFFF05FFFFFFFFA0
0AFFFFFF05FFFFFFFFF2
0EFFFFFF05FFFFFFFFF7
1FFFFFFF05FFFFFFFFF8
1FFFFFFF05FFFFFFFFF8
1FFFFFFF05FFFFFFFFF8
1FFFFFFF05FFFFFFFFF8
1FFFFFFF05FFFFFFFFF8
1FFFFFFF05FFFFFFFFF8
1FFFFFFF05FFFFFFFFF8
1FFFFFFF014444AFFFF8
1FFFFFFF1111119FFFF8
1FFFFFFFFFFFFFFFFFF8
0FFFFFFFFFFFFFFFFFF8
0DFFFFFFFFFFFFFFFFF5
07FFFFFFFFFFFFFFFFE1
01CFFFFFFFFFFFFFFF50
001BFFFFFFFFFFFFE600
00005ADFFFFFFEC81000
ENDCHAR
STARTCHAR m
ENCODING 109
SWIDTH 578 0
DWIDTH 19 0
BBX 20 22 -1 0
BITMAP
00000146666665300000
0003BFFFFFFFFFFE7000
005FFA2001A40015FB10
02FFF015541255309FA0
0AFFF05FFD07FFC08FF2
0EFFF05FFD07FFC08FF7
1FFFF05FFD07FFC08FF8
1FFFF05FFD07FFC08FF8
1FFFF05FFD07FFC08FF8
1FFFF05FFD07FFC08FF8
1FFFF05FFE9BFFC08FF8
1FFFF05FFFFFFFC08FF8
1FFFF05FFFFFFFC08FF8
1FFFF05FFFFFFFC08FF8
1FFFF16FFFFFFFC19FF8
1FFFFFFFFFFFFFFFFFF8
0FFFFFFFFFFFFFFFFFF8
0DFFFFFFFFFFFFFFFFF5
07FFFFFFFFFFFFFFFFE1
01CFFFFFFFFFFFFFFF50
001BFFFFFFFFFFFFE600
00005ADFFFFFFEC81000
ENDCHAR
STARTCHAR n
ENCODING 110
SWIDTH 578 0
DWIDTH 19 0
BBX 20 22 -1 0
BITMAP
00000146666665300000
0003BFFFFFFFFFFE7000
005FFF531000016FFB10
02FFFF0156665309FFA0
0AFFFF05FFFFFD07FFF2
0EFFFF05FFFFFD07FFF7
1FFFFF05FFFFFD07FFF8
1FFFFF05FFFFFD07FFF8
1FFFFF05FFFFFD07FFF8
1FFFFF05FFFFFD07FFF8
1FFFFF05FFFFFD07FFF8
1FFFFF05FFFFFD07FFF8
1FFFFF05FFFFFD07FFF8
1FFFFF05FFFFFD07FFF8
1FFFFF25FFFFFE17FFF8
1FFFFFFFFFFFFFFFFFF8
0FFFFFFFFFFFFFFFFFF8
0DFFFFFFFFFFFFFFFFF5
07FFFFFFFFFFFFFFFFE1
01CFFFFFFFFFFFFFFF50
001BFFFFFFFFFFFFE600
00005ADFFFFFFEC81000
ENDCHAR
STARTCHAR o
ENCODING 111
SWIDTH 578 0
DWIDTH 19 0
BBX 20 22 -1 0
BITMAP
00000146666665300000
0003BFFFFFFFFFFE7000
005FFFD31000014EFB10
02FFFF4045555405FFA0
0AFFFF24FFFFFF32FFF2
0EFFFF14FFFFFF32FFF7
1FFFFF14FFFFFF32FFF8
1FFFFF14FFFFFF32FFF8
1FFFFF14FFFFFF32FFF8
1FFFFF14FFFFFF32FFF8
1FFFFF14FFFFFF32FFF8
1FFFFF14FFFFFF32FFF8
1FFFFF23FFFFFF22FFF8
1FFFFF4034444305FFF8
1FFFFFE42111124EFFF8
1FFFFFFFFFFFFFFFFFF8
0FFFFFFFFFFFFFFFFFF8
0DFFFFFFFFFFFFFFFFF5
07FFFFFFFFFFFFFFFFE1
01CFFFFFFFFFFFFFFF50
001BFFFFFFFFFFFFE600
00005ADFFFFFFEC81000
ENDCHAR
STARTCHAR p
ENCODING 112
SWIDTH 578 0
DWIDTH 19 0
BBX 20 22 -1 0
BITMAP
00000146666665300000
0003BFFFFFFFFFFE7000
005FFFD00000027FFB10
02FFFFD02555520AFFA0
0AFFFFD07FFFFC07FFF2
0EFFFFD07FFFFD07FFF7
1FFFFFD07FFFFD07FFF8
1FFFFFD07FFFFD07FFF8
1FFFFFD05AAAA609FFF8
1FFFFFD00000002EFFF8
1FFFFFD05AAAACEFFFF8
1FFFFFD07FFFFFFFFFF8
1FFFFFD07FFFFFFFFFF8
1FFFFFD07FFFFFFFFFF8
1FFFFFE18FFFFFFFFFF8
1FFFFFFFFFFFFFFFFFF8
0FFFFFFFFFFFFFFFFFF8
0DFFFFFFFFFFFFFFFFF5
07FFFFFFFFFFFFFFFFE1
01CFFFFFFFFFFFFFFF50
001BFFFFFFFFFFFFE600
00005ADFFFFFFEC81000
ENDCHAR
STARTCHAR q
ENCODING 113
SWIDTH 578 0
DWIDTH 19 0
BBX 20 22 -1 0
BITMAP
00000146666665300000
0003BFFFFFFFFFFE7000
005FFFD41000013DFB10
02FFFF4045555404FFA0
0AFFFF23FFFFFF32FFF2
0EFFFF24FFFFFF41FFF7
1FFFFF24FFFFFF41FFF8
1FFFFF24FFFFFF41FFF8
1FFFFF24FFFFFF41FFF8
1FFFFF24FFFFFF41FFF8
1FFFFF24FFFFFF41FFF8
1FFFFF24FFFAFF41FFF8
1FFFFF22FF70BF32FFF8
1FFFFF5034301304FFF8
1FFFFFE42111014EFFF8
1FFFFFFFFFFE13FFFFF8
0FFFFFFFFFFF71CFFFF8
0DFFFFFFFFFFEEFFFFF5
07FFFFFFFFFFFFFFFFE1
01CFFFFFFFFFFFFFFF50
001BFFFFFFFFFFFFE600
00005ADFFFFFFEC81000
ENDCHAR
STARTCHAR r
ENCODING 114
SWIDTH 578 0
DWIDTH 19 0
BBX 20 22 -1 0
BITMAP
00000146666665300000
0003BFFFFFFFFFFE7000
005FFF60000013EFFB10
02FFFF605555304FFFA0
0AFFFF60EFFFF41FFFF2
0EFFFF60EFFFF50FFFF7
1FFFFF60EFFFF51FFFF8
1FFFFF60EFFFD15FFFF8
1FFFFF60111108EFFFF8
1FFFFF604444219FFFF8
1FFFFF60EFFFF41FFFF8
1FFFFF60EFFFF70DFFF8
1FFFFF60EFFFF70DFFF8
1FFFFF60EFFFF70DFFF8
1FFFFF61EFFFF71EFFF8
1FFFFFFFFFFFFFFFFFF8
0FFFFFFFFFFFFFFFFFF8
0DFFFFFFFFFFFFFFFFF5
07FFFFFFFFFFFFFFFFE1
01CFFFFFFFFFFFFFFF50
001BFFFFFFFFFFFFE600
00005ADFFFFFFEC81000
ENDCHAR
STARTCHAR s
ENCODING 115
SWIDTH 578 0
DWIDTH 19 0
BBX 20 22 -1 0
BITMAP
00000146666665300000
0003BFFFFFFFFFFE7000
005FFFF62000002EFB10
02FFFF902555543FFFA0
0AFFFF70DFFFFFFFFFF2
0EFFFF70EFFFFFFFFFF7
1FFFFF70DFFFFFFFFFF8
1FFFFF80588889DFFFF8
1FFFFFE30000001CFFF8
1FFFFFFFECCCC907FFF8
1FFFFFFFFFFFFE06FFF8
1FFFFFFFFFFFFE06FFF8
1FFFFFFFFFFFFD07FFF8
1FFFFFF334444209FFF8
1FFFFFF32111127FFFF8
1FFFFFFFFFFFFFFFFFF8
0FFFFFFFFFFFFFFFFFF8
0DFFFFFFFFFFFFFFFFF5
07FFFFFFFFFFFFFFFFE1
01CFFFFFFFFFFFFFFF50
001BFFFFFFFFFFFFE600
00005ADFFFFFFEC81000
ENDCHAR
STARTCHAR t
ENCODING 116
SWIDTH 578 0
DWIDTH 19 0
BBX 20 22 -1 0
BITMAP
00000146666665300000
0003BFFFFFFFFFFE7000
005FFF9000000006FB10
02FFFFB555105559FFA0
0AFFFFFFFF41FFFFFFF2
0EFFFFFFFF41FFFFFFF7
1FFFFFFFFF41FFFFFFF8
1FFFFFFFFF41FFFFFFF8
1FFFFFFFFF41FFFFFFF8
1FFFFFFFFF41FFFFFFF8
1FFFFFFFFF41FFFFFFF8
1FFFFFFFFF41FFFFFFF8
1FFFFFFFFF41FFFFFFF8
1FFFFFFFFF41FFFFFFF8
1FFFFFFFFF52FFFFFFF8
1FFFFFFFFFFFFFFFFFF8
0FFFFFFFFFFFFFFFFFF8
0DFFFFFFFFFFFFFFFFF5
07FFFFFFFFFFFFFFFFE1
01CFFFFFFFFFFFFFFF50
001BFFFFFFFFFFFFE600
00005ADFFFFFFEC81000
ENDCHAR
STARTCHAR u
ENCODING 117
SWIDTH 578 0
DWIDTH 19 0
BBX 20 22 -1 0
BITMAP
00000146666665300000
0003BFFFFFFFFFFE7000
005FFF06FFFFFF23FB10
02FFFF06FFFFFF23FFA0
0AFFFF06FFFFFF23FFF2
0EFFFF06FFFFFF23FFF7
1FFFFF06FFFFFF23FFF8
1FFFFF06FFFFFF23FFF8
1FFFFF06FFFFFF23FFF8
1FFFFF06FFFFFF23FFF8
1FFFFF06FFFFFF23FFF8
1FFFFF06FFFFFF23FFF8
1FFFFF04FFFFFF14FFF8
1FFFFF3034444206FFF8
1FFFFFD42111125EFFF8
1FFFFFFFFFFFFFFFFFF8
0FFFFFFFFFFFFFFFFFF8
0DFFFFFFFFFFFFFFFFF5
07FFFFFFFFFFFFFFFFE1
01CFFFFFFFFFFFFFFF50
001BFFFFFFFFFFFFE600
00005ADFFFFFFEC81000
ENDCHAR
STARTCHAR v
ENCODING 118
SWIDTH 578 0
DWIDTH 19 0
BBX 20 22 -1 0
BITMAP
00000146666665300000
0003BFFFFFFFFFFE7000
005FFE34FFFFFE16FB10
02FFFF20EFFFFA07FFA0
0AFFFF60BFFFF60BFFF2
0EFFFFA07FFFF30EFFF7
1FFFFFE03FFFE04FFFF8
1FFFFFF30EFFA08FFFF8
1FFFFFF70BFF60CFFFF8
1FFFFFFB07FF21FFFFF8
1FFFFFFF13FE05FFFFF8
1FFFFFFF40EA09FFFFF8
1FFFFFFF80B60DFFFFF8
1FFFFFFFC0212FFFFFF8
1FFFFFFFF912CFFFFFF8
1FFFFFFFFFFFFFFFFFF8
0FFFFFFFFFFFFFFFFFF8
0DFFFFFFFFFFFFFFFFF5
07FFFFFFFFFFFFFFFFE1
01CFFFFFFFFFFFFFFF50
001BFFFFFFFFFFFFE600
00005ADFFFFFFEC81000
ENDCHAR
STARTCHAR w
ENCODING 119
SWIDTH 578 0
DWIDTH 19 0
BBX 20 22 -1 0
BITMAP
00000146666665300000
0003BFFFFFFFFFFE7000
005F92BFFE8CFFF25B10
02FF80AFFB06FFF03FA0
0AFFA08FF803FFD05FF2
0EFFC07FF601FFC07FF7
1FFFD05FF300DFA08FF8
1FFFF04FF130AF90AFF8
1FFFF13FD0708F80CFF8
1FFFF31FA0B15F60DFF8
1FFFF50F80D33F50FFF8
1FFFF60D50F50F31FFF8
1FFFF80C23F70C23FFF8
1FFFFA0305FA0305FFF8
1FFFFF714EFF714EFFF8
1FFFFFFFFFFFFFFFFFF8
0FFFFFFFFFFFFFFFFFF8
0DFFFFFFFFFFFFFFFFF5
07FFFFFFFFFFFFFFFFE1
01CFFFFFFFFFFFFFFF50
001BFFFFFFFFFFFFE600
00005ADFFFFFFEC81000
ENDCHAR
STARTCHAR x
ENCODING 120
SWIDTH 578 0
DWIDTH 19 0
BBX 20 22 -1 0
BITMAP
00000146666665300000
0003BFFFFFFFFFFE7000
005FFF73FFFFFF45FB10
02FFFF907FFFF907FFA0
0AFFFFF40DFFE12FFFF2
0EFFFFFC04FF50BFFFF7
1FFFFFFF70AB05FFFFF8
1FFFFFFFE2121EFFFFF8
1FFFFFFFF8006FFFFFF8
1FFFFFFFE2111EFFFFF8
1FFFFFFF709A05FFFFF8
1FFFFFFD04FF50BFFFF8
1FFFFFF40DFFD12FFFF8
1FFFFF908FFFF907FFF8
1FFFFF84FFFFFF57FFF8
1FFFFFFFFFFFFFFFFFF8
0FFFFFFFFFFFFFFFFFF8
0DFFFFFFFFFFFFFFFFF5
07FFFFFFFFFFFFFFFFE1
01CFFFFFFFFFFFFFFF50
001BFFFFFFFFFFFFE600
00005ADFFFFFFEC81000
ENDCHAR
STARTCHAR y
ENCODING 121
SWIDTH 578 0
DWIDTH 19 0
BBX 20 22 -1 0
BITMAP
00000146666665300000
0003BFFFFFFFFFFE7000
005FFF609FFFF907FB10
02FFFFD04FFFF30DFFA0
0AFFFFF40DFFC05FFFF2
0EFFFFFA07FF60BFFFF7
1FFFFFFF21FE13FFFFF8
1FFFFFFF80A909FFFFF8
1FFFFFFFE0421EFFFFF8
1FFFFFFFF6007FFFFFF8
1FFFFFFFFC00DFFFFFF8
1FFFFFFFFF23FFFFFFF8
1FFFFFFFFF23FFFFFFF8
1FFFFFFFFF23FFFFFFF8
1FFFFFFFFF34FFFFFFF8
1FFFFFFFFFFFFFFFFFF8
0FFFFFFFFFFFFFFFFFF8
0DFFFFFFFFFFFFFFFFF5
07FFFFFFFFFFFFFFFFE1
01CFFFFFFFFFFFFFFF50
001BFFFFFFFFFFFFE600
00005ADFFFFFFEC81000
ENDCHAR
STARTCHAR z
ENCODING 122
SWIDTH 578 0
DWIDTH 19 0
BBX 20 22 -1 0
BITMAP
00000146666665300000
0003BFFFFFFFFFFE7000
005FFFF2000000EFFB10
02FFFFF7555520AFFFA0
0AFFFFFFFFFE13FFFFF2
0EFFFFFFFFF60BFFFFF7
1FFFFFFFFFC04FFFFFF8
1FFFFFFFFF40CFFFFFF8
1FFFFFFFFB06FFFFFFF8
1FFFFFFFF31EFFFFFFF8
1FFFFFFF908FFFFFFFF8
1FFFFFFE12EFFFFFFFF8
1FFFFFF709FFFFFFFFF8
1FFFFFF10444446FFFF8
1FFFFFF41111114FFFF8
1FFFFFFFFFFFFFFFFFF8
0FFFFFFFFFFFFFFFFFF8
0DFFFFFFFFFFFFFFFFF5
07FFFFFFFFFFFFFFFFE1
01CFFFFFFFFFFFFFFF50
001BFFFFFFFFFFFFE600
00005ADFFFFFFEC81000
ENDCHAR
STARTCHAR braceleft
ENCODING 123
SWIDTH 484 0
DWIDTH 16 0
BBX 17 22 -1 0
BITMAP
000001466653000000
0003BFFFBAADE70000
005FFFF40009FFC100
02FFFFC05AADFFFA00
0AFFFFA0BFFFFFFF30
0EFFFFA0BFFFFFFF70
1FFFFFA0BFFFFFFF80
1FFFFF80BFFFFFFF90
1FFA4310EFFFFFFF90
1FF91101EFFFFFFF90
1FFFFF80BFFFFFFF90
1FFFFFA0BFFFFFFF90
1FFFFFA0BFFFFFFF90
1FFFFFA0AFFFFFFF90
1FFFFFB06DDEFFFF90
1FFFFFE20009FFFF90
0FFFFFFD977CFFFF80
0DFFFFFFFFFFFFFF50
07FFFFFFFFFFFFFE10
01CFFFFFFFFFFFF500
001BFFFFFFFFFE6000
00005ADFFFEC820000
ENDCHAR
STARTCHAR bar
ENCODING 124
SWIDTH 484 0
DWIDTH 16 0
BBX 17 22 -1 0
BITMAP
000001461353000000
0003BFFF19FFE70000
005FFFFF19FFFFC100
02FFFFFF19FFFFFA00
0AFFFFFF19FFFFFF30
0EFFFFFF19FFFFFF70
1FFFFFFF19FFFFFF80
1FFFFFFF19FFFFFF90
1FFFFFFF19FFFFFF90
1FFFFFFF19FFFFFF90
1FFFFFFF19FFFFFF90
1FFFFFFF19FFFFFF90
1FFFFFFF19FFFFFF90
1FFFFFFF19FFFFFF90
1FFFFFFF19FFFFFF90
1FFFFFFF19FFFFFF90
0FFFFFFFEEFFFFFF80
0DFFFFFFFFFFFFFF50
07FFFFFFFFFFFFFE10
01CFFFFFFFFFFFF500
001BFFFFFFFFFE6000
00005ADFFFEC820000
ENDCHAR
STARTCHAR braceright
ENCODING 125
SWIDTH 484 0
DWIDTH 16 0
BBX 17 22 -1 0
BITMAP
000001466653000000
0003BFAAADFFE70000
005FFF2000AFFFC100
02FFFFBA914FFFFA00
0AFFFFFFF32FFFFF30
0EFFFFFFF42FFFFF70
1FFFFFFFF42FFFFF80
1FFFFFFFF41FFFFF90
1FFFFFFFF70234FF90
1FFFFFFFF70012FF90
1FFFFFFFF40EFFFF90
1FFFFFFFF32FFFFF90
1FFFFFFFF32FFFFF90
1FFFFFFFF32FFFFF90
1FFFFFDDC13FFFFF90
1FFFFF20008FFFFF90
0FFFFF878AFFFFFF80
0DFFFFFFFFFFFFFF50
07FFFFFFFFFFFFFE10
01CFFFFFFFFFFFF500
001BFFFFFFFFFE6000
00005ADFFFEC820000
ENDCHAR
STARTCHAR asciitilde
ENCODING 126
SWIDTH 578 0
DWIDTH 19 0
BBX 20 22 -1 0
BITMAP
00000146666665300000
0003BFFFFFFFFFFE7000
005FFFFFFFFFFFFFFB10
02FFFFFFFFFFFFFFFFA0
0AFFFFFFFFFFFFFFFFF2
0EFFFFFBCEFFFA6FFFF7
1FFFFF300037C42FFFF8
1FFFFE05C720005FFFF8
1FFFFF7BFFFC99EFFFF8
1FFFFFFFFFFFFFFFFFF8
1FFFFFFFFFFFFFFFFFF8
1FFFFFFFFFFFFFFFFFF8
1FFFFFFFFFFFFFFFFFF8
1FFFFFFFFFFFFFFFFFF8
1FFFFFFFFFFFFFFFFFF8
1FFFFFFFFFFFFFFFFFF8
0FFFFFFFFFFFFFFFFFF8
0DFFFFFFFFFFFFFFFFF5
07FFFFFFFFFFFFFFFFE1
01CFFFFFFFFFFFFFFF50
001BFFFFFFFFFFFFE600
00005ADFFFFFFEC81000
ENDCHAR
STARTCHAR uni00A0
ENCODING 160
SWIDTH 151 0
DWIDTH 5 0
BBX 1 1 0 0
BITMAP
00
ENDCHAR
STARTCHAR exclamdown
ENCODING 161
SWIDTH 424 0
DWIDTH 14 0
BBX 15 22 -1 0
BITMAP
0000014653000000
0003BFFFFFE70000
005FFFF14FFFC100
02FFFFF68FFFFB00
0AFFFFFFEFFFFF30
0EFFFFF75FFFFF80
1FFFFFF75FFFFF90
1FFFFFF75FFFFFA0
1FFFFFF75FFFFFA0
1FFFFFF75FFFFFA0
1FFFFFF75FFFFFA0
1FFFFFF75FFFFFA0
1FFFFFF75FFFFFA0
1FFFFFF75FFFFFA0
1FFFFFF75FFFFFA0
1FFFFFFEDFFFFFA0
0FFFFFFFFFFFFF90
0DFFFFFFFFFFFF60
07FFFFFFFFFFFE10
01CFFFFFFFFFF600
001BFFFFFFFF6000
00005AEFEC820000
ENDCHAR
STARTCHAR cent
ENCODING 162
SWIDTH 578 0
DWIDTH 19 0
BBX 20 22 -1 0
BITMAP
00000146666665300000
0003BFFFFF6CFFFE7000
005FFFFFFF1AFFFFFB10
02FFFFFEA9169BFFFFA0
0AFFFFE3000002FFFFF2
0EFFFFB06C18BBFFFFF7
1FFFFFA0AF1AFFFFFFF8
1FFFFFA0AF1AFFFFFFF8
1FFFFFA0AF1AFFFFFFF8
1FFFFFA0AF1AFFFFFFF8
1FFFFFA0AF1AFFFFFFF8
1FFFFFA0AF1AFFFFFFF8
1FFFFFC05A179AFFFFF8
1FFFFFF4000002FFFFF8
1FFFFFFFBA17ACFFFFF8
1FFFFFFFFF1AFFFFFFF8
0FFFFFFFFF8DFFFFFFF8
0DFFFFFFFFFFFFFFFFF5
07FFFFFFFFFFFFFFFFE1
01CFFFFFFFFFFFFFFF50
001BFFFFFFFFFFFFE600
00005ADFFFFFFEC81000
ENDCHAR
STARTCHAR sterling
ENCODING 163
SWIDTH 578 0
DWIDTH 19 0
BBX 20 22 -1 0
BITMAP
00000146666665300000
0003BFFFFFFFFFFE7000
005FFFFF92102AFFFB10
02FFFFFB025520DFFFA0
0AFFFFFA0AFF80CFFFF2
0EFFFFFA0AFFA4DFFFF7
1FFFFFFA0AFFFFFFFFF8
1FFFFFFA0AFFFFFFFFF8
1FFFFF9101222AFFFFF8
1FFFFFD706AAADFFFFF8
1FFFFFFA0AFFFFFFFFF8
1FFFFFFA0AFFFFFFFFF8
1FFFFFFA0AFFFFFFFFF8
1FFFFFFA034444DFFFF8
1FFFFFFB111111DFFFF8
1FFFFFFFFFFFFFFFFFF8
0FFFFFFFFFFFFFFFFFF8
0DFFFFFFFFFFFFFFFFF5
07FFFFFFFFFFFFFFFFE1
01CFFFFFFFFFFFFFFF50
001BFFFFFFFFFFFFE600
00005ADFFFFFFEC81000
ENDCHAR
STARTCHAR currency
ENCODING 164
SWIDTH 578 0
DWIDTH 19 0
BBX 20 22 -1 0
BITMAP
00000146666665300000
0003BFFFFFFFFFFE7000
005FFFA9FFFFFF6CFB10
02FFFF604322330AFFA0
0AFFFFF22677507FFFF2
0EFFFFF18FFFF26FFFF7
1FFFFFF18FFFF35FFFF8
1FFFFFF18FFFF35FFFF8
1FFFFFF18FFFF35FFFF8
1FFFFFF27FFFF26FFFF8
1FFFFFE20122106FFFF8
1FFFFF5187777609FFF8
1FFFFFCBFFFFFF9EFFF8
1FFFFFFFFFFFFFFFFFF8
1FFFFFFFFFFFFFFFFFF8
1FFFFFFFFFFFFFFFFFF8
0FFFFFFFFFFFFFFFFFF8
0DFFFFFFFFFFFFFFFFF5
07FFFFFFFFFFFFFFFFE1
01CFFFFFFFFFFFFFFF50
001BFFFFFFFFFFFFE600
00005ADFFFFFFEC81000
ENDCHAR
STARTCHAR yen
ENCODING 165
SWIDTH 578 0
DWIDTH 19 0
BBX 20 22 -1 0
BITMAP
00000146666665300000
0003BFFFFFFFFFFE7000
005FFD13FFFFF21EFB10
02FFFF40CFFFA06FFFA0
0AFFFFB06FFF40DFFFF2
0EFFFFF21EFD04FFFFF7
1FFFFFF809F60BFFFFF8
1FFFFFFE13E12FFFFFF8
1FFFFFFF60609FFFFFF8
1FFFFFFEB001DFFFFFF8
1FFFFFF4000007FFFFF8
1FFFFFF964056AFFFFF8
1FFFFFF5000007FFFFF8
1FFFFFFFF90CFFFFFFF8
1FFFFFFFF92CFFFFFFF8
1FFFFFFFFFFFFFFFFFF8
0FFFFFFFFFFFFFFFFFF8
0DFFFFFFFFFFFFFFFFF5
07FFFFFFFFFFFFFFFFE1
01CFFFFFFFFFFFFFFF50
001BFFFFFFFFFFFFE600
00005ADFFFFFFEC81000
ENDCHAR
STARTCHAR brokenbar
ENCODING 166
SWIDTH 484 0
DWIDTH 16 0
BBX 17 22 -1 0
BITMAP
000001466653000000
0003BFFFFFFFE70000
005FFFFF05FFFFC100
02FFFFFF05FFFFFA00
0AFFFFFF05FFFFFF30
0EFFFFFF05FFFFFF70
1FFFFFFF05FFFFFF80
1FFFFFFF9BFFFFFF90
1FFFFFFFFFFFFFFF90
1FFFFFFF37FFFFFF90
1FFFFFFF05FFFFFF90
1FFFFFFF05FFFFFF90
1FFFFFFF05FFFFFF90
1FFFFFFF05FFFFFF90
1FFFFFFF16FFFFFF90
1FFFFFFFFFFFFFFF90
0FFFFFFFFFFFFFFF80
0DFFFFFFFFFFFFFF50
07FFFFFFFFFFFFFE10
01CFFFFFFFFFFFF500
001BFFFFFFFFFE6000
00005ADFFFEC820000
ENDCHAR
STARTCHAR section
ENCODING 167
SWIDTH 578 0
DWIDTH 19 0
BBX 20 22 -1 0
BITMAP
00000146666665300000
0003BFFFFFFFFFFE7000
005FFFF94222236FFB10
02FFFFC05788877FFFA0
0AFFFF91FFFFFFFFFFF2
0EFFFFA1FFFFFFFFFFF7
1FFFFFC04667BFFFFFF8
1FFFFFFA03420CFFFFF8
1FFFFFFB0DFF18FFFFF8
1FFFFFFB0DFF28FFFFF8
1FFFFFFE136608FFFFF8
1FFFFFFFB65530AFFFF8
1FFFFFFFFFFFF37FFFF8
1FFFFFFFFFFFF46FFFF8
1FFFFFEFFFFFF27FFFF8
1FFFFF60111101CFFFF8
0FFFFFCA9999ADFFFFF8
0DFFFFFFFFFFFFFFFFF5
07FFFFFFFFFFFFFFFFE1
01CFFFFFFFFFFFFFFF50
001BFFFFFFFFFFFFE600
00005ADFFFFFFEC81000
ENDCHAR
STARTCHAR dieresis
ENCODING 168
SWIDTH 388 0
DWIDTH 12 0
BBX 13 10 0 0
BITMAP
00001332000000
005CFFFFE81000
0AFFFFFFFFE300
7FFFFFFFFFFD10
EFFBBFFCBEFF50
FFF00EF20DFF70
EFF44EF54DFF50
9FFFFFFFFFFE10
1DFFFFFFFFF500
01555555553000
ENDCHAR
STARTCHAR copyright
ENCODING 169
SWIDTH 578 0
DWIDTH 19 0
BBX 20 22 -1 0
BITMAP
00000146666665300000
0003BFFFFFEFFFFE7000
005FFFFA410038EFFB10
02FFFE329DFEB41BFFA0
0AFFE26FDBAABEA1CFF2
0EFF55FD122229F92EF7
1FFC1EFA2FFFFFFF48F8
1FF76FFA3FFFFFFFA3F8
1FF59FFA3FFFFFFFD1F8
1FF4AFFA3FFFFFFFE0F8
1FF59FFA3FFFFFFFD1F8
1FF94FFA3FFFFFFF85F8
1FFE1CFB18998CFE2BF8
1FFF82EF84444BF54FF8
1FFFF62CFFFFFD53EFF8
1FFFFF914899516EFFF8
0FFFFFFE96558DFFFFF8
0DFFFFFFFFFFFFFFFFF5
07FFFFFFFFFFFFFFFFE1
01CFFFFFFFFFFFFFFF50
001BFFFFFFFFFFFFE600
00005ADFFFFFFEC81000
ENDCHAR
STARTCHAR ordfeminine
ENCODING 170
SWIDTH 578 0
DWIDTH 19 0
BBX 20 22 -1 0
BITMAP
00000146666665300000
0003BFFFFFFFFFFE7000
005FFFFD200014EFFB10
02FFFFFF3566307FFFA0
0AFFFFFFFFFFF04FFFF2
0EFFFFFFFFFFF14FFFF7
1FFFFFFFECCCD14FFFF8
1FFFFFF70000004FFFF8
1FFFFFD03888704FFFF8
1FFFFFC08FFFF14FFFF8
1FFFFFC06FFFD05FFFF8
1FFFFFF20000009FFFF8
1FFFFFFD755569FFFFF8
1FFFFFFFFFFFFFFFFFF8
1FFFFFFFFFFFFFFFFFF8
1FFFFFFFFFFFFFFFFFF8
0FFFFFFFFFFFFFFFFFF8
0DFFFFFFFFFFFFFFFFF5
07FFFFFFFFFFFFFFFFE1
01CFFFFFFFFFFFFFFF50
001BFFFFFFFFFFFFE600
00005ADFFFFFFEC81000
ENDCHAR
STARTCHAR guillemotleft
ENCODING 171
SWIDTH 578 0
DWIDTH 19 0
BBX 20 22 -1 0
BITMAP
00000146666665300000
0003BFFFFFFFFFFE7000
005FFFFFFFFFFFFFFB10
02FFFFFFFCEFFBFFFFA0
0AFFFFFFE2BFC1DFFFF2
0EFFFFFF56FE2AFFFFF7
1FFFFFF92EF46FFFFFF8
1FFFFFD1CF83FFFFFFF8
1FFFFF37FB1DFFFFFFF8
1FFFFB1FF37FFFFFFFF8
1FFFFF38FB1DFFFFFFF8
1FFFFFD1CF74FFFFFFF8
1FFFFFF93FF47FFFFFF8
1FFFFFFF47FE1BFFFFF8
1FFFFFFFD1CFB1DFFFF8
1FFFFFFFFBEFFAFFFFF8
0FFFFFFFFFFFFFFFFFF8
0DFFFFFFFFFFFFFFFFF5
07FFFFFFFFFFFFFFFFE1
01CFFFFFFFFFFFFFFF50
001BFFFFFFFFFFFFE600
00005ADFFFFFFEC81000
ENDCHAR
STARTCHAR uni00AD
ENCODING 173
SWIDTH 428 0
DWIDTH 14 0
BBX 15 22 -1 0
BITMAP
0000014654000000
0003BFFFFFE81000
005FFFFFFFFFD200
02FFFFFFFFFFFC00
0AFFFFFFFFFFFF50
0EFFFFFFFFFFFFA0
1FFFE000003FFFB0
1FFFE555557FFFC0
1FFFFFFFFFFFFFC0
1FFFFFFFFFFFFFC0
1FFFFFFFFFFFFFC0
1FFFFFFFFFFFFFC0
1FFFFFFFFFFFFFC0
1FFFFFFFFFFFFFC0
1FFFFFFFFFFFFFC0
1FFFFFFFFFFFFFC0
0FFFFFFFFFFFFFB0
0DFFFFFFFFFFFF80
07FFFFFFFFFFFF30
01CFFFFFFFFFF800
001BFFFFFFFF8000
00005ADFED920000
ENDCHAR
STARTCHAR registered
ENCODING 174
SWIDTH 578 0
DWIDTH 19 0
BBX 20 22 -1 0
BITMAP
00000146666665300000
0003BFFFFFEFFFFE7000
005FFFFA410038EFFB10
02FFFE329DFEB41BFFA0
0AFFE26EAAAABFA1CFF2
0EFF55FC033308F92EF7
1FFC1EFC1FFF93FF48F8
1FF76FFC1FFFA3FFA3F8
1FF59FFC1DDD66FFD1F8
1FF4AFFC00003DFFE0F8
1FF59FFC1EEE74FFD1F8
1FF94FFC1FFFB2FF85F8
1FFE1CFC1FFFB2FE2BF8
1FFF82ED5FFFC5F54FF8
1FFFF62CFFFFFD53EFF8
1FFFFF914899516EFFF8
0FFFFFFE96558DFFFFF8
0DFFFFFFFFFFFFFFFFF5
07FFFFFFFFFFFFFFFFE1
01CFFFFFFFFFFFFFFF50
001BFFFFFFFFFFFFE600
00005ADFFFFFFEC81000
ENDCHAR
STARTCHAR macron
ENCODING 175
SWIDTH 428 0
DWIDTH 14 0
BBX 14 10 0 0
BITMAP
00001454300000
004BFFFFFE9200
09FFFFFFFFFE50
6FFFFFFFFFFFE2
DFFFFFFFFFFFF9
FFFB111117FFFB
EFFC444449FFFA
AFFFFFFFFFFFF5
2EFFFFFFFFFFB0
03DFFFFFFFFA10
ENDCHAR
STARTCHAR degree
ENCODING 176
SWIDTH 428 0
DWIDTH 14 0
BBX 15 22 -1 0
BITMAP
0000014654000000
0003BFFFFFE81000
005FFD6347FFD200
02FFF325507FFC00
0AFFF18FF45FFF50
0EFFF18FF45FFFA0
1FFFF502109FFFB0
1FFFFF977AFFFFC0
1FFFFFFFFFFFFFC0
1FFFFFFFFFFFFFC0
1FFFFFFFFFFFFFC0
1FFFFFFFFFFFFFC0
1FFFFFFFFFFFFFC0
1FFFFFFFFFFFFFC0
1FFFFFFFFFFFFFC0
1FFFFFFFFFFFFFC0
0FFFFFFFFFFFFFB0
0DFFFFFFFFFFFF80
07FFFFFFFFFFFF30
01CFFFFFFFFFF800
001BFFFFFFFF8000
00005ADFED920000
ENDCHAR
STARTCHAR plusminus
ENCODING 177
SWIDTH 428 0
DWIDTH 14 0
BBX 15 22 -1 0
BITMAP
0000014654000000
0003BFFFFFE81000
005FFFF23FFFD200
02FFFFF23FFFFC00
0AFFFFF23FFFFF50
0EFF21100113FFA0
1FFF64411446FFB0
1FFFFFF23FFFFFC0
1FFFFFF23FFFFFC0
1FFFFFF56FFFFFC0
1FFFFFFFFFFFFFC0
1FFFE000003FFFC0
1FFFE555557FFFC0
1FFFFFFFFFFFFFC0
1FFFFFFFFFFFFFC0
1FFFFFFFFFFFFFC0
0FFFFFFFFFFFFFB0
0DFFFFFFFFFFFF80
07FFFFFFFFFFFF30
01CFFFFFFFFFF800
001BFFFFFFFF8000
00005ADFED920000
ENDCHAR
STARTCHAR uni00B2
ENCODING 178
SWIDTH 578 0
DWIDTH 19 0
BBX 20 22 -1 0
BITMAP
00000146666665300000
0003BFFFFFFFFFFE7000
005FFFFE41014EFFFB10
02FFFFF5045405FFFFA0
0AFFFFF76FFF22FFFFF2
0EFFFFFFD96404FFFFF7
1FFFFFF900015DFFFFF8
1FFFFFF31BDFFFFFFFF8
1FFFFFF22CCCCEFFFFF8
1FFFFFF500000CFFFFF8
1FFFFFFE99999EFFFFF8
1FFFFFFFFFFFFFFFFFF8
1FFFFFFFFFFFFFFFFFF8
1FFFFFFFFFFFFFFFFFF8
1FFFFFFFFFFFFFFFFFF8
1FFFFFFFFFFFFFFFFFF8
0FFFFFFFFFFFFFFFFFF8
0DFFFFFFFFFFFFFFFFF5
07FFFFFFFFFFFFFFFFE1
01CFFFFFFFFFFFFFFF50
001BFFFFFFFFFFFFE600
00005ADFFFFFFEC81000
ENDCHAR
STARTCHAR uni00B3
ENCODING 179
SWIDTH 578 0
DWIDTH 19 0
BBX 20 22 -1 0
BITMAP
00000146666665300000
0003BFFFFFFFFFFE7000
005FFFFF610014DFFB10
02FFFFF90355404FFFA0
0AFFFFFC9EFFF22FFFF2
0EFFFFFFFE66505FFFF7
1FFFFFFFFE44306FFFF8
1FFFFFFECFFFF22FFFF8
1FFFFFF708BBA13FFFF8
1FFFFFFD1000009FFFF8
1FFFFFFFDA999CFFFFF8
1FFFFFFFFFFFFFFFFFF8
1FFFFFFFFFFFFFFFFFF8
1FFFFFFFFFFFFFFFFFF8
1FFFFFFFFFFFFFFFFFF8
1FFFFFFFFFFFFFFFFFF8
0FFFFFFFFFFFFFFFFFF8
0DFFFFFFFFFFFFFFFFF5
07FFFFFFFFFFFFFFFFE1
01CFFFFFFFFFFFFFFF50
001BFFFFFFFFFFFFE600
00005ADFFFFFFEC81000
ENDCHAR
STARTCHAR acute
ENCODING 180
SWIDTH 308 0
DWIDTH 10 0
BBX 10 11 0 0
BITMAP
0028AB9500
02EFFFFFD2
09FFFFFFFB
0EFF70BFFD
3FFF23FFFA
8FFD0AFFF3
CFF82FFFA0
FFF48FFE20
EFFCFFF700
8FFFFFD000
07AAAA3000
ENDCHAR
STARTCHAR uni00B5
ENCODING 181
SWIDTH 578 0
DWIDTH 19 0
BBX 20 22 -1 0
BITMAP
00000146666665300000
0003BFFFFFFFFFFE7000
005FF90CFFFFFB0AFB10
02FFF90CFFFFFB09FFA0
0AFFF90CFFFFFB09FFF2
0EFFF90CFFFFFB09FFF7
1FFFF90CFFFFFB09FFF8
1FFFF90CFFFFFB09FFF8
1FFFF90CFFFFFB09FFF8
1FFFF90CFFFFFB09FFF8
1FFFF90CFFFFFB09FFF8
1FFFF90CFFFFFB09FFF8
1FFFF90BFFFFF90AFFF8
1FFFF9013444310DFFF8
1FFFF903222223AFFFF8
1FFFF90CFFFFFFFFFFF8
0FFFF90CFFFFFFFFFFF8
0DFFFFFFFFFFFFFFFFF5
07FFFFFFFFFFFFFFFFE1
01CFFFFFFFFFFFFFFF50
001BFFFFFFFFFFFFE600
00005ADFFFFFFEC81000
ENDCHAR
STARTCHAR paragraph
ENCODING 182
SWIDTH 578 0
DWIDTH 19 0
BBX 20 22 -1 0
BITMAP
00000146666665300000
0003BFFFFFFFFFFE7000
005FFFD7555555BFFB10
02FFFF300001949FFFA0
0AFFFF000001F69FFFF2
0EFFFF000001F69FFFF7
1FFFFF000001F69FFFF8
1FFFFF200001F69FFFF8
1FFFFFB32111F69FFFF8
1FFFFFFFFFE1F69FFFF8
1FFFFFFFFFE1F69FFFF8
1FFFFFFFFFE1F69FFFF8
1FFFFFFFFFE1F69FFFF8
1FFFFFFFFFE1F69FFFF8
1FFFFFFFFFE7FABFFFF8
1FFFFFFFFFFFFFFFFFF8
0FFFFFFFFFFFFFFFFFF8
0DFFFFFFFFFFFFFFFFF5
07FFFFFFFFFFFFFFFFE1
01CFFFFFFFFFFFFFFF50
001BFFFFFFFFFFFFE600
00005ADFFFFFFEC81000
ENDCHAR
STARTCHAR periodcentered
ENCODING 183
SWIDTH 428 0
DWIDTH 14 0
BBX 15 22 -1 0
BITMAP
0000014654000000
0003BFFFFFE81000
005FFFFFFFFFD200
02FFFFFFFFFFFC00
0AFFFFFFFFFFFF50
0EFFFFFFFFFFFFA0
1FFFFFC02FFFFFB0
1FFFFFC02FFFFFC0
1FFFFFFFFFFFFFC0
1FFFFFFFFFFFFFC0
1FFFFFFFFFFFFFC0
1FFFFFFFFFFFFFC0
1FFFFFFFFFFFFFC0
1FFFFFFFFFFFFFC0
1FFFFFFFFFFFFFC0
1FFFFFFFFFFFFFC0
0FFFFFFFFFFFFFB0
0DFFFFFFFFFFFF80
07FFFFFFFFFFFF30
01CFFFFFFFFFF800
001BFFFFFFFF8000
00005ADFED920000
ENDCHAR
STARTCHAR cedilla
ENCODING 184
SWIDTH 101 0
DWIDTH 3 0
BBX 5 6 -1 -5
BITMAP
000100
027E40
0CEC30
1F6000
0EC820
03CD40
ENDCHAR
STARTCHAR uni00B9
ENCODING 185
SWIDTH 578 0
DWIDTH 19 0
BBX 20 22 -1 0
BITMAP
00000146666665300000
0003BFFFFFFFFFFE7000
005FFFFE8307FFFFFB10
02FFFFFD0107FFFFFFA0
0AFFFFFECD07FFFFFFF2
0EFFFFFFFD07FFFFFFF7
1FFFFFFFFD07FFFFFFF8
1FFFFFFFFD07FFFFFFF8
1FFFFFFFFD07FFFFFFF8
1FFFFFFFFD07FFFFFFF8
1FFFFFFFFE9CFFFFFFF8
1FFFFFFFFFFFFFFFFFF8
1FFFFFFFFFFFFFFFFFF8
1FFFFFFFFFFFFFFFFFF8
1FFFFFFFFFFFFFFFFFF8
1FFFFFFFFFFFFFFFFFF8
0FFFFFFFFFFFFFFFFFF8
0DFFFFFFFFFFFFFFFFF5
07FFFFFFFFFFFFFFFFE1
01CFFFFFFFFFFFFFFF50
001BFFFFFFFFFFFFE600
00005ADFFFFFFEC81000
ENDCHAR
STARTCHAR ordmasculine
ENCODING 186
SWIDTH 578 0
DWIDTH 19 0
BBX 20 22 -1 0
BITMAP
00000146666665300000
0003BFFFFFFFFFFE7000
005FFFF92000027FFB10
02FFFFD02555520AFFA0
0AFFFFB09FFFFC07FFF2
0EFFFFB0AFFFFD07FFF7
1FFFFFB0AFFFFD07FFF8
1FFFFFB0AFFFFD07FFF8
1FFFFFB0AFFFFD07FFF8
1FFFFFB0AFFFFD07FFF8
1FFFFFB07FFFFA08FFF8
1FFFFFE10000000CFFF8
1FFFFFFC655556BFFFF8
1FFFFFFFFFFFFFFFFFF8
1FFFFFFFFFFFFFFFFFF8
1FFFFFFFFFFFFFFFFFF8
0FFFFFFFFFFFFFFFFFF8
0DFFFFFFFFFFFFFFFFF5
07FFFFFFFFFFFFFFFFE1
01CFFFFFFFFFFFFFFF50
001BFFFFFFFFFFFFE600
00005ADFFFFFFEC81000
ENDCHAR
STARTCHAR guillemotright
ENCODING 187
SWIDTH 578 0
DWIDTH 19 0
BBX 20 22 -1 0
BITMAP
00000146666665300000
0003BFFFFFFFFFFE7000
005FFFFFFFFFFFFFFB10
02FFFFCEFFBFFFFFFFA0
0AFFFF65FF48FFFFFFF2
0EFFFFF38FD1CFFFFFF7
1FFFFFFD1CF92EFFFFF8
1FFFFFFFA2EF46FFFFF8
1FFFFFFFF64FE1BFFFF8
1FFFFFFFFE1BF83FFFF8
1FFFFFFFF74FE2AFFFF8
1FFFFFFFB1DF56FFFFF8
1FFFFFFD1BFA2EFFFFF8
1FFFFFF48FE1BFFFFFF8
1FFFFF74FF47FFFFFFF8
1FFFFFBEFFAFFFFFFFF8
0FFFFFFFFFFFFFFFFFF8
0DFFFFFFFFFFFFFFFFF5
07FFFFFFFFFFFFFFFFE1
01CFFFFFFFFFFFFFFF50
001BFFFFFFFFFFFFE600
00005ADFFFFFFEC81000
ENDCHAR
STARTCHAR onequarter
ENCODING 188
SWIDTH 578 0
DWIDTH 19 0
BBX 20 22 -1 0
BITMAP
00000146666665300000
0003BFFFFFFFFFFE7000
005C610EFD07FFFFFB10
02F6010EF90BFFFFFFA0
0AFCE60EF50EFFFFFFF2
0EFFF60EF23FFFFFFFF7
1FFFF60ED07FFFFFFFF8
1FFFF60E90A7AFF7AFF8
1FFFF60E60E05FE06FF8
1FFFF60E23F05FE06FF8
1FFFFB9D06F05FE06FF8
1FFFFFFA0AF05FE06FF8
1FFFFFF60DF3155025A8
1FFFFFF32FFC20000078
1FFFFFE16FFFFFE06FF8
1FFFFFFFFFFFFFE06FF8
0FFFFFFFFFFFFFF8BFF8
0DFFFFFFFFFFFFFFFFF5
07FFFFFFFFFFFFFFFFE1
01CFFFFFFFFFFFFFFF50
001BFFFFFFFFFFFFE600
00005ADFFFFFFEC81000
ENDCHAR
STARTCHAR onehalf
ENCODING 189
SWIDTH 578 0
DWIDTH 19 0
BBX 20 22 -1 0
BITMAP
00000146666665300000
0003BFFFFFFFFFFE7000
005C610EFD07FFFFFB10
02F6010EF90BFFFFFFA0
0AFCE60EF50EFFFFFFF2
0EFFF60EF23FFFFFFFF7
1FFFF60ED07FB878BFF8
1FFFF60E90A8000009F8
1FFFF60E60E22CDC14F8
1FFFF60E23FEDFDC13F8
1FFFFB9D06FD510009F8
1FFFFFFA0AF40469DFF8
1FFFFFF60DF23FFFFFF8
1FFFFFF32FF214444DF8
1FFFFFE16FFA22222DF8
1FFFFFFFFFFFFFFFFFF8
0FFFFFFFFFFFFFFFFFF8
0DFFFFFFFFFFFFFFFFF5
07FFFFFFFFFFFFFFFFE1
01CFFFFFFFFFFFFFFF50
001BFFFFFFFFFFFFE600
00005ADFFFFFFEC81000
ENDCHAR
STARTCHAR threequarters
ENCODING 190
SWIDTH 578 0
DWIDTH 19 0
BBX 20 22 -1 0
BITMAP
00000146666665300000
0003BFFFFFFFFFFE7000
005C610EFD07FFFFFB10
02F6010EF90BFFFFFFA0
0AFCE60EF50EFFFFFFF2
0EFFF60EF23FFFFFFFF7
1FFFF60ED07FB988AEF8
1FFFF60E90A6000003E8
1FFFF60E60D24BCC60A8
1FFFF60E23FFFEEE70B8
1FFFFB9D06FFF60001E8
1FFFFFFA0AFFFCAA50B8
1FFFFFF60DE68FFFA0A8
1FFFFFF32FF1144410C8
1FFFFFE16FFC311129F8
1FFFFFFFFFFFFFFFFFF8
0FFFFFFFFFFFFFFFFFF8
0DFFFFFFFFFFFFFFFFF5
07FFFFFFFFFFFFFFFFE1
01CFFFFFFFFFFFFFFF50
001BFFFFFFFFFFFFE600
00005ADFFFFFFEC81000
ENDCHAR
STARTCHAR questiondown
ENCODING 191
SWIDTH 578 0
DWIDTH 19 0
BBX 20 22 -1 0
BITMAP
00000146666665300000
0003BFFFFFFEFFFE7000
005FFFFFFF90BFFFFB10
02FFFFFFFFC7DFFFFFA0
0AFFFFFFFFD6EFFFFFF2
0EFFFFFFFFC0DFFFFFF7
1FFFFFFFFFC0DFFFFFF8
1FFFFFF92001EFFFFFF8
1FFFFFE0689CFFFFFFF8
1FFFFFC0DFFFFFFFFFF8
1FFFFFC0DFFFFFFFFFF8
1FFFFFC0DFFFFFDFFFF8
1FFFFFD0CFFFFD0CFFF8
1FFFFFF21322112EFFF8
1FFFFFFE977779EFFFF8
1FFFFFFFFFFFFFFFFFF8
0FFFFFFFFFFFFFFFFFF8
0DFFFFFFFFFFFFFFFFF5
07FFFFFFFFFFFFFFFFE1
01CFFFFFFFFFFFFFFF50
001BFFFFFFFFFFFFE600
00005ADFFFFFFEC81000
ENDCHAR
STARTCHAR Agrave
ENCODING 192
SWIDTH 578 0
DWIDTH 19 0
BBX 20 31 -1 0
BITMAP
00000169BA7100000000
00003EFFFFFD10000000
0000DFFFFFFF70000000
0000FFF909FFC0000000
0000CFFF14FFF1000000
00005FFF80EFF6000000
00000CFFE1AFFA000000
000003FFF76FFD000000
0000009FFEDFFD000000
0000016FFFFFFB300000
0003BFFFFFFFFFFE7000
005FFFFA310025EFFB10
02FFFFD01455306FFFA0
0AFFFFB09FFFF13FFFF2
0EFFFFA0AFFFF22FFFF7
1FFFFF80CFFFF40FFFF8
1FFFFF60DFFFF60EFFF8
1FFFFF509AAAA50CFFF8
1FFFFF300000000BFFF8
1FFFFF12DDDDD909FFF8
1FFFFF04FFFFFC07FFF8
1FFFFD05FFFFFD06FFF8
1FFFFB06FFFFFE04FFF8
1FFFFA18FFFFFF24FFF8
1FFFFFFFFFFFFFFFFFF8
0FFFFFFFFFFFFFFFFFF8
0DFFFFFFFFFFFFFFFFF5
07FFFFFFFFFFFFFFFFE1
01CFFFFFFFFFFFFFFF50
001BFFFFFFFFFFFFE600
00005ADFFFFFFEC81000
ENDCHAR
STARTCHAR Aacute
ENCODING 193
SWIDTH 578 0
DWIDTH 19 0
BBX 20 31 -1 0
BITMAP
00000000038BB9400000
000000004FFFFFFB1000
00000000CFFFFFFF8000
00000002FFF40EFFA000
00000006FFE06FFF7000
0000000BFFA0DFFE1000
0000000EFF55FFF70000
0000003FFF1CFFD00000
0000003FFFCFFF400000
0000014FFFFFFF300000
0003BFFFFFFFFFFE7000
005FFFFA310025EFFB10
02FFFFD01455306FFFA0
0AFFFFB09FFFF13FFFF2
0EFFFFA0AFFFF22FFFF7
1FFFFF80CFFFF40FFFF8
1FFFFF60DFFFF60EFFF8
1FFFFF509AAAA50CFFF8
1FFFFF300000000BFFF8
1FFFFF12DDDDD909FFF8
1FFFFF04FFFFFC07FFF8
1FFFFD05FFFFFD06FFF8
1FFFFB06FFFFFE04FFF8
1FFFFA18FFFFFF24FFF8
1FFFFFFFFFFFFFFFFFF8
0FFFFFFFFFFFFFFFFFF8
0DFFFFFFFFFFFFFFFFF5
07FFFFFFFFFFFFFFFFE1
01CFFFFFFFFFFFFFFF50
001BFFFFFFFFFFFFE600
00005ADFFFFFFEC81000
ENDCHAR
STARTCHAR Acircumflex
ENCODING 194
SWIDTH 578 0
DWIDTH 19 0
BBX 20 32 -1 0
BITMAP
00000000046510000000
00000002DFFFF5000000
0000000BFFFFFE100000
0000003FFEADFF800000
000000AFFA24FFE10000
000001FFF4A1DFF60000
000007FFD1F58FFC0000
00000CFF75FA2FFF2000
00000FFF3AFE2CFF5000
00000FFFFFFFFFFF5000
00000CFFFFFFFFFE1000
0003BFFFFFFFFFFF7000
005FFFFA310025EFFB10
02FFFFD01455306FFFA0
0AFFFFB09FFFF13FFFF2
0EFFFFA0AFFFF22FFFF7
1FFFFF80CFFFF40FFFF8
1FFFFF60DFFFF60EFFF8
1FFFFF509AAAA50CFFF8
1FFFFF300000000BFFF8
1FFFFF12DDDDD909FFF8
1FFFFF04FFFFFC07FFF8
1FFFFD05FFFFFD06FFF8
1FFFFB06FFFFFE04FFF8
1FFFFA18FFFFFF24FFF8
1FFFFFFFFFFFFFFFFFF8
0FFFFFFFFFFFFFFFFFF8
0DFFFFFFFFFFFFFFFFF5
07FFFFFFFFFFFFFFFFE1
01CFFFFFFFFFFFFFFF50
001BFFFFFFFFFFFFE600
00005ADFFFFFFEC81000
ENDCHAR
STARTCHAR Atilde
ENCODING 195
SWIDTH 578 0
DWIDTH 19 0
BBX 20 31 -1 0
BITMAP
00000000034420000000
0000002AEFFFFC600000
000005FFFFFFFFFB1000
00003FFFFFFFFFFFA000
0000BFFFFFFFFFFFF300
0001FFFFFFFFFFFFF700
0002FFFFCDFFC9FFF900
0001FFF5003A21FFF800
0000DFF15C5106FFF400
00006FFFFFFFFFFFC000
0003BFFFFFFFFFFF9000
005FFFFA310025EFFB10
02FFFFD01455306FFFA0
0AFFFFB09FFFF13FFFF2
0EFFFFA0AFFFF22FFFF7
1FFFFF80CFFFF40FFFF8
1FFFFF60DFFFF60EFFF8
1FFFFF509AAAA50CFFF8
1FFFFF300000000BFFF8
1FFFFF12DDDDD909FFF8
1FFFFF04FFFFFC07FFF8
1FFFFD05FFFFFD06FFF8
1FFFFB06FFFFFE04FFF8
1FFFFA18FFFFFF24FFF8
1FFFFFFFFFFFFFFFFFF8
0FFFFFFFFFFFFFFFFFF8
0DFFFFFFFFFFFFFFFFF5
07FFFFFFFFFFFFFFFFE1
01CFFFFFFFFFFFFFFF50
001BFFFFFFFFFFFFE600
00005ADFFFFFFEC81000
ENDCHAR
STARTCHAR Adieresis
ENCODING 196
SWIDTH 578 0
DWIDTH 19 0
BBX 20 30 -1 0
BITMAP
00000000023210000000
00000029EFFFFB500000
000004EFFFFFFFF90000
00001EFFFFFFFFFF6000
00006FFDBDFEBDFFD000
00008FF806F905FFF000
00006FFA48FB47FFD000
00002FFFFFFFFFFF8000
000007FFFFFFFFFC1000
0003BFFFFFFFFFFE7000
005FFFFA310025EFFB10
02FFFFD01455306FFFA0
0AFFFFB09FFFF13FFFF2
0EFFFFA0AFFFF22FFFF7
1FFFFF80CFFFF40FFFF8
1FFFFF60DFFFF60EFFF8
1FFFFF509AAAA50CFFF8
1FFFFF300000000BFFF8
1FFFFF12DDDDD909FFF8
1FFFFF04FFFFFC07FFF8
1FFFFD05FFFFFD06FFF8
1FFFFB06FFFFFE04FFF8
1FFFFA18FFFFFF24FFF8
1FFFFFFFFFFFFFFFFFF8
0FFFFFFFFFFFFFFFFFF8
0DFFFFFFFFFFFFFFFFF5
07FFFFFFFFFFFFFFFFE1
01CFFFFFFFFFFFFFFF50
001BFFFFFFFFFFFFE600
00005ADFFFFFFEC81000
ENDCHAR
STARTCHAR Aring
ENCODING 197
SWIDTH 578 0
DWIDTH 19 0
BBX 20 30 -1 0
BITMAP
000000039DEDA3000000
0000006FFFFFFF800000
000005FFFFDEFFF70000
00000DFF80006FFE1000
00003FFF09DA0DFF5000
00005FFD0DFF0CFF7000
00005FFF07A70DFF7000
00003FFFA3239FFF5000
00000EFFFFFFFFFF1000
0003BFFFFFFFFFFF7000
005FFFFA310025EFFB10
02FFFFD01455306FFFA0
0AFFFFB09FFFF13FFFF2
0EFFFFA0AFFFF22FFFF7
1FFFFF80CFFFF40FFFF8
1FFFFF60DFFFF60EFFF8
1FFFFF509AAAA50CFFF8
1FFFFF300000000BFFF8
1FFFFF12DDDDD909FFF8
1FFFFF04FFFFFC07FFF8
1FFFFD05FFFFFD06FFF8
1FFFFB06FFFFFE04FFF8
1FFFFA18FFFFFF24FFF8
1FFFFFFFFFFFFFFFFFF8
0FFFFFFFFFFFFFFFFFF8
0DFFFFFFFFFFFFFFFFF5
07FFFFFFFFFFFFFFFFE1
01CFFFFFFFFFFFFFFF50
001BFFFFFFFFFFFFE600
00005ADFFFFFFEC81000
ENDCHAR
STARTCHAR AE
ENCODING 198
SWIDTH 578 0
DWIDTH 19 0
BBX 20 22 -1 0
BITMAP
00000146666665300000
0003BFFFFFFFFFFD7000
005FFFC310000004FB10
02FFFF2146026668FFA0
0AFFFF05FF05FFFFFFF2
0EFFFE06FF05FFFFFFF7
1FFFFC08FF05FFFFFFF8
1FFFFA0AFF03888AFFF8
1FFFF90BFF000004FFF8
1FFFF70DFF04CCCDFFF8
1FFFF50EFF05FFFFFFF8
1FFFF4022205FFFFFFF8
1FFFF2133305FFFFFFF8
1FFFF04FFF013336FFF8
1FFFE38FFF333336FFF8
1FFFFFFFFFFFFFFFFFF8
0FFFFFFFFFFFFFFFFFF8
0DFFFFFFFFFFFFFFFFF5
07FFFFFFFFFFFFFFFFE1
01CFFFFFFFFFFFFFFF50
001BFFFFFFFFFFFFE600
00005ADFFFFFFEC81000
ENDCHAR
STARTCHAR Ccedilla
ENCODING 199
SWIDTH 578 0
DWIDTH 19 0
BBX 20 22 -1 0
BITMAP
00000146666665300000
0003BFFFFFFFFFFE7000
005FFFB2000002DFFB10
02FFFF11566653EFFFA0
0AFFFD06FFFFFFFFFFF2
0EFFFD07FFFFFFFFFFF7
1FFFFD07FFFFFFFFFFF8
1FFFFD07FFFFFFFFFFF8
1FFFFD07FFFFFFFFFFF8
1FFFFD07FFFFFFFFFFF8
1FFFFD07FFFFFFFFFFF8
1FFFFD07FFFFFFFFFFF8
1FFFFD06FFFFFFFFFFF8
1FFFFF10344442FFFFF8
1FFFFFC3210113DFFFF8
1FFFFFFFE72AFFFFFFF8
0FFFFFFF413BFFFFFFF8
0DFFFFFF17FFFFFFFFF5
07FFFFFF327CFFFFFFE1
01CFFFFFC429FFFFFF50
001BFFFFFFFFFFFFE600
00005ADFFFFFFEC81000
ENDCHAR
STARTCHAR Egrave
ENCODING 200
SWIDTH 578 0
DWIDTH 19 0
BBX 20 31 -1 0
BITMAP
00000049BB8300000000
00001BFFFFFF40000000
00008FFFFFFFC0000000
0000AFFE04FFF1000000
00007FFF60EFF6000000
00001EFFD0AFFA000000
000007FFF46FFE000000
000000DFFB1FFF300000
0000004FFFCFFF200000
0000014FFFFFFF300000
0003BFFFFFFFFFFE7000
005FFFF40000001FFB10
02FFFFF40555556FFFA0
0AFFFFF41FFFFFFFFFF2
0EFFFFF41FFFFFFFFFF7
1FFFFFF41FFFFFFFFFF8
1FFFFFF41AAAAAEFFFF8
1FFFFFF4000000DFFFF8
1FFFFFF41BBBBBEFFFF8
1FFFFFF41FFFFFFFFFF8
1FFFFFF41FFFFFFFFFF8
1FFFFFF41FFFFFFFFFF8
1FFFFFF40444444DFFF8
1FFFFFF51111111DFFF8
1FFFFFFFFFFFFFFFFFF8
0FFFFFFFFFFFFFFFFFF8
0DFFFFFFFFFFFFFFFFF5
07FFFFFFFFFFFFFFFFE1
01CFFFFFFFFFFFFFFF50
001BFFFFFFFFFFFFE600
00005ADFFFFFFEC81000
ENDCHAR
STARTCHAR Eacute
ENCODING 201
SWIDTH 578 0
DWIDTH 19 0
BBX 20 31 -1 0
BITMAP
00000000017AB9610000
000000001DFFFFFE3000
000000007FFFFFFFD000
00000000CFF80AFFF000
00000002FFF42FFFC000
00000006FFE08FFF5000
0000000AFFA1EFFB0000
0000000DFF57FFF30000
0000000DFFDEFF900000
0000014CFFFFFF400000
0003BFFFFFFFFFFE7000
005FFFF40000001FFB10
02FFFFF40555556FFFA0
0AFFFFF41FFFFFFFFFF2
0EFFFFF41FFFFFFFFFF7
1FFFFFF41FFFFFFFFFF8
1FFFFFF41AAAAAEFFFF8
1FFFFFF4000000DFFFF8
1FFFFFF41BBBBBEFFFF8
1FFFFFF41FFFFFFFFFF8
1FFFFFF41FFFFFFFFFF8
1FFFFFF41FFFFFFFFFF8
1FFFFFF40444444DFFF8
1FFFFFF51111111DFFF8
1FFFFFFFFFFFFFFFFFF8
0FFFFFFFFFFFFFFFFFF8
0DFFFFFFFFFFFFFFFFF5
07FFFFFFFFFFFFFFFFE1
01CFFFFFFFFFFFFFFF50
001BFFFFFFFFFFFFE600
00005ADFFFFFFEC81000
ENDCHAR
STARTCHAR Ecircumflex
ENCODING 202
SWIDTH 578 0
DWIDTH 19 0
BBX 20 32 -1 0
BITMAP
00000000036630000000
00000000AFFFF9000000
00000006FFFFFF500000
0000000DFFBBFFD00000
0000005FFE21EFF40000
000000BFF8659FFB0000
000002FFF3BA3FFF1000
000007FFC1FE1CFF6000
00000AFF76FF57FFA000
00000BFFFFFFFFFFA000
000007FFFFFFFFFF5000
0003BFFFFFFFFFFF7000
005FFFF40000001FFB10
02FFFFF40555556FFFA0
0AFFFFF41FFFFFFFFFF2
0EFFFFF41FFFFFFFFFF7
1FFFFFF41FFFFFFFFFF8
1FFFFFF41AAAAAEFFFF8
1FFFFFF4000000DFFFF8
1FFFFFF41BBBBBEFFFF8
1FFFFFF41FFFFFFFFFF8
1FFFFFF41FFFFFFFFFF8
1FFFFFF41FFFFFFFFFF8
1FFFFFF40444444DFFF8
1FFFFFF51111111DFFF8
1FFFFFFFFFFFFFFFFFF8
0FFFFFFFFFFFFFFFFFF8
0DFFFFFFFFFFFFFFFFF5
07FFFFFFFFFFFFFFFFE1
01CFFFFFFFFFFFFFFF50
001BFFFFFFFFFFFFE600
00005ADFFFFFFEC81000
ENDCHAR
STARTCHAR Edieresis
ENCODING 203
SWIDTH 578 0
DWIDTH 19 0
BBX 20 30 -1 0
BITMAP
00000000013310000000
00000006DFFFFD710000
000001CFFFFFFFFD2000
00000AFFFFFFFFFFB000
00001FFFBCFFBBFFF300
00003FFD01FE00FFF400
00001FFD45FE44FFF300
00000BFFFFFFFFFFD000
000004FFFFFFFFFE3000
0003BFFFFFFFFFFF7000
005FFFF40000001FFB10
02FFFFF40555556FFFA0
0AFFFFF41FFFFFFFFFF2
0EFFFFF41FFFFFFFFFF7
1FFFFFF41FFFFFFFFFF8
1FFFFFF41AAAAAEFFFF8
1FFFFFF4000000DFFFF8
1FFFFFF41BBBBBEFFFF8
1FFFFFF41FFFFFFFFFF8
1FFFFFF41FFFFFFFFFF8
1FFFFFF41FFFFFFFFFF8
1FFFFFF40444444DFFF8
1FFFFFF51111111DFFF8
1FFFFFFFFFFFFFFFFFF8
0FFFFFFFFFFFFFFFFFF8
0DFFFFFFFFFFFFFFFFF5
07FFFFFFFFFFFFFFFFE1
01CFFFFFFFFFFFFFFF50
001BFFFFFFFFFFFFE600
00005ADFFFFFFEC81000
ENDCHAR
STARTCHAR Igrave
ENCODING 204
SWIDTH 578 0
DWIDTH 19 0
BBX 20 31 -1 0
BITMAP
00000038AB9400000000
000009FFFFFF60000000
00006FFFFFFFD0000000
00009FFF12FFF3000000
00006FFF80DFF8000000
00000DFFE18FFC000000
000005FFF64FFF100000
000000BFFD0EFF500000
0000003FFFDEFF400000
0000014EFFFFFF300000
0003BFFFFFFFFFFE7000
005FFF9000000006FB10
02FFFFB555105559FFA0
0AFFFFFFFF41FFFFFFF2
0EFFFFFFFF41FFFFFFF7
1FFFFFFFFF41FFFFFFF8
1FFFFFFFFF41FFFFFFF8
1FFFFFFFFF41FFFFFFF8
1FFFFFFFFF41FFFFFFF8
1FFFFFFFFF41FFFFFFF8
1FFFFFFFFF41FFFFFFF8
1FFFFFFFFF41FFFFFFF8
1FFFFFB444104448FFF8
1FFFFF9111111116FFF8
1FFFFFFFFFFFFFFFFFF8
0FFFFFFFFFFFFFFFFFF8
0DFFFFFFFFFFFFFFFFF5
07FFFFFFFFFFFFFFFFE1
01CFFFFFFFFFFFFFFF50
001BFFFFFFFFFFFFE600
00005ADFFFFFFEC81000
ENDCHAR
STARTCHAR Iacute
ENCODING 205
SWIDTH 578 0
DWIDTH 19 0
BBX 20 31 -1 0
BITMAP
00000000017ABA610000
000000000CFFFFFE4000
000000005FFFFFFFE000
00000000AFFA08FFF200
00000001EFF61EFFD000
00000004FFF16FFF7000
00000008FFC0DFFD0000
0000000CFF75FFF40000
0000000BFFDEFFB00000
0000014AFFFFFF500000
0003BFFFFFFFFFFE7000
005FFF9000000006FB10
02FFFFB555105559FFA0
0AFFFFFFFF41FFFFFFF2
0EFFFFFFFF41FFFFFFF7
1FFFFFFFFF41FFFFFFF8
1FFFFFFFFF41FFFFFFF8
1FFFFFFFFF41FFFFFFF8
1FFFFFFFFF41FFFFFFF8
1FFFFFFFFF41FFFFFFF8
1FFFFFFFFF41FFFFFFF8
1FFFFFFFFF41FFFFFFF8
1FFFFFB444104448FFF8
1FFFFF9111111116FFF8
1FFFFFFFFFFFFFFFFFF8
0FFFFFFFFFFFFFFFFFF8
0DFFFFFFFFFFFFFFFFF5
07FFFFFFFFFFFFFFFFE1
01CFFFFFFFFFFFFFFF50
001BFFFFFFFFFFFFE600
00005ADFFFFFFEC81000
ENDCHAR
STARTCHAR Icircumflex
ENCODING 206
SWIDTH 578 0
DWIDTH 19 0
BBX 20 32 -1 0
BITMAP
00000000025640000000
000000008FFFFB000000
00000004FFFFFF700000
0000000BFFCAFFE10000
0000003FFF22DFF60000
0000009FFB477FFD0000
000001EFF59C1FFF3000
000005FFE0DF2AFF9000
000008FF94FF75FFC000
000008FFFFFFFFFFC000
000005FFFFFFFFFF7000
0003BFFFFFFFFFFF7000
005FFF9000000006FB10
02FFFFB555105559FFA0
0AFFFFFFFF41FFFFFFF2
0EFFFFFFFF41FFFFFFF7
1FFFFFFFFF41FFFFFFF8
1FFFFFFFFF41FFFFFFF8
1FFFFFFFFF41FFFFFFF8
1FFFFFFFFF41FFFFFFF8
1FFFFFFFFF41FFFFFFF8
1FFFFFFFFF41FFFFFFF8
1FFFFFFFFF41FFFFFFF8
1FFFFFB444104448FFF8
1FFFFF9111111116FFF8
1FFFFFFFFFFFFFFFFFF8
0FFFFFFFFFFFFFFFFFF8
0DFFFFFFFFFFFFFFFFF5
07FFFFFFFFFFFFFFFFE1
01CFFFFFFFFFFFFFFF50
001BFFFFFFFFFFFFE600
00005ADFFFFFFEC81000
ENDCHAR
STARTCHAR Idieresis
ENCODING 207
SWIDTH 578 0
DWIDTH 19 0
BBX 20 30 -1 0
BITMAP
00000000013320000000
00000005CFFFFE810000
000000AFFFFFFFFD3000
000008FFFFFFFFFFD000
00000EFFBBFFCBFFF400
00001FFF00FF10DFF600
00000EFF44FF44EFF500
000009FFFFFFFFFFE100
000002FFFFFFFFFF5000
0003BFFFFFFFFFFF7000
005FFF9000000006FB10
02FFFFB555105559FFA0
0AFFFFFFFF41FFFFFFF2
0EFFFFFFFF41FFFFFFF7
1FFFFFFFFF41FFFFFFF8
1FFFFFFFFF41FFFFFFF8
1FFFFFFFFF41FFFFFFF8
1FFFFFFFFF41FFFFFFF8
1FFFFFFFFF41FFFFFFF8
1FFFFFFFFF41FFFFFFF8
1FFFFFFFFF41FFFFFFF8
1FFFFFB444104448FFF8
1FFFFF9111111116FFF8
1FFFFFFFFFFFFFFFFFF8
0FFFFFFFFFFFFFFFFFF8
0DFFFFFFFFFFFFFFFFF5
07FFFFFFFFFFFFFFFFE1
01CFFFFFFFFFFFFFFF50
001BFFFFFFFFFFFFE600
00005ADFFFFFFEC81000
ENDCHAR
STARTCHAR Eth
ENCODING 208
SWIDTH 578 0
DWIDTH 19 0
BBX 20 22 -1 0
BITMAP
00000146666665300000
0003BFFFFFFFFFFE7000
005FFF200000013DFB10
02FFFF2155555404FFA0
0AFFFF24FFFFFF32FFF2
0EFFFF24FFFFFF41FFF7
1FFFFF24FFFFFF41FFF8
1FFFFC23CFFFFF41FFF8
1FFFF2012EFFFF41FFF8
1FFFFF24FFFFFF41FFF8
1FFFFF24FFFFFF41FFF8
1FFFFF24FFFFFF41FFF8
1FFFFF24FFFFFF32FFF8
1FFFFF2144444304FFF8
1FFFFF311111124EFFF8
1FFFFFFFFFFFFFFFFFF8
0FFFFFFFFFFFFFFFFFF8
0DFFFFFFFFFFFFFFFFF5
07FFFFFFFFFFFFFFFFE1
01CFFFFFFFFFFFFFFF50
001BFFFFFFFFFFFFE600
00005ADFFFFFFEC81000
ENDCHAR
STARTCHAR Ntilde
ENCODING 209
SWIDTH 578 0
DWIDTH 19 0
BBX 20 31 -1 0
BITMAP
00000000134310000000
0000005CFFFFFB300000
000009FFFFFFFFF70000
00008FFFFFFFFFFF5000
0001FFFFFFFFFFFFD000
0005FFFFFFFFFFFFF300
0007FFFECEFFABFFF400
0006FFE1005906FFF300
0003FFB0AA300AFFE000
0000BFFFFFFFFFFF8000
0003CFFFFFFFFFFF7000
005FFF531000016FFB10
02FFFF0156665309FFA0
0AFFFF05FFFFFD07FFF2
0EFFFF05FFFFFD07FFF7
1FFFFF05FFFFFD07FFF8
1FFFFF05FFFFFD07FFF8
1FFFFF05FFFFFD07FFF8
1FFFFF05FFFFFD07FFF8
1FFFFF05FFFFFD07FFF8
1FFFFF05FFFFFD07FFF8
1FFFFF05FFFFFD07FFF8
1FFFFF05FFFFFD07FFF8
1FFFFF25FFFFFE17FFF8
1FFFFFFFFFFFFFFFFFF8
0FFFFFFFFFFFFFFFFFF8
0DFFFFFFFFFFFFFFFFF5
07FFFFFFFFFFFFFFFFE1
01CFFFFFFFFFFFFFFF50
001BFFFFFFFFFFFFE600
00005ADFFFFFFEC81000
ENDCHAR
STARTCHAR Ograve
ENCODING 210
SWIDTH 578 0
DWIDTH 19 0
BBX 20 31 -1 0
BITMAP
00000059BA8200000000
00001CFFFFFF30000000
00009FFFFFFFA0000000
0000CFFC05FFE1000000
00009FFF41FFF4000000
00002FFFB0BFF9000000
000008FFF37FFD000000
000001EFFA2FFF100000
0000006FFFCFFF100000
0000014FFFFFFE300000
0003BFFFFFFFFFFE7000
005FFFD31000014EFB10
02FFFF4045555405FFA0
0AFFFF24FFFFFF32FFF2
0EFFFF14FFFFFF32FFF7
1FFFFF14FFFFFF32FFF8
1FFFFF14FFFFFF32FFF8
1FFFFF14FFFFFF32FFF8
1FFFFF14FFFFFF32FFF8
1FFFFF14FFFFFF32FFF8
1FFFFF14FFFFFF32FFF8
1FFFFF23FFFFFF22FFF8
1FFFFF4034444305FFF8
1FFFFFE42111124EFFF8
1FFFFFFFFFFFFFFFFFF8
0FFFFFFFFFFFFFFFFFF8
0DFFFFFFFFFFFFFFFFF5
07FFFFFFFFFFFFFFFFE1
01CFFFFFFFFFFFFFFF50
001BFFFFFFFFFFFFE600
00005ADFFFFFFEC81000
ENDCHAR
STARTCHAR Oacute
ENCODING 211
SWIDTH 578 0
DWIDTH 19 0
BBX 20 31 -1 0
BITMAP
00000000028AB9500000
000000002EFFFFFD2000
000000009FFFFFFFB000
00000000DFF70BFFD000
00000003FFF23FFFA000
00000008FFD0AFFF3000
0000000CFF92FFFA0000
0000000FFF48FFE20000
0000000EFFCFFF700000
0000014DFFFFFF300000
0003BFFFFFFFFFFE7000
005FFFD31000014EFB10
02FFFF4045555405FFA0
0AFFFF24FFFFFF32FFF2
0EFFFF14FFFFFF32FFF7
1FFFFF14FFFFFF32FFF8
1FFFFF14FFFFFF32FFF8
1FFFFF14FFFFFF32FFF8
1FFFFF14FFFFFF32FFF8
1FFFFF14FFFFFF32FFF8
1FFFFF14FFFFFF32FFF8
1FFFFF23FFFFFF22FFF8
1FFFFF4034444305FFF8
1FFFFFE42111124EFFF8
1FFFFFFFFFFFFFFFFFF8
0FFFFFFFFFFFFFFFFFF8
0DFFFFFFFFFFFFFFFFF5
07FFFFFFFFFFFFFFFFE1
01CFFFFFFFFFFFFFFF50
001BFFFFFFFFFFFFE600
00005ADFFFFFFEC81000
ENDCHAR
STARTCHAR Ocircumflex
ENCODING 212
SWIDTH 578 0
DWIDTH 19 0
BBX 20 32 -1 0
BITMAP
00000000036620000000
00000001BFFFF8000000
00000008FFFFFF400000
0000001EFFABFFB00000
0000007FFD22FFF30000
000000DFF774AFF90000
000004FFF1C94FFE1000
000009FFA2FD0DFF5000
00000CFF67FF49FF9000
00000CFFFFFFFFFF9000
000009FFFFFFFFFF4000
0003BFFFFFFFFFFF7000
005FFFD31000014EFB10
02FFFF4045555405FFA0
0AFFFF24FFFFFF32FFF2
0EFFFF14FFFFFF32FFF7
1FFFFF14FFFFFF32FFF8
1FFFFF14FFFFFF32FFF8
1FFFFF14FFFFFF32FFF8
1FFFFF14FFFFFF32FFF8
1FFFFF14FFFFFF32FFF8
1FFFFF14FFFFFF32FFF8
1FFFFF23FFFFFF22FFF8
1FFFFF4034444305FFF8
1FFFFFE42111124EFFF8
1FFFFFFFFFFFFFFFFFF8
0FFFFFFFFFFFFFFFFFF8
0DFFFFFFFFFFFFFFFFF5
07FFFFFFFFFFFFFFFFE1
01CFFFFFFFFFFFFFFF50
001BFFFFFFFFFFFFE600
00005ADFFFFFFEC81000
ENDCHAR
STARTCHAR Otilde
ENCODING 213
SWIDTH 578 0
DWIDTH 19 0
BBX 20 31 -1 0
BITMAP
00000000024420000000
00000018EFFFFE810000
000003DFFFFFFFFD2000
00001EFFFFFFFFFFD000
00008FFFFFFFFFFFF600
0000CFFFFFFFFFFFFB00
0000EFFFCDFFD9EFFD00
0000DFF8002850DFFC00
00009FF42D7102FFF800
00003FFFFFFFFFFFE200
0003BFFFFFFFFFFFC000
005FFFD31000014EFB10
02FFFF4045555405FFA0
0AFFFF24FFFFFF32FFF2
0EFFFF14FFFFFF32FFF7
1FFFFF14FFFFFF32FFF8
1FFFFF14FFFFFF32FFF8
1FFFFF14FFFFFF32FFF8
1FFFFF14FFFFFF32FFF8
1FFFFF14FFFFFF32FFF8
1FFFFF14FFFFFF32FFF8
1FFFFF23FFFFFF22FFF8
1FFFFF4034444305FFF8
1FFFFFE42111124EFFF8
1FFFFFFFFFFFFFFFFFF8
0FFFFFFFFFFFFFFFFFF8
0DFFFFFFFFFFFFFFFFF5
07FFFFFFFFFFFFFFFFE1
01CFFFFFFFFFFFFFFF50
001BFFFFFFFFFFFFE600
00005ADFFFFFFEC81000
ENDCHAR
STARTCHAR Odieresis
ENCODING 214
SWIDTH 578 0
DWIDTH 19 0
BBX 20 30 -1 0
BITMAP
00000000013310000000
00000017DFFFFD700000
000002DFFFFFFFFC1000
00000BFFFFFFFFFFA000
00002FFEBCFFBCFFF100
00004FFC03FD01FFF300
00003FFC46FD45FFF100
00000DFFFFFFFFFFB000
000005FFFFFFFFFE2000
0003BFFFFFFFFFFF7000
005FFFD31000014EFB10
02FFFF4045555405FFA0
0AFFFF24FFFFFF32FFF2
0EFFFF14FFFFFF32FFF7
1FFFFF14FFFFFF32FFF8
1FFFFF14FFFFFF32FFF8
1FFFFF14FFFFFF32FFF8
1FFFFF14FFFFFF32FFF8
1FFFFF14FFFFFF32FFF8
1FFFFF14FFFFFF32FFF8
1FFFFF23FFFFFF22FFF8
1FFFFF4034444305FFF8
1FFFFFE42111124EFFF8
1FFFFFFFFFFFFFFFFFF8
0FFFFFFFFFFFFFFFFFF8
0DFFFFFFFFFFFFFFFFF5
07FFFFFFFFFFFFFFFFE1
01CFFFFFFFFFFFFFFF50
001BFFFFFFFFFFFFE600
00005ADFFFFFFEC81000
ENDCHAR
STARTCHAR multiply
ENCODING 215
SWIDTH 578 0
DWIDTH 19 0
BBX 20 22 -1 0
BITMAP
00000146666665300000
0003BFFFFFFFFFFE7000
005FFFFFFFFFFFFFFB10
02FFFFFFFFFFFFFFFFA0
0AFFFFFFFFFFFFFFFFF2
0EFFFFFF8DFFB9FFFFF7
1FFFFFFF32DB06FFFFF8
1FFFFFFFE3106FFFFFF8
1FFFFFFFFA01DFFFFFF8
1FFFFFFFB1632DFFFFF8
1FFFFFFF26FE34FFFFF8
1FFFFFFFDFFFEDFFFFF8
1FFFFFFFFFFFFFFFFFF8
1FFFFFFFFFFFFFFFFFF8
1FFFFFFFFFFFFFFFFFF8
1FFFFFFFFFFFFFFFFFF8
0FFFFFFFFFFFFFFFFFF8
0DFFFFFFFFFFFFFFFFF5
07FFFFFFFFFFFFFFFFE1
01CFFFFFFFFFFFFFFF50
001BFFFFFFFFFFFFE600
00005ADFFFFFFEC81000
ENDCHAR
STARTCHAR Oslash
ENCODING 216
SWIDTH 578 0
DWIDTH 19 0
BBX 20 22 -1 0
BITMAP
00000146666665300000
0003BFFFFFFFFFFE7000
005FFFB20000015EFB10
02FFFF1155555007FFA0
0AFFFE06FFFF8005FFF2
0EFFFD07FFFD0714FFF7
1FFFFD07FFF32F14FFF8
1FFFFD07FF80CF14FFF8
1FFFFD07FD06FF14FFF8
1FFFFD07F32EFF14FFF8
1FFFFD0780BFFF14FFF8
1FFFFD0405FFFF14FFF8
1FFFFE001EFFFE05FFF8
1FFFFF2013333108FFF8
1FFFFFD53222237FFFF8
1FFFFFFFFFFFFFFFFFF8
0FFFFFFFFFFFFFFFFFF8
0DFFFFFFFFFFFFFFFFF5
07FFFFFFFFFFFFFFFFE1
01CFFFFFFFFFFFFFFF50
001BFFFFFFFFFFFFE600
00005ADFFFFFFEC81000
ENDCHAR
STARTCHAR Ugrave
ENCODING 217
SWIDTH 578 0
DWIDTH 19 0
BBX 20 31 -1 0
BITMAP
00000049BB8300000000
00001BFFFFFF40000000
00008FFFFFFFC0000000
0000AFFE04FFF1000000
00007FFF60EFF6000000
00001EFFD0AFFA000000
000007FFF46FFE000000
000000DFFB1FFF300000
0000004FFFCFFF200000
0000014FFFFFFF300000
0003BFFFFFFFFFFE7000
005FFF06FFFFFF23FB10
02FFFF06FFFFFF23FFA0
0AFFFF06FFFFFF23FFF2
0EFFFF06FFFFFF23FFF7
1FFFFF06FFFFFF23FFF8
1FFFFF06FFFFFF23FFF8
1FFFFF06FFFFFF23FFF8
1FFFFF06FFFFFF23FFF8
1FFFFF06FFFFFF23FFF8
1FFFFF06FFFFFF23FFF8
1FFFFF04FFFFFF14FFF8
1FFFFF3034444206FFF8
1FFFFFD42111125EFFF8
1FFFFFFFFFFFFFFFFFF8
0FFFFFFFFFFFFFFFFFF8
0DFFFFFFFFFFFFFFFFF5
07FFFFFFFFFFFFFFFFE1
01CFFFFFFFFFFFFFFF50
001BFFFFFFFFFFFFE600
00005ADFFFFFFEC81000
ENDCHAR
STARTCHAR Uacute
ENCODING 218
SWIDTH 578 0
DWIDTH 19 0
BBX 20 31 -1 0
BITMAP
00000000017AB9610000
000000001DFFFFFE3000
000000007FFFFFFFD000
00000000CFF80AFFF000
00000002FFF42FFFC000
00000006FFE08FFF5000
0000000AFFA1EFFB0000
0000000DFF57FFF30000
0000000DFFDEFF900000
0000014CFFFFFF400000
0003BFFFFFFFFFFE7000
005FFF06FFFFFF23FB10
02FFFF06FFFFFF23FFA0
0AFFFF06FFFFFF23FFF2
0EFFFF06FFFFFF23FFF7
1FFFFF06FFFFFF23FFF8
1FFFFF06FFFFFF23FFF8
1FFFFF06FFFFFF23FFF8
1FFFFF06FFFFFF23FFF8
1FFFFF06FFFFFF23FFF8
1FFFFF06FFFFFF23FFF8
1FFFFF04FFFFFF14FFF8
1FFFFF3034444206FFF8
1FFFFFD42111125EFFF8
1FFFFFFFFFFFFFFFFFF8
0FFFFFFFFFFFFFFFFFF8
0DFFFFFFFFFFFFFFFFF5
07FFFFFFFFFFFFFFFFE1
01CFFFFFFFFFFFFFFF50
001BFFFFFFFFFFFFE600
00005ADFFFFFFEC81000
ENDCHAR
STARTCHAR Ucircumflex
ENCODING 219
SWIDTH 578 0
DWIDTH 19 0
BBX 20 32 -1 0
BITMAP
00000000036630000000
00000000AFFFF9000000
00000006FFFFFF500000
0000000DFFBBFFD00000
0000005FFE21EFF40000
000000BFF8659FFB0000
000002FFF3BA3FFF1000
000007FFC1FE1CFF6000
00000AFF76FF57FFA000
00000BFFFFFFFFFFA000
000007FFFFFFFFFF5000
0003BFFFFFFFFFFF7000
005FFF06FFFFFF23FB10
02FFFF06FFFFFF23FFA0
0AFFFF06FFFFFF23FFF2
0EFFFF06FFFFFF23FFF7
1FFFFF06FFFFFF23FFF8
1FFFFF06FFFFFF23FFF8
1FFFFF06FFFFFF23FFF8
1FFFFF06FFFFFF23FFF8
1FFFFF06FFFFFF23FFF8
1FFFFF06FFFFFF23FFF8
1FFFFF04FFFFFF14FFF8
1FFFFF3034444206FFF8
1FFFFFD42111125EFFF8
1FFFFFFFFFFFFFFFFFF8
0FFFFFFFFFFFFFFFFFF8
0DFFFFFFFFFFFFFFFFF5
07FFFFFFFFFFFFFFFFE1
01CFFFFFFFFFFFFFFF50
001BFFFFFFFFFFFFE600
00005ADFFFFFFEC81000
ENDCHAR
STARTCHAR Udieresis
ENCODING 220
SWIDTH 578 0
DWIDTH 19 0
BBX 20 30 -1 0
BITMAP
00000000013310000000
00000006DFFFFD710000
000001CFFFFFFFFD2000
00000AFFFFFFFFFFB000
00001FFFBCFFBBFFF300
00003FFD01FE00FFF400
00001FFD45FE44FFF300
00000BFFFFFFFFFFD000
000004FFFFFFFFFE3000
0003BFFFFFFFFFFF7000
005FFF06FFFFFF23FB10
02FFFF06FFFFFF23FFA0
0AFFFF06FFFFFF23FFF2
0EFFFF06FFFFFF23FFF7
1FFFFF06FFFFFF23FFF8
1FFFFF06FFFFFF23FFF8
1FFFFF06FFFFFF23FFF8
1FFFFF06FFFFFF23FFF8
1FFFFF06FFFFFF23FFF8
1FFFFF06FFFFFF23FFF8
1FFFFF04FFFFFF14FFF8
1FFFFF3034444206FFF8
1FFFFFD42111125EFFF8
1FFFFFFFFFFFFFFFFFF8
0FFFFFFFFFFFFFFFFFF8
0DFFFFFFFFFFFFFFFFF5
07FFFFFFFFFFFFFFFFE1
01CFFFFFFFFFFFFFFF50
001BFFFFFFFFFFFFE600
00005ADFFFFFFEC81000
ENDCHAR
STARTCHAR Yacute
ENCODING 221
SWIDTH 578 0
DWIDTH 19 0
BBX 20 31 -1 0
BITMAP
00000000017AB9500000
000000002EFFFFFD3000
000000008FFFFFFFC000
00000000DFF70AFFE000
00000003FFF32FFFB000
00000007FFD09FFF4000
0000000BFF91FFFA0000
0000000EFF48FFF20000
0000000EFFDEFF800000
0000014DFFFFFF400000
0003BFFFFFFFFFFE7000
005FFF609FFFF907FB10
02FFFFD04FFFF30DFFA0
0AFFFFF40DFFC05FFFF2
0EFFFFFA07FF60BFFFF7
1FFFFFFF21FE13FFFFF8
1FFFFFFF80A909FFFFF8
1FFFFFFFE0421EFFFFF8
1FFFFFFFF6007FFFFFF8
1FFFFFFFFC00DFFFFFF8
1FFFFFFFFF23FFFFFFF8
1FFFFFFFFF23FFFFFFF8
1FFFFFFFFF23FFFFFFF8
1FFFFFFFFF34FFFFFFF8
1FFFFFFFFFFFFFFFFFF8
0FFFFFFFFFFFFFFFFFF8
0DFFFFFFFFFFFFFFFFF5
07FFFFFFFFFFFFFFFFE1
01CFFFFFFFFFFFFFFF50
001BFFFFFFFFFFFFE600
00005ADFFFFFFEC81000
ENDCHAR
STARTCHAR Thorn
ENCODING 222
SWIDTH 578 0
DWIDTH 19 0
BBX 20 22 -1 0
BITMAP
00000146666665300000
0003BFE8BFFFFFFE7000
005FFFD07FFFFFFFFB10
02FFFFD07FFFFFFFFFA0
0AFFFFD0244446BFFFF2
0EFFFFD00111100CFFF7
1FFFFFD07FFFFB08FFF8
1FFFFFD07FFFFD07FFF8
1FFFFFD07FFFFD07FFF8
1FFFFFD05AAA9609FFF8
1FFFFFD00000002EFFF8
1FFFFFD05AAAACEFFFF8
1FFFFFD07FFFFFFFFFF8
1FFFFFD07FFFFFFFFFF8
1FFFFFE18FFFFFFFFFF8
1FFFFFFFFFFFFFFFFFF8
0FFFFFFFFFFFFFFFFFF8
0DFFFFFFFFFFFFFFFFF5
07FFFFFFFFFFFFFFFFE1
01CFFFFFFFFFFFFFFF50
001BFFFFFFFFFFFFE600
00005ADFFFFFFEC81000
ENDCHAR
STARTCHAR germandbls
ENCODING 223
SWIDTH 578 0
DWIDTH 19 0
BBX 20 22 -1 0
BITMAP
00000146666665300000
0003BFFFFFFFFFFE7000
005FFFD3100013CFFB10
02FFFF304555402FFFA0
0AFFFF04FFFFF50FFFF2
0EFFFF05FFFFF60EFFF7
1FFFFF05FFFFF43FFFF8
1FFFFF05FFFA20CFFFF8
1FFFFF05FFF9202CFFF8
1FFFFF05FFFFFE16FFF8
1FFFFF05FFFFFF23FFF8
1FFFFF05FFFFFF23FFF8
1FFFFF05FFFFFF14FFF8
1FFFFF05FB444206FFF8
1FFFFF16FA11125EFFF8
1FFFFFFFFFFFFFFFFFF8
0FFFFFFFFFFFFFFFFFF8
0DFFFFFFFFFFFFFFFFF5
07FFFFFFFFFFFFFFFFE1
01CFFFFFFFFFFFFFFF50
001BFFFFFFFFFFFFE600
00005ADFFFFFFEC81000
ENDCHAR
STARTCHAR agrave
ENCODING 224
SWIDTH 578 0
DWIDTH 19 0
BBX 20 31 -1 0
BITMAP
00000049BB8300000000
00001BFFFFFF40000000
00009FFFFFFFB0000000
0000BFFD04FFF1000000
00008FFF51EFF5000000
00002EFFC0AFFA000000
000007FFF46FFE000000
000000DFFB2FFF200000
0000005FFFCFFF200000
0000014FFFFFFF300000
0003BFFFFFFFFFFE7000
005FFFB2000014EFFB10
02FFFFD35666307FFFA0
0AFFFFFFFFFFF06FFFF2
0EFFFFFFFFFFF16FFFF7
1FFFFFFFFFFFF16FFFF8
1FFFFFFFFFFFF16FFFF8
1FFFFFA42222306FFFF8
1FFFFC013333206FFFF8
1FFFFA0AFFFFF16FFFF8
1FFFF90BFFFFF16FFFF8
1FFFFA0AFFFFF16FFFF8
1FFFFC014444306FFFF8
1FFFFF931111337FFFF8
1FFFFFFFFFFFFFFFFFF8
0FFFFFFFFFFFFFFFFFF8
0DFFFFFFFFFFFFFFFFF5
07FFFFFFFFFFFFFFFFE1
01CFFFFFFFFFFFFFFF50
001BFFFFFFFFFFFFE600
00005ADFFFFFFEC81000
ENDCHAR
STARTCHAR aacute
ENCODING 225
SWIDTH 578 0
DWIDTH 19 0
BBX 20 31 -1 0
BITMAP
00000000017AB9600000
000000001EFFFFFD3000
000000008FFFFFFFC000
00000000DFF80AFFE000
00000002FFF32FFFB000
00000007FFE09FFF4000
0000000BFF91EFFB0000
0000000EFF57FFF20000
0000000DFFDEFF800000
0000014CFFFFFF400000
0003BFFFFFFFFFFE7000
005FFFB2000014EFFB10
02FFFFD35666307FFFA0
0AFFFFFFFFFFF06FFFF2
0EFFFFFFFFFFF16FFFF7
1FFFFFFFFFFFF16FFFF8
1FFFFFFFFFFFF16FFFF8
1FFFFFA42222306FFFF8
1FFFFC013333206FFFF8
1FFFFA0AFFFFF16FFFF8
1FFFF90BFFFFF16FFFF8
1FFFFA0AFFFFF16FFFF8
1FFFFC014444306FFFF8
1FFFFF931111337FFFF8
1FFFFFFFFFFFFFFFFFF8
0FFFFFFFFFFFFFFFFFF8
0DFFFFFFFFFFFFFFFFF5
07FFFFFFFFFFFFFFFFE1
01CFFFFFFFFFFFFFFF50
001BFFFFFFFFFFFFE600
00005ADFFFFFFEC81000
ENDCHAR
STARTCHAR acircumflex
ENCODING 226
SWIDTH 578 0
DWIDTH 19 0
BBX 20 32 -1 0
BITMAP
00000000036630000000
00000000BFFFF9000000
00000007FFFFFF500000
0000000EFFBBFFC00000
0000006FFE21EFF40000
000000CFF8659FFA0000
000003FFF2BA4FFF1000
000008FFB1FE0DFF6000
00000BFF66FF58FFA000
00000BFFFFFFFFFFA000
000008FFFFFFFFFF5000
0003BFFFFFFFFFFF7000
005FFFB2000014EFFB10
02FFFFD35666307FFFA0
0AFFFFFFFFFFF06FFFF2
0EFFFFFFFFFFF16FFFF7
1FFFFFFFFFFFF16FFFF8
1FFFFFFFFFFFF16FFFF8
1FFFFFA42222306FFFF8
1FFFFC013333206FFFF8
1FFFFA0AFFFFF16FFFF8
1FFFF90BFFFFF16FFFF8
1FFFFA0AFFFFF16FFFF8
1FFFFC014444306FFFF8
1FFFFF931111337FFFF8
1FFFFFFFFFFFFFFFFFF8
0FFFFFFFFFFFFFFFFFF8
0DFFFFFFFFFFFFFFFFF5
07FFFFFFFFFFFFFFFFE1
01CFFFFFFFFFFFFFFF50
001BFFFFFFFFFFFFE600
00005ADFFFFFFEC81000
ENDCHAR
STARTCHAR atilde
ENCODING 227
SWIDTH 578 0
DWIDTH 19 0
BBX 20 31 -1 0
BITMAP
00000000024420000000
00000018EFFFFE810000
000002DFFFFFFFFD3000
00001DFFFFFFFFFFD100
00007FFFFFFFFFFFF700
0000BFFFFFFFFFFFFC00
0000DFFFCDFFE9DFFE00
0000CFF9002860CFFD00
00009FF52D7102FFF900
00002FFFFFFFFFFFF200
0003BFFFFFFFFFFFD000
005FFFB2000014EFFB10
02FFFFD35666307FFFA0
0AFFFFFFFFFFF06FFFF2
0EFFFFFFFFFFF16FFFF7
1FFFFFFFFFFFF16FFFF8
1FFFFFFFFFFFF16FFFF8
1FFFFFA42222306FFFF8
1FFFFC013333206FFFF8
1FFFFA0AFFFFF16FFFF8
1FFFF90BFFFFF16FFFF8
1FFFFA0AFFFFF16FFFF8
1FFFFC014444306FFFF8
1FFFFF931111337FFFF8
1FFFFFFFFFFFFFFFFFF8
0FFFFFFFFFFFFFFFFFF8
0DFFFFFFFFFFFFFFFFF5
07FFFFFFFFFFFFFFFFE1
01CFFFFFFFFFFFFFFF50
001BFFFFFFFFFFFFE600
00005ADFFFFFFEC81000
ENDCHAR
STARTCHAR adieresis
ENCODING 228
SWIDTH 578 0
DWIDTH 19 0
BBX 20 30 -1 0
BITMAP
00000000013310000000
00000007DFFFFD700000
000001CFFFFFFFFC1000
00000AFFFFFFFFFFB000
00002FFEBCFFBBFFF200
00003FFC02FE00FFF400
00002FFD45FE44FFF200
00000CFFFFFFFFFFC000
000004FFFFFFFFFE3000
0003BFFFFFFFFFFF7000
005FFFB2000014EFFB10
02FFFFD35666307FFFA0
0AFFFFFFFFFFF06FFFF2
0EFFFFFFFFFFF16FFFF7
1FFFFFFFFFFFF16FFFF8
1FFFFFFFFFFFF16FFFF8
1FFFFFA42222306FFFF8
1FFFFC013333206FFFF8
1FFFFA0AFFFFF16FFFF8
1FFFF90BFFFFF16FFFF8
1FFFFA0AFFFFF16FFFF8
1FFFFC014444306FFFF8
1FFFFF931111337FFFF8
1FFFFFFFFFFFFFFFFFF8
0FFFFFFFFFFFFFFFFFF8
0DFFFFFFFFFFFFFFFFF5
07FFFFFFFFFFFFFFFFE1
01CFFFFFFFFFFFFFFF50
001BFFFFFFFFFFFFE600
00005ADFFFFFFEC81000
ENDCHAR
STARTCHAR aring
ENCODING 229
SWIDTH 578 0
DWIDTH 19 0
BBX 20 30 -1 0
BITMAP
000000018CEDB6000000
0000003EFFFFFFB10000
000002EFFFEEFFFB0000
000009FFB1003EFF4000
00000EFF46DC29FF9000
00001FFF39FF48FFC000
00001FFF449919FFC000
00000EFFD4226FFF9000
00000AFFFFFFFFFF5000
0003BFFFFFFFFFFF7000
005FFFB2000014EFFB10
02FFFFD35666307FFFA0
0AFFFFFFFFFFF06FFFF2
0EFFFFFFFFFFF16FFFF7
1FFFFFFFFFFFF16FFFF8
1FFFFFFFFFFFF16FFFF8
1FFFFFA42222306FFFF8
1FFFFC013333206FFFF8
1FFFFA0AFFFFF16FFFF8
1FFFF90BFFFFF16FFFF8
1FFFFA0AFFFFF16FFFF8
1FFFFC014444306FFFF8
1FFFFF931111337FFFF8
1FFFFFFFFFFFFFFFFFF8
0FFFFFFFFFFFFFFFFFF8
0DFFFFFFFFFFFFFFFFF5
07FFFFFFFFFFFFFFFFE1
01CFFFFFFFFFFFFFFF50
001BFFFFFFFFFFFFE600
00005ADFFFFFFEC81000
ENDCHAR
STARTCHAR ae
ENCODING 230
SWIDTH 578 0
DWIDTH 19 0
BBX 20 22 -1 0
BITMAP
00000146666665300000
0003BFFFFFFFFFFD7000
005FFFC310000004FB10
02FFFF2146026668FFA0
0AFFFF05FF05FFFFFFF2
0EFFFE06FF05FFFFFFF7
1FFFFC08FF05FFFFFFF8
1FFFFA0AFF03888AFFF8
1FFFF90BFF000004FFF8
1FFFF70DFF04CCCDFFF8
1FFFF50EFF05FFFFFFF8
1FFFF4022205FFFFFFF8
1FFFF2133305FFFFFFF8
1FFFF04FFF013336FFF8
1FFFE38FFF333336FFF8
1FFFFFFFFFFFFFFFFFF8
0FFFFFFFFFFFFFFFFFF8
0DFFFFFFFFFFFFFFFFF5
07FFFFFFFFFFFFFFFFE1
01CFFFFFFFFFFFFFFF50
001BFFFFFFFFFFFFE600
00005ADFFFFFFEC81000
ENDCHAR
STARTCHAR ccedilla
ENCODING 231
SWIDTH 578 0
DWIDTH 19 0
BBX 20 22 -1 0
BITMAP
00000146666665300000
0003BFFFFFFFFFFE7000
005FFFB2100002DFFB10
02FFFF11566653EFFFA0
0AFFFD06FFFFFFFFFFF2
0EFFFD07FFFFFFFFFFF7
1FFFFD07FFFFFFFFFFF8
1FFFFD07FFFFFFFFFFF8
1FFFFD07FFFFFFFFFFF8
1FFFFD07FFFFFFFFFFF8
1FFFFD07FFFFFFFFFFF8
1FFFFD07FFFFFFFFFFF8
1FFFFD06FFFFFFFFFFF8
1FFFFF10344442FFFFF8
1FFFFFC3210113DFFFF8
1FFFFFFFD71BFFFFFFF8
0FFFFFFF313CFFFFFFF8
0DFFFFFF09FFFFFFFFF5
07FFFFFF237DFFFFFFE1
01CFFFFFC32BFFFFFF50
001BFFFFFFFFFFFFE600
00005ADFFFFFFEC81000
ENDCHAR
STARTCHAR egrave
ENCODING 232
SWIDTH 578 0
DWIDTH 19 0
BBX 20 31 -1 0
BITMAP
00000059BA8200000000
00001CFFFFFE30000000
0000AFFFFFFFA0000000
0000DFFC06FFE0000000
0000AFFF42FFF4000000
00003FFFA0CFF8000000
000009FFF28FFC000000
000001EFF93FFF100000
0000006FFFCFFF000000
0000015FFFFFFE300000
0003BFFFFFFFFFFE7000
005FFFA2000015EFFB10
02FFFE025666407FFFA0
0AFFFB08FFFFF05FFFF2
0EFFFB09FFFFF04FFFF7
1FFFFB07CCCCC04FFFF8
1FFFFB000000004FFFF8
1FFFFB05888888AFFFF8
1FFFFB09FFFFFFFFFFF8
1FFFFB09FFFFFFFFFFF8
1FFFFB09FFFFFFFFFFF8
1FFFFD04BBBBB9FFFFF8
1FFFFF40000000DFFFF8
1FFFFFFB99999BEFFFF8
1FFFFFFFFFFFFFFFFFF8
0FFFFFFFFFFFFFFFFFF8
0DFFFFFFFFFFFFFFFFF5
07FFFFFFFFFFFFFFFFE1
01CFFFFFFFFFFFFFFF50
001BFFFFFFFFFFFFE600
00005ADFFFFFFEC81000
ENDCHAR
STARTCHAR eacute
ENCODING 233
SWIDTH 578 0
DWIDTH 19 0
BBX 20 31 -1 0
BITMAP
00000000049BA8300000
000000006FFFFFFA0000
00000000EFFFFFFF6000
00000004FFF22FFF8000
00000009FFC08FFF5000
0000000DFF81EFFD0000
0000002FFF37FFF50000
0000005FFE0DFFB00000
0000005FFEDFFF200000
0000015FFFFFFD300000
0003BFFFFFFFFFFE7000
005FFFA2000015EFFB10
02FFFE025666407FFFA0
0AFFFB08FFFFF05FFFF2
0EFFFB09FFFFF04FFFF7
1FFFFB07CCCCC04FFFF8
1FFFFB000000004FFFF8
1FFFFB05888888AFFFF8
1FFFFB09FFFFFFFFFFF8
1FFFFB09FFFFFFFFFFF8
1FFFFB09FFFFFFFFFFF8
1FFFFD04BBBBB9FFFFF8
1FFFFF40000000DFFFF8
1FFFFFFB99999BEFFFF8
1FFFFFFFFFFFFFFFFFF8
0FFFFFFFFFFFFFFFFFF8
0DFFFFFFFFFFFFFFFFF5
07FFFFFFFFFFFFFFFFE1
01CFFFFFFFFFFFFFFF50
001BFFFFFFFFFFFFE600
00005ADFFFFFFEC81000
ENDCHAR
STARTCHAR ecircumflex
ENCODING 234
SWIDTH 578 0
DWIDTH 19 0
BBX 20 32 -1 0
BITMAP
00000000256400000000
00000006FFFFC1000000
0000002FFFFFFA000000
0000009FFCAFFF200000
000001FFF42AFF900000
000007FFD2A4FFE10000
00000DFF76E1DFF60000
00003FFF1BF48FFB0000
00006FFB2FF93FFE0000
00006FFFFFFFFFFE0000
00002FFFFFFFFFFA0000
0003BFFFFFFFFFFE7000
005FFFA2000015EFFB10
02FFFE025666407FFFA0
0AFFFB08FFFFF05FFFF2
0EFFFB09FFFFF04FFFF7
1FFFFB07CCCCC04FFFF8
1FFFFB000000004FFFF8
1FFFFB05888888AFFFF8
1FFFFB09FFFFFFFFFFF8
1FFFFB09FFFFFFFFFFF8
1FFFFB09FFFFFFFFFFF8
1FFFFD04BBBBB9FFFFF8
1FFFFF40000000DFFFF8
1FFFFFFB99999BEFFFF8
1FFFFFFFFFFFFFFFFFF8
0FFFFFFFFFFFFFFFFFF8
0DFFFFFFFFFFFFFFFFF5
07FFFFFFFFFFFFFFFFE1
01CFFFFFFFFFFFFFFF50
001BFFFFFFFFFFFFE600
00005ADFFFFFFEC81000
ENDCHAR
STARTCHAR edieresis
ENCODING 235
SWIDTH 578 0
DWIDTH 19 0
BBX 20 30 -1 0
BITMAP
00000000133200000000
0000006CFFFFD8100000
00000BFFFFFFFFD20000
00008FFFFFFFFFFD0000
0000EFFBBFFCBFFF4000
0001FFF00FF10DFF6000
0000FFF44FF44EFF4000
0000AFFFFFFFFFFE0000
00001EFFFFFFFFF50000
0003BFFFFFFFFFFE7000
005FFFA2000015EFFB10
02FFFE025666407FFFA0
0AFFFB08FFFFF05FFFF2
0EFFFB09FFFFF04FFFF7
1FFFFB07CCCCC04FFFF8
1FFFFB000000004FFFF8
1FFFFB05888888AFFFF8
1FFFFB09FFFFFFFFFFF8
1FFFFB09FFFFFFFFFFF8
1FFFFB09FFFFFFFFFFF8
1FFFFD04BBBBB9FFFFF8
1FFFFF40000000DFFFF8
1FFFFFFB99999BEFFFF8
1FFFFFFFFFFFFFFFFFF8
0FFFFFFFFFFFFFFFFFF8
0DFFFFFFFFFFFFFFFFF5
07FFFFFFFFFFFFFFFFE1
01CFFFFFFFFFFFFFFF50
001BFFFFFFFFFFFFE600
00005ADFFFFFFEC81000
ENDCHAR
STARTCHAR igrave
ENCODING 236
SWIDTH 578 0
DWIDTH 19 0
BBX 20 31 -1 0
BITMAP
00000049BB8300000000
00000BFFFFFF50000000
00008FFFFFFFC0000000
0000AFFE13FFF2000000
00007FFF60EFF6000000
00001EFFD0AFFB000000
000006FFF55FFE000000
000000CFFC1FFF300000
0000004FFFCFFF300000
0000014FFFFFFF300000
0003BFFFFFFFFFFE7000
005FFF9000000006FB10
02FFFFB555105559FFA0
0AFFFFFFFF41FFFFFFF2
0EFFFFFFFF41FFFFFFF7
1FFFFFFFFF41FFFFFFF8
1FFFFFFFFF41FFFFFFF8
1FFFFFFFFF41FFFFFFF8
1FFFFFFFFF41FFFFFFF8
1FFFFFFFFF41FFFFFFF8
1FFFFFFFFF41FFFFFFF8
1FFFFFFFFF41FFFFFFF8
1FFFFFB444104448FFF8
1FFFFF9111111116FFF8
1FFFFFFFFFFFFFFFFFF8
0FFFFFFFFFFFFFFFFFF8
0DFFFFFFFFFFFFFFFFF5
07FFFFFFFFFFFFFFFFE1
01CFFFFFFFFFFFFFFF50
001BFFFFFFFFFFFFE600
00005ADFFFFFFEC81000
ENDCHAR
STARTCHAR iacute
ENCODING 237
SWIDTH 578 0
DWIDTH 19 0
BBX 20 31 -1 0
BITMAP
00000000017AB9610000
000000001DFFFFFE3000
000000007FFFFFFFD000
00000000CFF909FFF000
00000001FFF41FFFC000
00000006FFE08FFF5000
0000000AFFA1EFFC0000
0000000DFF66FFF30000
0000000CFFDEFF900000
0000014BFFFFFF400000
0003BFFFFFFFFFFE7000
005FFF9000000006FB10
02FFFFB555105559FFA0
0AFFFFFFFF41FFFFFFF2
0EFFFFFFFF41FFFFFFF7
1FFFFFFFFF41FFFFFFF8
1FFFFFFFFF41FFFFFFF8
1FFFFFFFFF41FFFFFFF8
1FFFFFFFFF41FFFFFFF8
1FFFFFFFFF41FFFFFFF8
1FFFFFFFFF41FFFFFFF8
1FFFFFFFFF41FFFFFFF8
1FFFFFB444104448FFF8
1FFFFF9111111116FFF8
1FFFFFFFFFFFFFFFFFF8
0FFFFFFFFFFFFFFFFFF8
0DFFFFFFFFFFFFFFFFF5
07FFFFFFFFFFFFFFFFE1
01CFFFFFFFFFFFFFFF50
001BFFFFFFFFFFFFE600
00005ADFFFFFFEC81000
ENDCHAR
STARTCHAR icircumflex
ENCODING 238
SWIDTH 578 0
DWIDTH 19 0
BBX 20 32 -1 0
BITMAP
00000000036630000000
00000000AFFFFA000000
00000006FFFFFF600000
0000000DFFBBFFD00000
0000005FFE12EFF50000
000000BFF9568FFB0000
000002FFF3AB3FFF2000
000007FFC1EF1CFF7000
00000AFF76FF67FFA000
00000AFFFFFFFFFFB000
000007FFFFFFFFFF6000
0003BFFFFFFFFFFF7000
005FFF9000000006FB10
02FFFFB555105559FFA0
0AFFFFFFFF41FFFFFFF2
0EFFFFFFFF41FFFFFFF7
1FFFFFFFFF41FFFFFFF8
1FFFFFFFFF41FFFFFFF8
1FFFFFFFFF41FFFFFFF8
1FFFFFFFFF41FFFFFFF8
1FFFFFFFFF41FFFFFFF8
1FFFFFFFFF41FFFFFFF8
1FFFFFFFFF41FFFFFFF8
1FFFFFB444104448FFF8
1FFFFF9111111116FFF8
1FFFFFFFFFFFFFFFFFF8
0FFFFFFFFFFFFFFFFFF8
0DFFFFFFFFFFFFFFFFF5
07FFFFFFFFFFFFFFFFE1
01CFFFFFFFFFFFFFFF50
001BFFFFFFFFFFFFE600
00005ADFFFFFFEC81000
ENDCHAR
STARTCHAR idieresis
ENCODING 239
SWIDTH 578 0
DWIDTH 19 0
BBX 20 30 -1 0
BITMAP
00000000013310000000
00000006CFFFFD710000
000001BFFFFFFFFD2000
000009FFFFFFFFFFC000
00001FFFBCFFBBFFF300
00002FFD01FF00FFF500
00001FFE44FF44FFF300
00000BFFFFFFFFFFD000
000003FFFFFFFFFF4000
0003BFFFFFFFFFFF7000
005FFF9000000006FB10
02FFFFB555105559FFA0
0AFFFFFFFF41FFFFFFF2
0EFFFFFFFF41FFFFFFF7
1FFFFFFFFF41FFFFFFF8
1FFFFFFFFF41FFFFFFF8
1FFFFFFFFF41FFFFFFF8
1FFFFFFFFF41FFFFFFF8
1FFFFFFFFF41FFFFFFF8
1FFFFFFFFF41FFFFFFF8
1FFFFFFFFF41FFFFFFF8
1FFFFFB444104448FFF8
1FFFFF9111111116FFF8
1FFFFFFFFFFFFFFFFFF8
0FFFFFFFFFFFFFFFFFF8
0DFFFFFFFFFFFFFFFFF5
07FFFFFFFFFFFFFFFFE1
01CFFFFFFFFFFFFFFF50
001BFFFFFFFFFFFFE600
00005ADFFFFFFEC81000
ENDCHAR
STARTCHAR eth
ENCODING 240
SWIDTH 578 0
DWIDTH 19 0
BBX 20 22 -1 0
BITMAP
00000146666665300000
0003BFFFFFFFFFFE7000
005FFF200000013DFB10
02FFFF2155555404FFA0
0AFFFF24FFFFFF32FFF2
0EFFFF24FFFFFF41FFF7
1FFFFF24FFFFFF41FFF8
1FFFFC23CFFFFF41FFF8
1FFFF2012EFFFF41FFF8
1FFFFF24FFFFFF41FFF8
1FFFFF24FFFFFF41FFF8
1FFFFF24FFFFFF41FFF8
1FFFFF24FFFFFF32FFF8
1FFFFF2144444304FFF8
1FFFFF311111124EFFF8
1FFFFFFFFFFFFFFFFFF8
0FFFFFFFFFFFFFFFFFF8
0DFFFFFFFFFFFFFFFFF5
07FFFFFFFFFFFFFFFFE1
01CFFFFFFFFFFFFFFF50
001BFFFFFFFFFFFFE600
00005ADFFFFFFEC81000
ENDCHAR
STARTCHAR ntilde
ENCODING 241
SWIDTH 578 0
DWIDTH 19 0
BBX 20 32 -1 0
BITMAP
00000000134310000000
0000005CFFFFFA300000
00000AFFFFFFFFF60000
00008FFFFFFFFFFF5000
0002FFFFFFFFFFFFD000
0006FFFFFFFFFFFFF200
0008FFFECEFF9BFFF400
0007FFE1005906FFF300
0003FFB0AA300BFFE000
0000BFFEFFFEEFFF7000
00001EFFFFFFFFFB0000
0003BFFFFFFFFFFE7000
005FFF531000016FFB10
02FFFF0156665309FFA0
0AFFFF05FFFFFD07FFF2
0EFFFF05FFFFFD07FFF7
1FFFFF05FFFFFD07FFF8
1FFFFF05FFFFFD07FFF8
1FFFFF05FFFFFD07FFF8
1FFFFF05FFFFFD07FFF8
1FFFFF05FFFFFD07FFF8
1FFFFF05FFFFFD07FFF8
1FFFFF05FFFFFD07FFF8
1FFFFF05FFFFFD07FFF8
1FFFFF25FFFFFE17FFF8
1FFFFFFFFFFFFFFFFFF8
0FFFFFFFFFFFFFFFFFF8
0DFFFFFFFFFFFFFFFFF5
07FFFFFFFFFFFFFFFFE1
01CFFFFFFFFFFFFFFF50
001BFFFFFFFFFFFFE600
00005ADFFFFFFEC81000
ENDCHAR
STARTCHAR oacute
ENCODING 243
SWIDTH 578 0
DWIDTH 19 0
BBX 20 31 -1 0
BITMAP
00000000049BA8300000
000000006FFFFFFA0000
00000000DFFFFFFF6000
00000003FFF21EFF9000
00000008FFD07FFF6000
0000000CFF80EFFD0000
0000001FFF46FFF50000
0000004FFE0DFFB00000
0000004FFEDFFF300000
0000015FFFFFFE300000
0003BFFFFFFFFFFE7000
005FFFD31000014EFB10
02FFFF4045555405FFA0
0AFFFF24FFFFFF32FFF2
0EFFFF14FFFFFF32FFF7
1FFFFF14FFFFFF32FFF8
1FFFFF14FFFFFF32FFF8
1FFFFF14FFFFFF32FFF8
1FFFFF14FFFFFF32FFF8
1FFFFF14FFFFFF32FFF8
1FFFFF14FFFFFF32FFF8
1FFFFF23FFFFFF22FFF8
1FFFFF4034444305FFF8
1FFFFFE42111124EFFF8
1FFFFFFFFFFFFFFFFFF8
0FFFFFFFFFFFFFFFFFF8
0DFFFFFFFFFFFFFFFFF5
07FFFFFFFFFFFFFFFFE1
01CFFFFFFFFFFFFFFF50
001BFFFFFFFFFFFFE600
00005ADFFFFFFEC81000
ENDCHAR
STARTCHAR ocircumflex
ENCODING 244
SWIDTH 578 0
DWIDTH 19 0
BBX 20 32 -1 0
BITMAP
00000000036630000000
00000000AFFFF9000000
00000007FFFFFF500000
0000000DFFBBFFC00000
0000005FFE21EFF40000
000000CFF8659FFA0000
000002FFF2BA3FFF1000
000007FFC1FE0DFF6000
00000BFF76FF58FFA000
00000BFFFFFFFFFFA000
000008FFFFFFFFFF5000
0003BFFFFFFFFFFF7000
005FFFD31000014EFB10
02FFFF4045555405FFA0
0AFFFF24FFFFFF32FFF2
0EFFFF14FFFFFF32FFF7
1FFFFF14FFFFFF32FFF8
1FFFFF14FFFFFF32FFF8
1FFFFF14FFFFFF32FFF8
1FFFFF14FFFFFF32FFF8
1FFFFF14FFFFFF32FFF8
1FFFFF14FFFFFF32FFF8
1FFFFF23FFFFFF22FFF8
1FFFFF4034444305FFF8
1FFFFFE42111124EFFF8
1FFFFFFFFFFFFFFFFFF8
0FFFFFFFFFFFFFFFFFF8
0DFFFFFFFFFFFFFFFFF5
07FFFFFFFFFFFFFFFFE1
01CFFFFFFFFFFFFFFF50
001BFFFFFFFFFFFFE600
00005ADFFFFFFEC81000
ENDCHAR
STARTCHAR otilde
ENCODING 245
SWIDTH 578 0
DWIDTH 19 0
BBX 20 31 -1 0
BITMAP
00000000034420000000
00000029EFFFFD700000
000004EFFFFFFFFC1000
00002EFFFFFFFFFFB000
00009FFFFFFFFFFFF400
0000EFFFFFFFFFFFF900
0001FFFFCDFFC9FFFB00
0000FFF6002930FFFA00
0000BFF24D6104FFF600
00004FFFFFFFFFFFD100
0003BFFFFFFFFFFFA000
005FFFD31000014EFB10
02FFFF4045555405FFA0
0AFFFF24FFFFFF32FFF2
0EFFFF14FFFFFF32FFF7
1FFFFF14FFFFFF32FFF8
1FFFFF14FFFFFF32FFF8
1FFFFF14FFFFFF32FFF8
1FFFFF14FFFFFF32FFF8
1FFFFF14FFFFFF32FFF8
1FFFFF14FFFFFF32FFF8
1FFFFF23FFFFFF22FFF8
1FFFFF4034444305FFF8
1FFFFFE42111124EFFF8
1FFFFFFFFFFFFFFFFFF8
0FFFFFFFFFFFFFFFFFF8
0DFFFFFFFFFFFFFFFFF5
07FFFFFFFFFFFFFFFFE1
01CFFFFFFFFFFFFFFF50
001BFFFFFFFFFFFFE600
00005ADFFFFFFEC81000
ENDCHAR
STARTCHAR odieresis
ENCODING 246
SWIDTH 578 0
DWIDTH 19 0
BBX 20 30 -1 0
BITMAP
00000000013310000000
00000006DFFFFD710000
000001CFFFFFFFFD2000
00000AFFFFFFFFFFB000
00001FFFBCFFBBFFF300
00003FFD01FE00FFF400
00001FFD45FE44FFF300
00000BFFFFFFFFFFD000
000004FFFFFFFFFE3000
0003BFFFFFFFFFFF7000
005FFFD31000014EFB10
02FFFF4045555405FFA0
0AFFFF24FFFFFF32FFF2
0EFFFF14FFFFFF32FFF7
1FFFFF14FFFFFF32FFF8
1FFFFF14FFFFFF32FFF8
1FFFFF14FFFFFF32FFF8
1FFFFF14FFFFFF32FFF8
1FFFFF14FFFFFF32FFF8
1FFFFF14FFFFFF32FFF8
1FFFFF23FFFFFF22FFF8
1FFFFF4034444305FFF8
1FFFFFE42111124EFFF8
1FFFFFFFFFFFFFFFFFF8
0FFFFFFFFFFFFFFFFFF8
0DFFFFFFFFFFFFFFFFF5
07FFFFFFFFFFFFFFFFE1
01CFFFFFFFFFFFFFFF50
001BFFFFFFFFFFFFE600
00005ADFFFFFFEC81000
ENDCHAR
STARTCHAR divide
ENCODING 247
SWIDTH 428 0
DWIDTH 14 0
BBX 15 22 -1 0
BITMAP
0000014654000000
0003BFFFFFE81000
005FFFFFFFFFD200
02FFFFD46FFFFC00
0AFFFFC02FFFFF50
0EFFFFEABFFFFFA0
1FFFE000003FFFB0
1FFFE555557FFFC0
1FFFFFE78FFFFFC0
1FFFFFC02FFFFFC0
1FFFFFE89FFFFFC0
1FFFFFFFFFFFFFC0
1FFFFFFFFFFFFFC0
1FFFFFFFFFFFFFC0
1FFFFFFFFFFFFFC0
1FFFFFFFFFFFFFC0
0FFFFFFFFFFFFFB0
0DFFFFFFFFFFFF80
07FFFFFFFFFFFF30
01CFFFFFFFFFF800
001BFFFFFFFF8000
00005ADFED920000
ENDCHAR
STARTCHAR oslash
ENCODING 248
SWIDTH 578 0
DWIDTH 19 0
BBX 20 22 -1 0
BITMAP
00000146666665300000
0003BFFFFFFFFFFE7000
005FFFB20000015EFB10
02FFFF1155555007FFA0
0AFFFE06FFFF8005FFF2
0EFFFD07FFFD0714FFF7
1FFFFD07FFF32F14FFF8
1FFFFD07FF80CF14FFF8
1FFFFD07FD06FF14FFF8
1FFFFD07F32EFF14FFF8
1FFFFD0780BFFF14FFF8
1FFFFD0405FFFF14FFF8
1FFFFE001EFFFE05FFF8
1FFFFF2013333108FFF8
1FFFFFD53222237FFFF8
1FFFFFFFFFFFFFFFFFF8
0FFFFFFFFFFFFFFFFFF8
0DFFFFFFFFFFFFFFFFF5
07FFFFFFFFFFFFFFFFE1
01CFFFFFFFFFFFFFFF50
001BFFFFFFFFFFFFE600
00005ADFFFFFFEC81000
ENDCHAR
STARTCHAR ugrave
ENCODING 249
SWIDTH 578 0
DWIDTH 19 0
BBX 20 31 -1 0
BITMAP
00000049BB8300000000
00000BFFFFFF50000000
00008FFFFFFFC0000000
0000AFFE13FFF2000000
00007FFF60EFF6000000
00001EFFD0AFFB000000
000006FFF55FFE000000
000000CFFC1FFF300000
0000004FFFCFFF300000
0000014FFFFFFF300000
0003BFFFFFFFFFFE7000
005FFF06FFFFFF23FB10
02FFFF06FFFFFF23FFA0
0AFFFF06FFFFFF23FFF2
0EFFFF06FFFFFF23FFF7
1FFFFF06FFFFFF23FFF8
1FFFFF06FFFFFF23FFF8
1FFFFF06FFFFFF23FFF8
1FFFFF06FFFFFF23FFF8
1FFFFF06FFFFFF23FFF8
1FFFFF06FFFFFF23FFF8
1FFFFF04FFFFFF14FFF8
1FFFFF3034444206FFF8
1FFFFFD42111125EFFF8
1FFFFFFFFFFFFFFFFFF8
0FFFFFFFFFFFFFFFFFF8
0DFFFFFFFFFFFFFFFFF5
07FFFFFFFFFFFFFFFFE1
01CFFFFFFFFFFFFFFF50
001BFFFFFFFFFFFFE600
00005ADFFFFFFEC81000
ENDCHAR
STARTCHAR uacute
ENCODING 250
SWIDTH 578 0
DWIDTH 19 0
BBX 20 31 -1 0
BITMAP
00000000017AB9610000
000000001DFFFFFE3000
000000007FFFFFFFD000
00000000CFF909FFF000
00000001FFF41FFFC000
00000006FFE08FFF5000
0000000AFFA1EFFC0000
0000000DFF66FFF30000
0000000CFFDEFF900000
0000014BFFFFFF400000
0003BFFFFFFFFFFE7000
005FFF06FFFFFF23FB10
02FFFF06FFFFFF23FFA0
0AFFFF06FFFFFF23FFF2
0EFFFF06FFFFFF23FFF7
1FFFFF06FFFFFF23FFF8
1FFFFF06FFFFFF23FFF8
1FFFFF06FFFFFF23FFF8
1FFFFF06FFFFFF23FFF8
1FFFFF06FFFFFF23FFF8
1FFFFF06FFFFFF23FFF8
1FFFFF04FFFFFF14FFF8
1FFFFF3034444206FFF8
1FFFFFD42111125EFFF8
1FFFFFFFFFFFFFFFFFF8
0FFFFFFFFFFFFFFFFFF8
0DFFFFFFFFFFFFFFFFF5
07FFFFFFFFFFFFFFFFE1
01CFFFFFFFFFFFFFFF50
001BFFFFFFFFFFFFE600
00005ADFFFFFFEC81000
ENDCHAR
STARTCHAR ucircumflex
ENCODING 251
SWIDTH 578 0
DWIDTH 19 0
BBX 20 32 -1 0
BITMAP
00000000036630000000
00000000AFFFFA000000
00000006FFFFFF600000
0000000DFFBBFFD00000
0000005FFE12EFF50000
000000BFF9568FFB0000
000002FFF3AB3FFF2000
000007FFC1EF1CFF7000
00000AFF76FF67FFA000
00000AFFFFFFFFFFB000
000007FFFFFFFFFF6000
0003BFFFFFFFFFFF7000
005FFF06FFFFFF23FB10
02FFFF06FFFFFF23FFA0
0AFFFF06FFFFFF23FFF2
0EFFFF06FFFFFF23FFF7
1FFFFF06FFFFFF23FFF8
1FFFFF06FFFFFF23FFF8
1FFFFF06FFFFFF23FFF8
1FFFFF06FFFFFF23FFF8
1FFFFF06FFFFFF23FFF8
1FFFFF06FFFFFF23FFF8
1FFFFF04FFFFFF14FFF8
1FFFFF3034444206FFF8
1FFFFFD42111125EFFF8
1FFFFFFFFFFFFFFFFFF8
0FFFFFFFFFFFFFFFFFF8
0DFFFFFFFFFFFFFFFFF5
07FFFFFFFFFFFFFFFFE1
01CFFFFFFFFFFFFFFF50
001BFFFFFFFFFFFFE600
00005ADFFFFFFEC81000
ENDCHAR
STARTCHAR udieresis
ENCODING 252
SWIDTH 578 0
DWIDTH 19 0
BBX 20 30 -1 0
BITMAP
00000000013310000000
00000006CFFFFD710000
000001BFFFFFFFFD2000
000009FFFFFFFFFFC000
00001FFFBCFFBBFFF300
00002FFD01FF00FFF500
00001FFE44FF44FFF300
00000BFFFFFFFFFFD000
000003FFFFFFFFFF4000
0003BFFFFFFFFFFF7000
005FFF06FFFFFF23FB10
02FFFF06FFFFFF23FFA0
0AFFFF06FFFFFF23FFF2
0EFFFF06FFFFFF23FFF7
1FFFFF06FFFFFF23FFF8
1FFFFF06FFFFFF23FFF8
1FFFFF06FFFFFF23FFF8
1FFFFF06FFFFFF23FFF8
1FFFFF06FFFFFF23FFF8
1FFFFF06FFFFFF23FFF8
1FFFFF04FFFFFF14FFF8
1FFFFF3034444206FFF8
1FFFFFD42111125EFFF8
1FFFFFFFFFFFFFFFFFF8
0FFFFFFFFFFFFFFFFFF8
0DFFFFFFFFFFFFFFFFF5
07FFFFFFFFFFFFFFFFE1
01CFFFFFFFFFFFFFFF50
001BFFFFFFFFFFFFE600
00005ADFFFFFFEC81000
ENDCHAR
STARTCHAR yacute
ENCODING 253
SWIDTH 578 0
DWIDTH 19 0
BBX 20 31 -1 0
BITMAP
00000000017AB9500000
000000002EFFFFFD3000
000000008FFFFFFFC000
00000000DFF70AFFE000
00000003FFF32FFFB000
00000007FFD09FFF4000
0000000BFF91FFFA0000
0000000EFF48FFF20000
0000000EFFDEFF800000
0000014DFFFFFF400000
0003BFFFFFFFFFFE7000
005FFF609FFFF907FB10
02FFFFD04FFFF30DFFA0
0AFFFFF40DFFC05FFFF2
0EFFFFFA07FF60BFFFF7
1FFFFFFF21FE13FFFFF8
1FFFFFFF80A909FFFFF8
1FFFFFFFE0421EFFFFF8
1FFFFFFFF6007FFFFFF8
1FFFFFFFFC00DFFFFFF8
1FFFFFFFFF23FFFFFFF8
1FFFFFFFFF23FFFFFFF8
1FFFFFFFFF23FFFFFFF8
1FFFFFFFFF34FFFFFFF8
1FFFFFFFFFFFFFFFFFF8
0FFFFFFFFFFFFFFFFFF8
0DFFFFFFFFFFFFFFFFF5
07FFFFFFFFFFFFFFFFE1
01CFFFFFFFFFFFFFFF50
001BFFFFFFFFFFFFE600
00005ADFFFFFFEC81000
ENDCHAR
STARTCHAR thorn
ENCODING 254
SWIDTH 578 0
DWIDTH 19 0
BBX 20 22 -1 0
BITMAP
00000146666665300000
0003BFE8BFFFFFFE7000
005FFFD07FFFFFFFFB10
02FFFFD07FFFFFFFFFA0
0AFFFFD0244446BFFFF2
0EFFFFD00111100CFFF7
1FFFFFD07FFFFB08FFF8
1FFFFFD07FFFFD07FFF8
1FFFFFD07FFFFD07FFF8
1FFFFFD05AAA9609FFF8
1FFFFFD00000002EFFF8
1FFFFFD05AAAACEFFFF8
1FFFFFD07FFFFFFFFFF8
1FFFFFD07FFFFFFFFFF8
1FFFFFE18FFFFFFFFFF8
1FFFFFFFFFFFFFFFFFF8
0FFFFFFFFFFFFFFFFFF8
0DFFFFFFFFFFFFFFFFF5
07FFFFFFFFFFFFFFFFE1
01CFFFFFFFFFFFFFFF50
001BFFFFFFFFFFFFE600
00005ADFFFFFFEC81000
ENDCHAR
STARTCHAR ydieresis
ENCODING 255
SWIDTH 578 0
DWIDTH 19 0
BBX 20 30 -1 0
BITMAP
00000000013310000000
00000007DFFFFD700000
000001CFFFFFFFFC1000
00000BFFFFFFFFFFA000
00002FFEBCFFBCFFF200
00004FFC02FD01FFF400
00002FFD45FE44FFF200
00000CFFFFFFFFFFC000
000004FFFFFFFFFE3000
0003BFFFFFFFFFFF7000
005FFF609FFFF907FB10
02FFFFD04FFFF30DFFA0
0AFFFFF40DFFC05FFFF2
0EFFFFFA07FF60BFFFF7
1FFFFFFF21FE13FFFFF8
1FFFFFFF80A909FFFFF8
1FFFFFFFE0421EFFFFF8
1FFFFFFFF6007FFFFFF8
1FFFFFFFFC00DFFFFFF8
1FFFFFFFFF23FFFFFFF8
1FFFFFFFFF23FFFFFFF8
1FFFFFFFFF23FFFFFFF8
1FFFFFFFFF34FFFFFFF8
1FFFFFFFFFFFFFFFFFF8
0FFFFFFFFFFFFFFFFFF8
0DFFFFFFFFFFFFFFFFF5
07FFFFFFFFFFFFFFFFE1
01CFFFFFFFFFFFFFFF50
001BFFFFFFFFFFFFE600
00005ADFFFFFFEC81000
ENDCHAR
STARTCHAR Amacron
ENCODING 256
SWIDTH 578 0
DWIDTH 19 0
BBX 20 30 -1 0
BITMAP
00000000145430000000
0000005CFFFFFE910000
00000AFFFFFFFFFE3000
00008FFFFFFFFFFFE100
0001EFFFFFFFFFFFF700
0002FFF9111119FFF900
0001FFFA44444AFFF800
0000CFFFFFFFFFFFF300
00003FFFFFFFFFFF9000
0003BFFFFFFFFFFF7000
005FFFFA310025EFFB10
02FFFFD01455306FFFA0
0AFFFFB09FFFF13FFFF2
0EFFFFA0AFFFF22FFFF7
1FFFFF80CFFFF40FFFF8
1FFFFF60DFFFF60EFFF8
1FFFFF509AAAA50CFFF8
1FFFFF300000000BFFF8
1FFFFF12DDDDD909FFF8
1FFFFF04FFFFFC07FFF8
1FFFFD05FFFFFD06FFF8
1FFFFB06FFFFFE04FFF8
1FFFFA18FFFFFF24FFF8
1FFFFFFFFFFFFFFFFFF8
0FFFFFFFFFFFFFFFFFF8
0DFFFFFFFFFFFFFFFFF5
07FFFFFFFFFFFFFFFFE1
01CFFFFFFFFFFFFFFF50
001BFFFFFFFFFFFFE600
00005ADFFFFFFEC81000
ENDCHAR
STARTCHAR amacron
ENCODING 257
SWIDTH 578 0
DWIDTH 19 0
BBX 20 30 -1 0
BITMAP
00000000135531000000
0000003AFFFFFFA30000
000006FFFFFFFFFF7000
00004FFFFFFFFFFFF400
0000AFFFFFFFFFFFFB00
0000DFFD111114FFFE00
0000CFFD444447FFFC00
00007FFFFFFFFFFFF800
00001EFFFFFFFFFFD100
0003BFFFFFFFFFFF9000
005FFFB2000014EFFB10
02FFFFD35666307FFFA0
0AFFFFFFFFFFF06FFFF2
0EFFFFFFFFFFF16FFFF7
1FFFFFFFFFFFF16FFFF8
1FFFFFFFFFFFF16FFFF8
1FFFFFA42222306FFFF8
1FFFFC013333206FFFF8
1FFFFA0AFFFFF16FFFF8
1FFFF90BFFFFF16FFFF8
1FFFFA0AFFFFF16FFFF8
1FFFFC014444306FFFF8
1FFFFF931111337FFFF8
1FFFFFFFFFFFFFFFFFF8
0FFFFFFFFFFFFFFFFFF8
0DFFFFFFFFFFFFFFFFF5
07FFFFFFFFFFFFFFFFE1
01CFFFFFFFFFFFFFFF50
001BFFFFFFFFFFFFE600
00005ADFFFFFFEC81000
ENDCHAR
STARTCHAR Abreve
ENCODING 258
SWIDTH 578 0
DWIDTH 19 0
BBX 20 30 -1 0
BITMAP
00000000145430000000
0000005CFFFFFE910000
00000AFFFFFFFFFE3000
00008FFFFFFFFFFFE100
0001EFFFFFFFFFFFF700
0002FFFE5CFF79FFF900
0001FFFF049708FFF800
0000CFFFA2015EFFF300
00003FFFFFFFFFFF9000
0003BFFFFFFFFFFF7000
005FFFFA310025EFFB10
02FFFFD01455306FFFA0
0AFFFFB09FFFF13FFFF2
0EFFFFA0AFFFF22FFFF7
1FFFFF80CFFFF40FFFF8
1FFFFF60DFFFF60EFFF8
1FFFFF509AAAA50CFFF8
1FFFFF300000000BFFF8
1FFFFF12DDDDD909FFF8
1FFFFF04FFFFFC07FFF8
1FFFFD05FFFFFD06FFF8
1FFFFB06FFFFFE04FFF8
1FFFFA18FFFFFF24FFF8
1FFFFFFFFFFFFFFFFFF8
0FFFFFFFFFFFFFFFFFF8
0DFFFFFFFFFFFFFFFFF5
07FFFFFFFFFFFFFFFFE1
01CFFFFFFFFFFFFFFF50
001BFFFFFFFFFFFFE600
00005ADFFFFFFEC81000
ENDCHAR
STARTCHAR abreve
ENCODING 259
SWIDTH 578 0
DWIDTH 19 0
BBX 20 30 -1 0
BITMAP
00000000135531000000
0000003AFFFFFFA30000
000006FFFFFFFFFF7000
00004FFFFFFFFFFFF400
0000AFFFFFFFFFFFFB00
0000DFFF79FFA6FFFE00
0000CFFF528823FFFC00
00007FFFD3003CFFF800
00001EFFFFFFFFFFD100
0003BFFFFFFFFFFF9000
005FFFB2000014EFFB10
02FFFFD35666307FFFA0
0AFFFFFFFFFFF06FFFF2
0EFFFFFFFFFFF16FFFF7
1FFFFFFFFFFFF16FFFF8
1FFFFFFFFFFFF16FFFF8
1FFFFFA42222306FFFF8
1FFFFC013333206FFFF8
1FFFFA0AFFFFF16FFFF8
1FFFF90BFFFFF16FFFF8
1FFFFA0AFFFFF16FFFF8
1FFFFC014444306FFFF8
1FFFFF931111337FFFF8
1FFFFFFFFFFFFFFFFFF8
0FFFFFFFFFFFFFFFFFF8
0DFFFFFFFFFFFFFFFFF5
07FFFFFFFFFFFFFFFFE1
01CFFFFFFFFFFFFFFF50
001BFFFFFFFFFFFFE600
00005ADFFFFFFEC81000
ENDCHAR
STARTCHAR Aogonek
ENCODING 260
SWIDTH 578 0
DWIDTH 19 0
BBX 20 22 -1 0
BITMAP
00000146666665300000
0003BFFFFFFFFFFE7000
005FFFFA310025EFFB10
02FFFFD01455306FFFA0
0AFFFFB09FFFF13FFFF2
0EFFFFA0AFFFF22FFFF7
1FFFFF80CFFFF40FFFF8
1FFFFF60DFFFF60EFFF8
1FFFFF509AAAA50CFFF8
1FFFFF300000000BFFF8
1FFFFF12DDDDD909FFF8
1FFFFF04FFFFFC07FFF8
1FFFFD05FFFFFD06FFF8
1FFFFB06FFFFFE04FFF8
1FFFFA18FFFFFF13FFF8
1FFFFFFFFFFFF91BFFF8
0FFFFFFFFFFFA0AFFFF8
0DFFFFFFFFFF72FFFFF5
07FFFFFFFFFF9069FFE1
01CFFFFFFFFFF624FF50
001BFFFFFFFFFFFFE600
00005ADFFFFFFEC81000
ENDCHAR
STARTCHAR aogonek
ENCODING 261
SWIDTH 578 0
DWIDTH 19 0
BBX 20 22 -1 0
BITMAP
00000146666665300000
0003BFFFFFFFFFFE7000
005FFFB2000014EFFB10
02FFFFD35666307FFFA0
0AFFFFFFFFFFF04FFFF2
0EFFFFFFFFFFF14FFFF7
1FFFFFFFFFFFF14FFFF8
1FFFFFFFFFFFF14FFFF8
1FFFFFA42222304FFFF8
1FFFFC013333204FFFF8
1FFFFA0AFFFFF14FFFF8
1FFFF90BFFFFF14FFFF8
1FFFFA0AFFFFF14FFFF8
1FFFFC014444304FFFF8
1FFFFF931110237FFFF8
1FFFFFFFFB28FFFFFFF8
0FFFFFFFD16FFFFFFFF8
0DFFFFFFA0DFFFFFFFF5
07FFFFFFC057FFFFFFE1
01CFFFFFF831FFFFFF50
001BFFFFFFFFFFFFE600
00005ADFFFFFFEC81000
ENDCHAR
STARTCHAR Cacute
ENCODING 262
SWIDTH 578 0
DWIDTH 19 0
BBX 20 31 -1 0
BITMAP
00000000017ABA610000
000000000CFFFFFE4000
000000005FFFFFFFE000
00000000AFFA08FFF200
00000001EFF61EFFD000
00000004FFF16FFF7000
00000008FFC0DFFD0000
0000000CFF75FFF40000
0000000BFFDEFFB00000
0000014AFFFFFF500000
0003BFFFFFFFFFFE7000
005FFFB2000002DFFB10
02FFFF11566653EFFFA0
0AFFFD06FFFFFFFFFFF2
0EFFFD07FFFFFFFFFFF7
1FFFFD07FFFFFFFFFFF8
1FFFFD07FFFFFFFFFFF8
1FFFFD07FFFFFFFFFFF8
1FFFFD07FFFFFFFFFFF8
1FFFFD07FFFFFFFFFFF8
1FFFFD07FFFFFFFFFFF8
1FFFFD06FFFFFFFFFFF8
1FFFFF10344442FFFFF8
1FFFFFC3211113DFFFF8
1FFFFFFFFFFFFFFFFFF8
0FFFFFFFFFFFFFFFFFF8
0DFFFFFFFFFFFFFFFFF5
07FFFFFFFFFFFFFFFFE1
01CFFFFFFFFFFFFFFF50
001BFFFFFFFFFFFFE600
00005ADFFFFFFEC81000
ENDCHAR
STARTCHAR cacute
ENCODING 263
SWIDTH 578 0
DWIDTH 19 0
BBX 20 31 -1 0
BITMAP
00000000017AB9610000
000000001DFFFFFE3000
000000007FFFFFFFD000
00000000CFF80AFFF000
00000002FFF42FFFC000
00000006FFE08FFF5000
0000000AFFA1EFFB0000
0000000DFF57FFF30000
0000000DFFDEFF900000
0000014CFFFFFF400000
0003BFFFFFFFFFFE7000
005FFFB2000002DFFB10
02FFFF11566653EFFFA0
0AFFFD06FFFFFFFFFFF2
0EFFFD07FFFFFFFFFFF7
1FFFFD07FFFFFFFFFFF8
1FFFFD07FFFFFFFFFFF8
1FFFFD07FFFFFFFFFFF8
1FFFFD07FFFFFFFFFFF8
1FFFFD07FFFFFFFFFFF8
1FFFFD07FFFFFFFFFFF8
1FFFFD06FFFFFFFFFFF8
1FFFFF10344442FFFFF8
1FFFFFC3211113DFFFF8
1FFFFFFFFFFFFFFFFFF8
0FFFFFFFFFFFFFFFFFF8
0DFFFFFFFFFFFFFFFFF5
07FFFFFFFFFFFFFFFFE1
01CFFFFFFFFFFFFFFF50
001BFFFFFFFFFFFFE600
00005ADFFFFFFEC81000
ENDCHAR
STARTCHAR Ccircumflex
ENCODING 264
SWIDTH 578 0
DWIDTH 19 0
BBX 20 32 -1 0
BITMAP
00000000046520000000
00000002DFFFF6000000
0000000AFFFFFF200000
0000002FFFACFF900000
0000009FFA23FFE10000
000001EFF592DFF70000
000006FFE1E67FFD0000
00000BFF84FB1FFF3000
00000EFF39FF2BFF6000
00000EFFFFFFFFFF6000
00000BFFFFFFFFFF2000
0003BFFFFFFFFFFF7000
005FFFB2000002DFFB10
02FFFF11566653EFFFA0
0AFFFD06FFFFFFFFFFF2
0EFFFD07FFFFFFFFFFF7
1FFFFD07FFFFFFFFFFF8
1FFFFD07FFFFFFFFFFF8
1FFFFD07FFFFFFFFFFF8
1FFFFD07FFFFFFFFFFF8
1FFFFD07FFFFFFFFFFF8
1FFFFD07FFFFFFFFFFF8
1FFFFD06FFFFFFFFFFF8
1FFFFF10344442FFFFF8
1FFFFFC3211113DFFFF8
1FFFFFFFFFFFFFFFFFF8
0FFFFFFFFFFFFFFFFFF8
0DFFFFFFFFFFFFFFFFF5
07FFFFFFFFFFFFFFFFE1
01CFFFFFFFFFFFFFFF50
001BFFFFFFFFFFFFE600
00005ADFFFFFFEC81000
ENDCHAR
STARTCHAR ccircumflex
ENCODING 265
SWIDTH 578 0
DWIDTH 19 0
BBX 20 32 -1 0
BITMAP
00000000046510000000
00000002DFFFF5000000
0000000BFFFFFE100000
0000003FFEADFF800000
000000AFFA24FFE10000
000001FFF4A1DFF60000
000007FFD1F58FFC0000
00000CFF75FA2FFF2000
00000FFF3AFE2CFF5000
00000FFFFFFFFFFF5000
00000CFFFFFFFFFE1000
0003BFFFFFFFFFFF7000
005FFFB2000002DFFB10
02FFFF11566653EFFFA0
0AFFFD06FFFFFFFFFFF2
0EFFFD07FFFFFFFFFFF7
1FFFFD07FFFFFFFFFFF8
1FFFFD07FFFFFFFFFFF8
1FFFFD07FFFFFFFFFFF8
1FFFFD07FFFFFFFFFFF8
1FFFFD07FFFFFFFFFFF8
1FFFFD07FFFFFFFFFFF8
1FFFFD06FFFFFFFFFFF8
1FFFFF10344442FFFFF8
1FFFFFC3211113DFFFF8
1FFFFFFFFFFFFFFFFFF8
0FFFFFFFFFFFFFFFFFF8
0DFFFFFFFFFFFFFFFFF5
07FFFFFFFFFFFFFFFFE1
01CFFFFFFFFFFFFFFF50
001BFFFFFFFFFFFFE600
00005ADFFFFFFEC81000
ENDCHAR
STARTCHAR Cdotaccent
ENCODING 266
SWIDTH 578 0
DWIDTH 19 0
BBX 20 30 -1 0
BITMAP
00000001355310000000
000003AFFFFFFA300000
00007FFFFFFFFFF60000
0004FFFFFFFFFFFF4000
000BFFFFFFFFFFFFB000
000DFFFFE01FFFFFD000
000DFFFFE01FFFFFD000
0009FFFFFFFFFFFF9000
0004FFFFFFFFFFFF3000
0003FFFFFFFFFFFF7000
005FFFB2000002DFFB10
02FFFF11566653EFFFA0
0AFFFD06FFFFFFFFFFF2
0EFFFD07FFFFFFFFFFF7
1FFFFD07FFFFFFFFFFF8
1FFFFD07FFFFFFFFFFF8
1FFFFD07FFFFFFFFFFF8
1FFFFD07FFFFFFFFFFF8
1FFFFD07FFFFFFFFFFF8
1FFFFD07FFFFFFFFFFF8
1FFFFD06FFFFFFFFFFF8
1FFFFF10344442FFFFF8
1FFFFFC3211113DFFFF8
1FFFFFFFFFFFFFFFFFF8
0FFFFFFFFFFFFFFFFFF8
0DFFFFFFFFFFFFFFFFF5
07FFFFFFFFFFFFFFFFE1
01CFFFFFFFFFFFFFFF50
001BFFFFFFFFFFFFE600
00005ADFFFFFFEC81000
ENDCHAR
STARTCHAR cdotaccent
ENCODING 267
SWIDTH 578 0
DWIDTH 19 0
BBX 20 30 -1 0
BITMAP
00000000345410000000
0000019EFFFFFC500000
00003EFFFFFFFFFA0000
0001EFFFFFFFFFFF8000
0006FFFFFFFFFFFFE100
0009FFFFF30BFFFFF300
0008FFFFF30BFFFFF200
0005FFFFFFFFFFFFE000
0000EFFFFFFFFFFF8000
0003FFFFFFFFFFFF8000
005FFFB2000002DFFB10
02FFFF11566653EFFFA0
0AFFFD06FFFFFFFFFFF2
0EFFFD07FFFFFFFFFFF7
1FFFFD07FFFFFFFFFFF8
1FFFFD07FFFFFFFFFFF8
1FFFFD07FFFFFFFFFFF8
1FFFFD07FFFFFFFFFFF8
1FFFFD07FFFFFFFFFFF8
1FFFFD07FFFFFFFFFFF8
1FFFFD06FFFFFFFFFFF8
1FFFFF10344442FFFFF8
1FFFFFC3211113DFFFF8
1FFFFFFFFFFFFFFFFFF8
0FFFFFFFFFFFFFFFFFF8
0DFFFFFFFFFFFFFFFFF5
07FFFFFFFFFFFFFFFFE1
01CFFFFFFFFFFFFFFF50
001BFFFFFFFFFFFFE600
00005ADFFFFFFEC81000
ENDCHAR
STARTCHAR Ccaron
ENCODING 268
SWIDTH 578 0
DWIDTH 19 0
BBX 20 31 -1 0
BITMAP
00000047610575100000
00001CFFFECFFFD20000
00008FFFFFFFFFF90000
0000AFF98FF98FFC0000
00009FFC1FF2AFFB0000
00006FFF3BC1FFF80000
00002FFF8677FFF40000
00000CFFE12CFFE10000
000008FFF98FFFA00000
000003FFFFFFFF800000
0003BFFFFFFFFFFE7000
005FFFB2000002DFFB10
02FFFF11566653EFFFA0
0AFFFD06FFFFFFFFFFF2
0EFFFD07FFFFFFFFFFF7
1FFFFD07FFFFFFFFFFF8
1FFFFD07FFFFFFFFFFF8
1FFFFD07FFFFFFFFFFF8
1FFFFD07FFFFFFFFFFF8
1FFFFD07FFFFFFFFFFF8
1FFFFD07FFFFFFFFFFF8
1FFFFD06FFFFFFFFFFF8
1FFFFF10344442FFFFF8
1FFFFFC3211113DFFFF8
1FFFFFFFFFFFFFFFFFF8
0FFFFFFFFFFFFFFFFFF8
0DFFFFFFFFFFFFFFFFF5
07FFFFFFFFFFFFFFFFE1
01CFFFFFFFFFFFFFFF50
001BFFFFFFFFFFFFE600
00005ADFFFFFFEC81000
ENDCHAR
STARTCHAR ccaron
ENCODING 269
SWIDTH 578 0
DWIDTH 19 0
BBX 20 31 -1 0
BITMAP
00000036730376200000
000008FFFFBFFFF50000
00003FFFFFFFFFFD0000
00006FFC5FFC5FFF1000
00005FFF1BF66FFF0000
00001FFF76F2CFFC0000
00000DFFD2C2FFF90000
000008FFF348FFF40000
000003FFFB7EFFE00000
000001FFFFFFFFC00000
0003BFFFFFFFFFFE7000
005FFFB2000002DFFB10
02FFFF11566653EFFFA0
0AFFFD06FFFFFFFFFFF2
0EFFFD07FFFFFFFFFFF7
1FFFFD07FFFFFFFFFFF8
1FFFFD07FFFFFFFFFFF8
1FFFFD07FFFFFFFFFFF8
1FFFFD07FFFFFFFFFFF8
1FFFFD07FFFFFFFFFFF8
1FFFFD07FFFFFFFFFFF8
1FFFFD06FFFFFFFFFFF8
1FFFFF10344442FFFFF8
1FFFFFC3211113DFFFF8
1FFFFFFFFFFFFFFFFFF8
0FFFFFFFFFFFFFFFFFF8
0DFFFFFFFFFFFFFFFFF5
07FFFFFFFFFFFFFFFFE1
01CFFFFFFFFFFFFFFF50
001BFFFFFFFFFFFFE600
00005ADFFFFFFEC81000
ENDCHAR
STARTCHAR Dcaron
ENCODING 270
SWIDTH 578 0
DWIDTH 19 0
BBX 20 31 -1 0
BITMAP
00000036620476200000
00000AFFFEBFFFE40000
00005FFFFFFFFFFC0000
00007FFB5FFB6FFE0000
00006FFE0DF57FFD0000
00003FFF58E1DFFB0000
00000EFFB3A4FFF70000
000009FFF24AFFF30000
000005FFFA7EFFD00000
000002FFFFFFFFB00000
0003BFFFFFFFFFFE7000
005FFF200000013DFB10
02FFFF2155555404FFA0
0AFFFF24FFFFFF32FFF2
0EFFFF24FFFFFF41FFF7
1FFFFF24FFFFFF41FFF8
1FFFFF24FFFFFF41FFF8
1FFFFF24FFFFFF41FFF8
1FFFFF24FFFFFF41FFF8
1FFFFF24FFFFFF41FFF8
1FFFFF24FFFFFF41FFF8
1FFFFF24FFFFFF32FFF8
1FFFFF2144444304FFF8
1FFFFF311111124EFFF8
1FFFFFFFFFFFFFFFFFF8
0FFFFFFFFFFFFFFFFFF8
0DFFFFFFFFFFFFFFFFF5
07FFFFFFFFFFFFFFFFE1
01CFFFFFFFFFFFFFFF50
001BFFFFFFFFFFFFE600
00005ADFFFFFFEC81000
ENDCHAR
STARTCHAR dcaron
ENCODING 271
SWIDTH 578 0
DWIDTH 19 0
BBX 20 22 -1 0
BITMAP
00000146666665300000
0003BFFFFFFFFFFE7000
005FD00000013D405B10
02FFD035555404405FA0
0AFFD08FFFFF32F29FF2
0EFFD08FFFFF41D3FFF7
1FFFD08FFFFF41FFFFF8
1FFFD08FFFFF41FFFFF8
1FFFD08FFFFF41FFFFF8
1FFFD08FFFFF41FFFFF8
1FFFD08FFFFF41FFFFF8
1FFFD08FFFFF41FFFFF8
1FFFD08FFFFF32FFFFF8
1FFFD024444304FFFFF8
1FFFD11111124DFFFFF8
1FFFFFFFFFFFFFFFFFF8
0FFFFFFFFFFFFFFFFFF8
0DFFFFFFFFFFFFFFFFF5
07FFFFFFFFFFFFFFFFE1
01CFFFFFFFFFFFFFFF50
001BFFFFFFFFFFFFE600
00005ADFFFFFFEC81000
ENDCHAR
STARTCHAR Dcroat
ENCODING 272
SWIDTH 578 0
DWIDTH 19 0
BBX 20 22 -1 0
BITMAP
00000146666665300000
0003BFFFFFFFFFFE7000
005FFF200000013DFB10
02FFFF2155555404FFA0
0AFFFF24FFFFFF32FFF2
0EFFFF24FFFFFF41FFF7
1FFFFF24FFFFFF41FFF8
1FFF410011EFFF41FFF8
1FFF530133EFFF41FFF8
1FFFFF24FFFFFF41FFF8
1FFFFF24FFFFFF41FFF8
1FFFFF24FFFFFF41FFF8
1FFFFF24FFFFFF32FFF8
1FFFFF2144444304FFF8
1FFFFF311111124EFFF8
1FFFFFFFFFFFFFFFFFF8
0FFFFFFFFFFFFFFFFFF8
0DFFFFFFFFFFFFFFFFF5
07FFFFFFFFFFFFFFFFE1
01CFFFFFFFFFFFFFFF50
001BFFFFFFFFFFFFE600
00005ADFFFFFFEC81000
ENDCHAR
STARTCHAR dcroat
ENCODING 273
SWIDTH 578 0
DWIDTH 19 0
BBX 20 22 -1 0
BITMAP
00000146666665300000
0003BFFFFFFFFFFE7000
005FFF200000013DFB10
02FFFF2155555404FFA0
0AFFFF24FFFFFF32FFF2
0EFFFF24FFFFFF41FFF7
1FFFFF24FFFFFF41FFF8
1FFF410011EFFF41FFF8
1FFF530133EFFF41FFF8
1FFFFF24FFFFFF41FFF8
1FFFFF24FFFFFF41FFF8
1FFFFF24FFFFFF41FFF8
1FFFFF24FFFFFF32FFF8
1FFFFF2144444304FFF8
1FFFFF311111124EFFF8
1FFFFFFFFFFFFFFFFFF8
0FFFFFFFFFFFFFFFFFF8
0DFFFFFFFFFFFFFFFFF5
07FFFFFFFFFFFFFFFFE1
01CFFFFFFFFFFFFFFF50
001BFFFFFFFFFFFFE600
00005ADFFFFFFEC81000
ENDCHAR
STARTCHAR Emacron
ENCODING 274
SWIDTH 578 0
DWIDTH 19 0
BBX 20 30 -1 0
BITMAP
00000000035531000000
0000003AFFFFFFB30000
000006FFFFFFFFFF7000
00003FFFFFFFFFFFF500
0000AFFFFFFFFFFFFC00
0000CFFD111114FFFE00
0000BFFE444447FFFD00
00007FFFFFFFFFFFF800
00001DFFFFFFFFFFD100
0003BFFFFFFFFFFF9000
005FFFF40000001FFB10
02FFFFF40555556FFFA0
0AFFFFF41FFFFFFFFFF2
0EFFFFF41FFFFFFFFFF7
1FFFFFF41FFFFFFFFFF8
1FFFFFF41AAAAAEFFFF8
1FFFFFF4000000DFFFF8
1FFFFFF41BBBBBEFFFF8
1FFFFFF41FFFFFFFFFF8
1FFFFFF41FFFFFFFFFF8
1FFFFFF41FFFFFFFFFF8
1FFFFFF40444444DFFF8
1FFFFFF51111111DFFF8
1FFFFFFFFFFFFFFFFFF8
0FFFFFFFFFFFFFFFFFF8
0DFFFFFFFFFFFFFFFFF5
07FFFFFFFFFFFFFFFFE1
01CFFFFFFFFFFFFFFF50
001BFFFFFFFFFFFFE600
00005ADFFFFFFEC81000
ENDCHAR
STARTCHAR emacron
ENCODING 275
SWIDTH 578 0
DWIDTH 19 0
BBX 20 30 -1 0
BITMAP
00000000345410000000
0000019EFFFFFC500000
00004EFFFFFFFFFA0000
0001EFFFFFFFFFFF8000
0007FFFFFFFFFFFFE000
0009FFF211111FFFF200
0008FFF544444FFFF100
0004FFFFFFFFFFFFB000
0000AFFFFFFFFFFF3000
0003BFFFFFFFFFFF7000
005FFFA2000015EFFB10
02FFFE025666407FFFA0
0AFFFB08FFFFF05FFFF2
0EFFFB09FFFFF04FFFF7
1FFFFB07CCCCC04FFFF8
1FFFFB000000004FFFF8
1FFFFB05888888AFFFF8
1FFFFB09FFFFFFFFFFF8
1FFFFB09FFFFFFFFFFF8
1FFFFB09FFFFFFFFFFF8
1FFFFD04BBBBB9FFFFF8
1FFFFF40000000DFFFF8
1FFFFFFB99999BEFFFF8
1FFFFFFFFFFFFFFFFFF8
0FFFFFFFFFFFFFFFFFF8
0DFFFFFFFFFFFFFFFFF5
07FFFFFFFFFFFFFFFFE1
01CFFFFFFFFFFFFFFF50
001BFFFFFFFFFFFFE600
00005ADFFFFFFEC81000
ENDCHAR
STARTCHAR Ebreve
ENCODING 276
SWIDTH 578 0
DWIDTH 19 0
BBX 20 30 -1 0
BITMAP
00000000035531000000
0000003AFFFFFFB30000
000006FFFFFFFFFF7000
00003FFFFFFFFFFFF500
0000AFFFFFFFFFFFFC00
0000CFFF78FFA6FFFE00
0000BFFF528833FFFD00
00007FFFD3102CFFF800
00001DFFFFFFFFFFD100
0003BFFFFFFFFFFF9000
005FFFF40000001FFB10
02FFFFF40555556FFFA0
0AFFFFF41FFFFFFFFFF2
0EFFFFF41FFFFFFFFFF7
1FFFFFF41FFFFFFFFFF8
1FFFFFF41AAAAAEFFFF8
1FFFFFF4000000DFFFF8
1FFFFFF41BBBBBEFFFF8
1FFFFFF41FFFFFFFFFF8
1FFFFFF41FFFFFFFFFF8
1FFFFFF41FFFFFFFFFF8
1FFFFFF40444444DFFF8
1FFFFFF51111111DFFF8
1FFFFFFFFFFFFFFFFFF8
0FFFFFFFFFFFFFFFFFF8
0DFFFFFFFFFFFFFFFFF5
07FFFFFFFFFFFFFFFFE1
01CFFFFFFFFFFFFFFF50
001BFFFFFFFFFFFFE600
00005ADFFFFFFEC81000
ENDCHAR
STARTCHAR ebreve
ENCODING 277
SWIDTH 578 0
DWIDTH 19 0
BBX 20 30 -1 0
BITMAP
00000000345410000000
0000019EFFFFFC500000
00004EFFFFFFFFFA0000
0001EFFFFFFFFFFF8000
0007FFFFFFFFFFFFE000
0009FFF96FFC5EFFF200
0008FFF808840FFFF100
0004FFFE5102AFFFB000
0000AFFFFFFFFFFF3000
0003BFFFFFFFFFFF7000
005FFFA2000015EFFB10
02FFFE025666407FFFA0
0AFFFB08FFFFF05FFFF2
0EFFFB09FFFFF04FFFF7
1FFFFB07CCCCC04FFFF8
1FFFFB000000004FFFF8
1FFFFB05888888AFFFF8
1FFFFB09FFFFFFFFFFF8
1FFFFB09FFFFFFFFFFF8
1FFFFB09FFFFFFFFFFF8
1FFFFD04BBBBB9FFFFF8
1FFFFF40000000DFFFF8
1FFFFFFB99999BEFFFF8
1FFFFFFFFFFFFFFFFFF8
0FFFFFFFFFFFFFFFFFF8
0DFFFFFFFFFFFFFFFFF5
07FFFFFFFFFFFFFFFFE1
01CFFFFFFFFFFFFFFF50
001BFFFFFFFFFFFFE600
00005ADFFFFFFEC81000
ENDCHAR
STARTCHAR Edotaccent
ENCODING 278
SWIDTH 578 0
DWIDTH 19 0
BBX 20 31 -1 0
BITMAP
00000000035531000000
0000003AFFFFFFB30000
000006FFFFFFFFFF7000
00003FFFFFFFFFFFF500
0000AFFFFFFFFFFFFC00
0000CFFFFF00FFFFFE00
0000CFFFFF00FFFFFD00
00008FFFFFFFFFFFFA00
00003FFFFFFFFFFFF400
000008FFFFFFFFEB8000
0003BFFFFFFFFFFE7000
005FFFF40000001FFB10
02FFFFF40555556FFFA0
0AFFFFF41FFFFFFFFFF2
0EFFFFF41FFFFFFFFFF7
1FFFFFF41FFFFFFFFFF8
1FFFFFF41AAAAAEFFFF8
1FFFFFF4000000DFFFF8
1FFFFFF41BBBBBEFFFF8
1FFFFFF41FFFFFFFFFF8
1FFFFFF41FFFFFFFFFF8
1FFFFFF41FFFFFFFFFF8
1FFFFFF40444444DFFF8
1FFFFFF51111111DFFF8
1FFFFFFFFFFFFFFFFFF8
0FFFFFFFFFFFFFFFFFF8
0DFFFFFFFFFFFFFFFFF5
07FFFFFFFFFFFFFFFFE1
01CFFFFFFFFFFFFFFF50
001BFFFFFFFFFFFFE600
00005ADFFFFFFEC81000
ENDCHAR
STARTCHAR edotaccent
ENCODING 279
SWIDTH 578 0
DWIDTH 19 0
BBX 20 30 -1 0
BITMAP
00000000345410000000
0000019EFFFFFC500000
00004EFFFFFFFFFA0000
0001EFFFFFFFFFFF8000
0007FFFFFFFFFFFFE000
0009FFFFF30CFFFFF200
0009FFFFF30CFFFFF100
0005FFFFFFFFFFFFD000
0001EFFFFFFFFFFF7000
0003FFFFFFFFFFFF7000
005FFFA2000015EFFB10
02FFFE025666407FFFA0
0AFFFB08FFFFF05FFFF2
0EFFFB09FFFFF04FFFF7
1FFFFB07CCCCC04FFFF8
1FFFFB000000004FFFF8
1FFFFB05888888AFFFF8
1FFFFB09FFFFFFFFFFF8
1FFFFB09FFFFFFFFFFF8
1FFFFB09FFFFFFFFFFF8
1FFFFD04BBBBB9FFFFF8
1FFFFF40000000DFFFF8
1FFFFFFB99999BEFFFF8
1FFFFFFFFFFFFFFFFFF8
0FFFFFFFFFFFFFFFFFF8
0DFFFFFFFFFFFFFFFFF5
07FFFFFFFFFFFFFFFFE1
01CFFFFFFFFFFFFFFF50
001BFFFFFFFFFFFFE600
00005ADFFFFFFEC81000
ENDCHAR
STARTCHAR Eogonek
ENCODING 280
SWIDTH 578 0
DWIDTH 19 0
BBX 20 22 -1 0
BITMAP
00000146666665300000
0003BFFFFFFFFFFE7000
005FFFF40000001FFB10
02FFFFF40555556FFFA0
0AFFFFF41FFFFFFFFFF2
0EFFFFF41FFFFFFFFFF7
1FFFFFF41FFFFFFFFFF8
1FFFFFF41AAAAAEFFFF8
1FFFFFF4000000DFFFF8
1FFFFFF41BBBBBEFFFF8
1FFFFFF41FFFFFFFFFF8
1FFFFFF41FFFFFFFFFF8
1FFFFFF41FFFFFFFFFF8
1FFFFFF40444444DFFF8
1FFFFFF51111110DFFF8
1FFFFFFFFFFFC27FFFF8
0FFFFFFFFFFE15FFFFF8
0DFFFFFFFFFB0CFFFFF5
07FFFFFFFFFD047EFFE1
01CFFFFFFFFF931EFF50
001BFFFFFFFFFFFFE600
00005ADFFFFFFEC81000
ENDCHAR
STARTCHAR eogonek
ENCODING 281
SWIDTH 578 0
DWIDTH 19 0
BBX 20 22 -1 0
BITMAP
00000146666665300000
0003BFFFFFFFFFFE7000
005FFFA2000015EFFB10
02FFFE025666407FFFA0
0AFFFB08FFFFF05FFFF2
0EFFFB09FFFFF04FFFF7
1FFFFB07CCCCC04FFFF8
1FFFFB000000004FFFF8
1FFFFB05888888AFFFF8
1FFFFB09FFFFFFFFFFF8
1FFFFB09FFFFFFFFFFF8
1FFFFB09FFFFFFFFFFF8
1FFFFD04BBBBB9FFFFF8
1FFFFF40000000DFFFF8
1FFFFFFB99716BEFFFF8
1FFFFFFFFC15FFFFFFF8
0FFFFFFFF62FFFFFFFF8
0DFFFFFFF52EFFFFFFF5
07FFFFFFFA005FFFFFE1
01CFFFFFFFCABFFFFF50
001BFFFFFFFFFFFFE600
00005ADFFFFFFEC81000
ENDCHAR
STARTCHAR Ecaron
ENCODING 282
SWIDTH 578 0
DWIDTH 19 0
BBX 20 31 -1 0
BITMAP
00000004762057510000
000000BFFFECFFFE3000
000007FFFFFFFFFFA000
000009FFA7FF97FFD000
000008FFD0EF39FFB000
000005FFF3AD1EFF9000
000001FFF9586FFF5000
000000BFFE13BFFF1000
0000007FFF97FFFB0000
0000016FFFFFFFF60000
0003BFFFFFFFFFFE7000
005FFFF40000001FFB10
02FFFFF40555556FFFA0
0AFFFFF41FFFFFFFFFF2
0EFFFFF41FFFFFFFFFF7
1FFFFFF41FFFFFFFFFF8
1FFFFFF41AAAAAEFFFF8
1FFFFFF4000000DFFFF8
1FFFFFF41BBBBBEFFFF8
1FFFFFF41FFFFFFFFFF8
1FFFFFF41FFFFFFFFFF8
1FFFFFF41FFFFFFFFFF8
1FFFFFF40444444DFFF8
1FFFFFF51111111DFFF8
1FFFFFFFFFFFFFFFFFF8
0FFFFFFFFFFFFFFFFFF8
0DFFFFFFFFFFFFFFFFF5
07FFFFFFFFFFFFFFFFE1
01CFFFFFFFFFFFFFFF50
001BFFFFFFFFFFFFE600
00005ADFFFFFFEC81000
ENDCHAR
STARTCHAR ecaron
ENCODING 283
SWIDTH 578 0
DWIDTH 19 0
BBX 20 31 -1 0
BITMAP
00000036620476200000
00000AFFFEBFFFE40000
00005FFFFFFFFFFC0000
00007FFB5FFB6FFE0000
00006FFE0DF57FFD0000
00003FFF58E1DFFB0000
00000EFFB3A4FFF70000
000009FFF24AFFF30000
000005FFFA7EFFD00000
000002FFFFFFFFB00000
0003BFFFFFFFFFFE7000
005FFFA2000015EFFB10
02FFFE025666407FFFA0
0AFFFB08FFFFF05FFFF2
0EFFFB09FFFFF04FFFF7
1FFFFB07CCCCC04FFFF8
1FFFFB000000004FFFF8
1FFFFB05888888AFFFF8
1FFFFB09FFFFFFFFFFF8
1FFFFB09FFFFFFFFFFF8
1FFFFB09FFFFFFFFFFF8
1FFFFD04BBBBB9FFFFF8
1FFFFF40000000DFFFF8
1FFFFFFB99999BEFFFF8
1FFFFFFFFFFFFFFFFFF8
0FFFFFFFFFFFFFFFFFF8
0DFFFFFFFFFFFFFFFFF5
07FFFFFFFFFFFFFFFFE1
01CFFFFFFFFFFFFFFF50
001BFFFFFFFFFFFFE600
00005ADFFFFFFEC81000
ENDCHAR
STARTCHAR Gcircumflex
ENCODING 284
SWIDTH 578 0
DWIDTH 19 0
BBX 20 32 -1 0
BITMAP
00000000146510000000
00000003EFFFE4000000
0000000CFFFFFE100000
0000005FFEADFF700000
000000BFF826FFD00000
000003FFF2B1EFF50000
000008FFB2F49FFA0000
00000DFF67F93FFF1000
00001FFE2CFE1DFF4000
00002FFFFFFFFFFF4000
00000DFFFFFFFFFE1000
0003BFFFFFFFFFFF7000
005FFFF62000002EFB10
02FFFF803666653FFFA0
0AFFFF60EFFFFFFFFFF2
0EFFFF50FFFFFFFFFFF7
1FFFFF50FFFFFFFFFFF8
1FFFFF50FFFFFFFFFFF8
1FFFFF50FFF84446FFF8
1FFFFF50FFF50002FFF8
1FFFFF50FFFFFF32FFF8
1FFFFF50FFFFFF32FFF8
1FFFFF60EFFFFF22FFF8
1FFFFF8024444305FFF8
1FFFFFF62111125EFFF8
1FFFFFFFFFFFFFFFFFF8
0FFFFFFFFFFFFFFFFFF8
0DFFFFFFFFFFFFFFFFF5
07FFFFFFFFFFFFFFFFE1
01CFFFFFFFFFFFFFFF50
001BFFFFFFFFFFFFE600
00005ADFFFFFFEC81000
ENDCHAR
STARTCHAR gcircumflex
ENCODING 285
SWIDTH 578 0
DWIDTH 19 0
BBX 20 32 -1 0
BITMAP
00000000146510000000
00000003EFFFE4000000
0000000CFFFFFE100000
0000005FFEADFF700000
000000BFF826FFD00000
000003FFF2B1EFF50000
000008FFB2F49FFA0000
00000DFF67F93FFF1000
00001FFE2CFE1DFF4000
00002FFFFFFFFFFF4000
00000DFFFFFFFFFE1000
0003BFFFFFFFFFFF7000
005FFFF62000002EFB10
02FFFF803666653FFFA0
0AFFFF60EFFFFFFFFFF2
0EFFFF50FFFFFFFFFFF7
1FFFFF50FFFFFFFFFFF8
1FFFFF50FFFFFFFFFFF8
1FFFFF50FFF84446FFF8
1FFFFF50FFF50002FFF8
1FFFFF50FFFFFF32FFF8
1FFFFF50FFFFFF32FFF8
1FFFFF60EFFFFF22FFF8
1FFFFF8024444305FFF8
1FFFFFF62111125EFFF8
1FFFFFFFFFFFFFFFFFF8
0FFFFFFFFFFFFFFFFFF8
0DFFFFFFFFFFFFFFFFF5
07FFFFFFFFFFFFFFFFE1
01CFFFFFFFFFFFFFFF50
001BFFFFFFFFFFFFE600
00005ADFFFFFFEC81000
ENDCHAR
STARTCHAR Gbreve
ENCODING 286
SWIDTH 578 0
DWIDTH 19 0
BBX 20 31 -1 0
BITMAP
00000000245420000000
0000007DFFFFFD710000
00001CFFFFFFFFFD2000
0000AFFFFFFFFFFFC000
0002FFFFFFFFFFFFF400
0005FFFD5DFF5BFFF700
0004FFFD05970AFFF600
0000EFFF81016FFFF100
00005FFFFFFFFFFF7000
000006FFFFFFFFF70000
0003BFFFFFFFFFFE7000
005FFFF62000002EFB10
02FFFF803666653FFFA0
0AFFFF60EFFFFFFFFFF2
0EFFFF50FFFFFFFFFFF7
1FFFFF50FFFFFFFFFFF8
1FFFFF50FFFFFFFFFFF8
1FFFFF50FFF84446FFF8
1FFFFF50FFF50002FFF8
1FFFFF50FFFFFF32FFF8
1FFFFF50FFFFFF32FFF8
1FFFFF60EFFFFF22FFF8
1FFFFF8024444305FFF8
1FFFFFF62111125EFFF8
1FFFFFFFFFFFFFFFFFF8
0FFFFFFFFFFFFFFFFFF8
0DFFFFFFFFFFFFFFFFF5
07FFFFFFFFFFFFFFFFE1
01CFFFFFFFFFFFFFFF50
001BFFFFFFFFFFFFE600
00005ADFFFFFFEC81000
ENDCHAR
STARTCHAR gbreve
ENCODING 287
SWIDTH 578 0
DWIDTH 19 0
BBX 20 30 -1 0
BITMAP
00000000345410000000
0000019EFFFFFC500000
00004EFFFFFFFFFA0000
0001EFFFFFFFFFFF8000
0007FFFFFFFFFFFFE000
0009FFF96FFC5EFFF200
0008FFF808840FFFF100
0004FFFE5102AFFFB000
0000AFFFFFFFFFFF3000
0003BFFFFFFFFFFF7000
005FFFF62000002EFB10
02FFFF803666653FFFA0
0AFFFF60EFFFFFFFFFF2
0EFFFF50FFFFFFFFFFF7
1FFFFF50FFFFFFFFFFF8
1FFFFF50FFFFFFFFFFF8
1FFFFF50FFF84446FFF8
1FFFFF50FFF50002FFF8
1FFFFF50FFFFFF32FFF8
1FFFFF50FFFFFF32FFF8
1FFFFF60EFFFFF22FFF8
1FFFFF8024444305FFF8
1FFFFFF62111125EFFF8
1FFFFFFFFFFFFFFFFFF8
0FFFFFFFFFFFFFFFFFF8
0DFFFFFFFFFFFFFFFFF5
07FFFFFFFFFFFFFFFFE1
01CFFFFFFFFFFFFFFF50
001BFFFFFFFFFFFFE600
00005ADFFFFFFEC81000
ENDCHAR
STARTCHAR Gdotaccent
ENCODING 288
SWIDTH 578 0
DWIDTH 19 0
BBX 20 30 -1 0
BITMAP
00000000345410000000
0000019EFFFFFC500000
00004EFFFFFFFFFA0000
0001EFFFFFFFFFFF8000
0007FFFFFFFFFFFFE000
0009FFFFF30CFFFFF200
0009FFFFF30CFFFFF100
0005FFFFFFFFFFFFD000
0001EFFFFFFFFFFF7000
0003FFFFFFFFFFFF7000
005FFFF62000002EFB10
02FFFF803666653FFFA0
0AFFFF60EFFFFFFFFFF2
0EFFFF50FFFFFFFFFFF7
1FFFFF50FFFFFFFFFFF8
1FFFFF50FFFFFFFFFFF8
1FFFFF50FFF84446FFF8
1FFFFF50FFF50002FFF8
1FFFFF50FFFFFF32FFF8
1FFFFF50FFFFFF32FFF8
1FFFFF60EFFFFF22FFF8
1FFFFF8024444305FFF8
1FFFFFF62111125EFFF8
1FFFFFFFFFFFFFFFFFF8
0FFFFFFFFFFFFFFFFFF8
0DFFFFFFFFFFFFFFFFF5
07FFFFFFFFFFFFFFFFE1
01CFFFFFFFFFFFFFFF50
001BFFFFFFFFFFFFE600
00005ADFFFFFFEC81000
ENDCHAR
STARTCHAR gdotaccent
ENCODING 289
SWIDTH 578 0
DWIDTH 19 0
BBX 20 30 -1 0
BITMAP
00000000345410000000
0000019EFFFFFC500000
00004EFFFFFFFFFA0000
0001EFFFFFFFFFFF8000
0007FFFFFFFFFFFFE000
0009FFFFF30CFFFFF200
0009FFFFF30CFFFFF100
0005FFFFFFFFFFFFD000
0001EFFFFFFFFFFF7000
0003FFFFFFFFFFFF7000
005FFFF62000002EFB10
02FFFF803666653FFFA0
0AFFFF60EFFFFFFFFFF2
0EFFFF50FFFFFFFFFFF7
1FFFFF50FFFFFFFFFFF8
1FFFFF50FFFFFFFFFFF8
1FFFFF50FFF84446FFF8
1FFFFF50FFF50002FFF8
1FFFFF50FFFFFF32FFF8
1FFFFF50FFFFFF32FFF8
1FFFFF60EFFFFF22FFF8
1FFFFF8024444305FFF8
1FFFFFF62111125EFFF8
1FFFFFFFFFFFFFFFFFF8
0FFFFFFFFFFFFFFFFFF8
0DFFFFFFFFFFFFFFFFF5
07FFFFFFFFFFFFFFFFE1
01CFFFFFFFFFFFFFFF50
001BFFFFFFFFFFFFE600
00005ADFFFFFFEC81000
ENDCHAR
STARTCHAR Gcommaaccent
ENCODING 290
SWIDTH 578 0
DWIDTH 19 0
BBX 20 22 -1 0
BITMAP
00000146666665300000
0003BFFFFFFFFFFE7000
005FFFF62000002EFB10
02FFFF803666653FFFA0
0AFFFF60EFFFFFFFFFF2
0EFFFF50FFFFFFFFFFF7
1FFFFF50FFFFFFFFFFF8
1FFFFF50FFFFFFFFFFF8
1FFFFF50FFF84446FFF8
1FFFFF50FFF50002FFF8
1FFFFF50FFFFFF32FFF8
1FFFFF50FFFFFF32FFF8
1FFFFF60EFFFFF22FFF8
1FFFFF8024444305FFF8
1FFFFFF62111125EFFF8
1FFFFFFFFFFFFFFFFFF8
0FFFFFFFFF22AFFFFFF8
0DFFFFFFFF00AFFFFFF5
07FFFFFFFFB0CFFFFFE1
01CFFFFFFF94FFFFFF50
001BFFFFFFFFFFFFE600
00005ADFFFFFFEC81000
ENDCHAR
STARTCHAR gcommaaccent
ENCODING 291
SWIDTH 578 0
DWIDTH 19 0
BBX 20 22 -1 0
BITMAP
00000146666665300000
0003BFFFFFFFFFFE7000
005FFFF62000002EFB10
02FFFF803666653FFFA0
0AFFFF60EFFFFFFFFFF2
0EFFFF50FFFFFFFFFFF7
1FFFFF50FFFFFFFFFFF8
1FFFFF50FFFFFFFFFFF8
1FFFFF50FFF84446FFF8
1FFFFF50FFF50002FFF8
1FFFFF50FFFFFF32FFF8
1FFFFF50FFFFFF32FFF8
1FFFFF60EFFFFF22FFF8
1FFFFF8024444305FFF8
1FFFFFF62111125EFFF8
1FFFFFFFFFFFFFFFFFF8
0FFFFFFFFF22AFFFFFF8
0DFFFFFFFF00AFFFFFF5
07FFFFFFFFB0CFFFFFE1
01CFFFFFFF94FFFFFF50
001BFFFFFFFFFFFFE600
00005ADFFFFFFEC81000
ENDCHAR
STARTCHAR Hcircumflex
ENCODING 292
SWIDTH 578 0
DWIDTH 19 0
BBX 20 32 -1 0
BITMAP
00000000046510000000
00000002DFFFF5000000
0000000CFFFFFE100000
0000004FFEADFF700000
000000AFF925FFE00000
000002FFF3A1EFF60000
000007FFC1F58FFB0000
00000CFF76FA2FFF1000
00001FFF2BFE1CFF5000
00001FFFFFFFFFFF5000
00000DFFFFFFFFFE1000
0003BFFFFFFFFFFF7000
005FFF23FFFFFF41FB10
02FFFF23FFFFFF41FFA0
0AFFFF23FFFFFF41FFF2
0EFFFF23FFFFFF41FFF7
1FFFFF23FFFFFF41FFF8
1FFFFF2277777721FFF8
1FFFFF2000000001FFF8
1FFFFF23DDDDDD41FFF8
1FFFFF23FFFFFF41FFF8
1FFFFF23FFFFFF41FFF8
1FFFFF23FFFFFF41FFF8
1FFFFF23FFFFFF41FFF8
1FFFFF34FFFFFF52FFF8
1FFFFFFFFFFFFFFFFFF8
0FFFFFFFFFFFFFFFFFF8
0DFFFFFFFFFFFFFFFFF5
07FFFFFFFFFFFFFFFFE1
01CFFFFFFFFFFFFFFF50
001BFFFFFFFFFFFFE600
00005ADFFFFFFEC81000
ENDCHAR
STARTCHAR hcircumflex
ENCODING 293
SWIDTH 578 0
DWIDTH 19 0
BBX 20 32 -1 0
BITMAP
00000000046520000000
00000001CFFFF6000000
0000000AFFFFFF200000
0000002FFFACFF900000
0000008FFB23FFF10000
000001EFF592CFF70000
000006FFE1E76FFD0000
00000BFF84FC1FFF3000
00000EFF49FF2AFF7000
00000EFFFFFFFFFF7000
00000BFFFFFFFFFF2000
0003BFFFFFFFFFFF7000
005FFF23FFFFFF41FB10
02FFFF23FFFFFF41FFA0
0AFFFF23FFFFFF41FFF2
0EFFFF23FFFFFF41FFF7
1FFFFF23FFFFFF41FFF8
1FFFFF2277777721FFF8
1FFFFF2000000001FFF8
1FFFFF23DDDDDD41FFF8
1FFFFF23FFFFFF41FFF8
1FFFFF23FFFFFF41FFF8
1FFFFF23FFFFFF41FFF8
1FFFFF23FFFFFF41FFF8
1FFFFF34FFFFFF52FFF8
1FFFFFFFFFFFFFFFFFF8
0FFFFFFFFFFFFFFFFFF8
0DFFFFFFFFFFFFFFFFF5
07FFFFFFFFFFFFFFFFE1
01CFFFFFFFFFFFFFFF50
001BFFFFFFFFFFFFE600
00005ADFFFFFFEC81000
ENDCHAR
STARTCHAR Hbar
ENCODING 294
SWIDTH 578 0
DWIDTH 19 0
BBX 20 31 -1 0
BITMAP
00000000245420000000
0000007DFFFFFD710000
00001CFFFFFFFFFD2000
0000AFFFFFFFFFFFC000
0002FFFFFFFFFFFFF400
0005FFF711111BFFF700
0004FFF844444CFFF600
0000EFFFFFFFFFFFF100
00005FFFFFFFFFFF7000
000006FFFFFFFFF70000
0003BFFFFFFFFFFE7000
005FFF23FFFFFF41FB10
02FFFF23FFFFFF41FFA0
0AFFFF23FFFFFF41FFF2
0EFFFF23FFFFFF41FFF7
1FFFFF23FFFFFF41FFF8
1FFFFF2277777721FFF8
1FFFFF2000000001FFF8
1FFFFF23DDDDDD41FFF8
1FFFFF23FFFFFF41FFF8
1FFFFF23FFFFFF41FFF8
1FFFFF23FFFFFF41FFF8
1FFFFF23FFFFFF41FFF8
1FFFFF34FFFFFF52FFF8
1FFFFFFFFFFFFFFFFFF8
0FFFFFFFFFFFFFFFFFF8
0DFFFFFFFFFFFFFFFFF5
07FFFFFFFFFFFFFFFFE1
01CFFFFFFFFFFFFFFF50
001BFFFFFFFFFFFFE600
00005ADFFFFFFEC81000
ENDCHAR
STARTCHAR hbar
ENCODING 295
SWIDTH 578 0
DWIDTH 19 0
BBX 20 22 -1 0
BITMAP
00000146666665300000
0003BFFFFFFFFFFE7000
005FFF23FFFFFF41FB10
02FFFF23FFFFFF41FFA0
0AFFF700111111005FF2
0EFFFB12777777219FF7
1FFFFF23FFFFFF41FFF8
1FFFFF2277777721FFF8
1FFFFF2000000001FFF8
1FFFFF23DDDDDD41FFF8
1FFFFF23FFFFFF41FFF8
1FFFFF23FFFFFF41FFF8
1FFFFF23FFFFFF41FFF8
1FFFFF23FFFFFF41FFF8
1FFFFF34FFFFFF52FFF8
1FFFFFFFFFFFFFFFFFF8
0FFFFFFFFFFFFFFFFFF8
0DFFFFFFFFFFFFFFFFF5
07FFFFFFFFFFFFFFFFE1
01CFFFFFFFFFFFFFFF50
001BFFFFFFFFFFFFE600
00005ADFFFFFFEC81000
ENDCHAR
STARTCHAR Itilde
ENCODING 296
SWIDTH 578 0
DWIDTH 19 0
BBX 20 31 -1 0
BITMAP
00000000024430000000
00000007DFFFFE920000
000001CFFFFFFFFE4000
00000BFFFFFFFFFFE200
00004FFFFFFFFFFFFA00
00009FFFFFFFFFFFFE00
0000BFFFDDFFF9CFFF10
0000AFFB0017709FFF00
00006FF70C9201DFFB00
00001FFFFFFFFFFFF400
0003BFFFFFFFFFFFF000
005FFF9000000006FB10
02FFFFB555105559FFA0
0AFFFFFFFF41FFFFFFF2
0EFFFFFFFF41FFFFFFF7
1FFFFFFFFF41FFFFFFF8
1FFFFFFFFF41FFFFFFF8
1FFFFFFFFF41FFFFFFF8
1FFFFFFFFF41FFFFFFF8
1FFFFFFFFF41FFFFFFF8
1FFFFFFFFF41FFFFFFF8
1FFFFFFFFF41FFFFFFF8
1FFFFFB444104448FFF8
1FFFFF9111111116FFF8
1FFFFFFFFFFFFFFFFFF8
0FFFFFFFFFFFFFFFFFF8
0DFFFFFFFFFFFFFFFFF5
07FFFFFFFFFFFFFFFFE1
01CFFFFFFFFFFFFFFF50
001BFFFFFFFFFFFFE600
00005ADFFFFFFEC81000
ENDCHAR
STARTCHAR itilde
ENCODING 297
SWIDTH 578 0
DWIDTH 19 0
BBX 20 31 -1 0
BITMAP
00000000024430000000
00000017DFFFFE810000
000002DFFFFFFFFE3000
00000CFFFFFFFFFFE100
00006FFFFFFFFFFFF800
0000AFFFFFFFFFFFFD00
0000CFFFDDFFE9DFFF00
0000BFFA001860BFFE00
00008FF61D8201EFFA00
00001FFFFFFFFFFFF300
0003BFFFFFFFFFFFD000
005FFF9000000006FB10
02FFFFB555105559FFA0
0AFFFFFFFF41FFFFFFF2
0EFFFFFFFF41FFFFFFF7
1FFFFFFFFF41FFFFFFF8
1FFFFFFFFF41FFFFFFF8
1FFFFFFFFF41FFFFFFF8
1FFFFFFFFF41FFFFFFF8
1FFFFFFFFF41FFFFFFF8
1FFFFFFFFF41FFFFFFF8
1FFFFFFFFF41FFFFFFF8
1FFFFFB444104448FFF8
1FFFFF9111111116FFF8
1FFFFFFFFFFFFFFFFFF8
0FFFFFFFFFFFFFFFFFF8
0DFFFFFFFFFFFFFFFFF5
07FFFFFFFFFFFFFFFFE1
01CFFFFFFFFFFFFFFF50
001BFFFFFFFFFFFFE600
00005ADFFFFFFEC81000
ENDCHAR
STARTCHAR Imacron
ENCODING 298
SWIDTH 578 0
DWIDTH 19 0
BBX 20 30 -1 0
BITMAP
00000000135530000000
0000003AFFFFFFA30000
000007FFFFFFFFFF6000
00004FFFFFFFFFFFF400
0000BFFFFFFFFFFFFA00
0000EFFC111115FFFD00
0000CFFD444447FFFC00
00008FFFFFFFFFFFF700
00001EFFFFFFFFFFC100
0003BFFFFFFFFFFF8000
005FFF9000000006FB10
02FFFFB555105559FFA0
0AFFFFFFFF41FFFFFFF2
0EFFFFFFFF41FFFFFFF7
1FFFFFFFFF41FFFFFFF8
1FFFFFFFFF41FFFFFFF8
1FFFFFFFFF41FFFFFFF8
1FFFFFFFFF41FFFFFFF8
1FFFFFFFFF41FFFFFFF8
1FFFFFFFFF41FFFFFFF8
1FFFFFFFFF41FFFFFFF8
1FFFFFB444104448FFF8
1FFFFF9111111116FFF8
1FFFFFFFFFFFFFFFFFF8
0FFFFFFFFFFFFFFFFFF8
0DFFFFFFFFFFFFFFFFF5
07FFFFFFFFFFFFFFFFE1
01CFFFFFFFFFFFFFFF50
001BFFFFFFFFFFFFE600
00005ADFFFFFFEC81000
ENDCHAR
STARTCHAR imacron
ENCODING 299
SWIDTH 578 0
DWIDTH 19 0
BBX 20 30 -1 0
BITMAP
00000000145530000000
0000004BFFFFFFA20000
000008FFFFFFFFFF5000
00005FFFFFFFFFFFF300
0000CFFFFFFFFFFFF900
0000FFFB111116FFFC00
0000DFFC444448FFFB00
00009FFFFFFFFFFFF600
00002FFFFFFFFFFFC000
0003BFFFFFFFFFFF8000
005FFF9000000006FB10
02FFFFB555105559FFA0
0AFFFFFFFF41FFFFFFF2
0EFFFFFFFF41FFFFFFF7
1FFFFFFFFF41FFFFFFF8
1FFFFFFFFF41FFFFFFF8
1FFFFFFFFF41FFFFFFF8
1FFFFFFFFF41FFFFFFF8
1FFFFFFFFF41FFFFFFF8
1FFFFFFFFF41FFFFFFF8
1FFFFFFFFF41FFFFFFF8
1FFFFFB444104448FFF8
1FFFFF9111111116FFF8
1FFFFFFFFFFFFFFFFFF8
0FFFFFFFFFFFFFFFFFF8
0DFFFFFFFFFFFFFFFFF5
07FFFFFFFFFFFFFFFFE1
01CFFFFFFFFFFFFFFF50
001BFFFFFFFFFFFFE600
00005ADFFFFFFEC81000
ENDCHAR
STARTCHAR Ibreve
ENCODING 300
SWIDTH 578 0
DWIDTH 19 0
BBX 20 30 -1 0
BITMAP
00000000034541000000
00000029EFFFFFB40000
000004EFFFFFFFFF9000
00002EFFFFFFFFFFF700
00008FFFFFFFFFFFFD00
0000BFFF97FFB5FFFF10
00009FFF718831FFFF00
00005FFFE4102BFFFA00
00000CFFFFFFFFFFE200
0003BFFFFFFFFFFFA000
005FFF9000000006FB10
02FFFFB555105559FFA0
0AFFFFFFFF41FFFFFFF2
0EFFFFFFFF41FFFFFFF7
1FFFFFFFFF41FFFFFFF8
1FFFFFFFFF41FFFFFFF8
1FFFFFFFFF41FFFFFFF8
1FFFFFFFFF41FFFFFFF8
1FFFFFFFFF41FFFFFFF8
1FFFFFFFFF41FFFFFFF8
1FFFFFFFFF41FFFFFFF8
1FFFFFB444104448FFF8
1FFFFF9111111116FFF8
1FFFFFFFFFFFFFFFFFF8
0FFFFFFFFFFFFFFFFFF8
0DFFFFFFFFFFFFFFFFF5
07FFFFFFFFFFFFFFFFE1
01CFFFFFFFFFFFFFFF50
001BFFFFFFFFFFFFE600
00005ADFFFFFFEC81000
ENDCHAR
STARTCHAR ibreve
ENCODING 301
SWIDTH 578 0
DWIDTH 19 0
BBX 20 30 -1 0
BITMAP
00000000035541000000
0000003AFFFFFFB40000
000006FFFFFFFFFF8000
00003FFFFFFFFFFFF500
0000AFFFFFFFFFFFFC00
0000CFFF88FFA5FFFE00
0000BFFF628832FFFD00
00006FFFD3102CFFF900
00001DFFFFFFFFFFD100
0003BFFFFFFFFFFF9000
005FFF9000000006FB10
02FFFFB555105559FFA0
0AFFFFFFFF41FFFFFFF2
0EFFFFFFFF41FFFFFFF7
1FFFFFFFFF41FFFFFFF8
1FFFFFFFFF41FFFFFFF8
1FFFFFFFFF41FFFFFFF8
1FFFFFFFFF41FFFFFFF8
1FFFFFFFFF41FFFFFFF8
1FFFFFFFFF41FFFFFFF8
1FFFFFFFFF41FFFFFFF8
1FFFFFB444104448FFF8
1FFFFF9111111116FFF8
1FFFFFFFFFFFFFFFFFF8
0FFFFFFFFFFFFFFFFFF8
0DFFFFFFFFFFFFFFFFF5
07FFFFFFFFFFFFFFFFE1
01CFFFFFFFFFFFFFFF50
001BFFFFFFFFFFFFE600
00005ADFFFFFFEC81000
ENDCHAR
STARTCHAR Iogonek
ENCODING 302
SWIDTH 578 0
DWIDTH 19 0
BBX 20 22 -1 0
BITMAP
00000146666665300000
0003BFFFFFFFFFFE7000
005FFF9000000006FB10
02FFFFB555105559FFA0
0AFFFFFFFF41FFFFFFF2
0EFFFFFFFF41FFFFFFF7
1FFFFFFFFF41FFFFFFF8
1FFFFFFFFF41FFFFFFF8
1FFFFFFFFF41FFFFFFF8
1FFFFFFFFF41FFFFFFF8
1FFFFFFFFF41FFFFFFF8
1FFFFFFFFF41FFFFFFF8
1FFFFFFFFF41FFFFFFF8
1FFFFFB444104448FFF8
1FFFFF9111111106FFF8
1FFFFFFFFFFFF72DFFF8
0FFFFFFFFFFF80CFFFF8
0DFFFFFFFFFF54FFFFF5
07FFFFFFFFFF617BFFE1
01CFFFFFFFFFE426FF50
001BFFFFFFFFFFFFE600
00005ADFFFFFFEC81000
ENDCHAR
STARTCHAR iogonek
ENCODING 303
SWIDTH 578 0
DWIDTH 19 0
BBX 20 22 -1 0
BITMAP
00000146666665300000
0003BFFFFFFFFFFE7000
005FFF9000000006FB10
02FFFFB555105559FFA0
0AFFFFFFFF41FFFFFFF2
0EFFFFFFFF41FFFFFFF7
1FFFFFFFFF41FFFFFFF8
1FFFFFFFFF41FFFFFFF8
1FFFFFFFFF41FFFFFFF8
1FFFFFFFFF41FFFFFFF8
1FFFFFFFFF41FFFFFFF8
1FFFFFFFFF41FFFFFFF8
1FFFFFFFFF41FFFFFFF8
1FFFFFB444104448FFF8
1FFFFF9111111106FFF8
1FFFFFFFFFFFF82DFFF8
0FFFFFFFFFFF80BFFFF8
0DFFFFFFFFFF53FFFFF5
07FFFFFFFFFF717AFFE1
01CFFFFFFFFFE526FF50
001BFFFFFFFFFFFFE600
00005ADFFFFFFEC81000
ENDCHAR
STARTCHAR Idotaccent
ENCODING 304
SWIDTH 578 0
DWIDTH 19 0
BBX 20 30 -1 0
BITMAP
00000000245420000000
0000006DFFFFFD810000
00001CFFFFFFFFFD2000
0000AFFFFFFFFFFFC000
0002FFFFFFFFFFFFF500
0004FFFFF807FFFFF700
0004FFFFF807FFFFF600
0001FFFFFFFFFFFFF300
0000AFFFFFFFFFFFC000
0003CFFFFFFFFFFFA000
005FFF9000000006FB10
02FFFFB555105559FFA0
0AFFFFFFFF41FFFFFFF2
0EFFFFFFFF41FFFFFFF7
1FFFFFFFFF41FFFFFFF8
1FFFFFFFFF41FFFFFFF8
1FFFFFFFFF41FFFFFFF8
1FFFFFFFFF41FFFFFFF8
1FFFFFFFFF41FFFFFFF8
1FFFFFFFFF41FFFFFFF8
1FFFFFFFFF41FFFFFFF8
1FFFFFB444104448FFF8
1FFFFF9111111116FFF8
1FFFFFFFFFFFFFFFFFF8
0FFFFFFFFFFFFFFFFFF8
0DFFFFFFFFFFFFFFFFF5
07FFFFFFFFFFFFFFFFE1
01CFFFFFFFFFFFFFFF50
001BFFFFFFFFFFFFE600
00005ADFFFFFFEC81000
ENDCHAR
STARTCHAR dotlessi
ENCODING 305
SWIDTH 578 0
DWIDTH 19 0
BBX 20 22 -1 0
BITMAP
00000146666665300000
0003BFFFFFFFFFFE7000
005FFF9000000006FB10
02FFFFB555105559FFA0
0AFFFFFFFF41FFFFFFF2
0EFFFFFFFF41FFFFFFF7
1FFFFFFFFF41FFFFFFF8
1FFFFFFFFF41FFFFFFF8
1FFFFFFFFF41FFFFFFF8
1FFFFFFFFF41FFFFFFF8
1FFFFFFFFF41FFFFFFF8
1FFFFFFFFF41FFFFFFF8
1FFFFFFFFF41FFFFFFF8
1FFFFFB444104448FFF8
1FFFFF9111111116FFF8
1FFFFFFFFFFFFFFFFFF8
0FFFFFFFFFFFFFFFFFF8
0DFFFFFFFFFFFFFFFFF5
07FFFFFFFFFFFFFFFFE1
01CFFFFFFFFFFFFFFF50
001BFFFFFFFFFFFFE600
00005ADFFFFFFEC81000
ENDCHAR
STARTCHAR IJ
ENCODING 306
SWIDTH 578 0
DWIDTH 19 0
BBX 20 22 -1 0
BITMAP
00000146666665300000
0003BFFFFFFFFFFE7000
005C000000BFFFD08B10
02FD551155CFFFD08FA0
0AFFFF32FFFFFFD08FF2
0EFFFF32FFFFFFD08FF7
1FFFFF32FFFFFFD08FF8
1FFFFF32FFFFFFD08FF8
1FFFFF32FFFFFFD08FF8
1FFFFF32FFFFFFD08FF8
1FFFFF32FFFFFFD08FF8
1FFFFF32FFFFFFD08FF8
1FFFFF32FFFFFFC08FF8
1FFD441044C744108FF8
1FFC111111B51137FFF8
1FFFFFFFFFFFFFFFFFF8
0FFFFFFFFFFFFFFFFFF8
0DFFFFFFFFFFFFFFFFF5
07FFFFFFFFFFFFFFFFE1
01CFFFFFFFFFFFFFFF50
001BFFFFFFFFFFFFE600
00005ADFFFFFFEC81000
ENDCHAR
STARTCHAR ij
ENCODING 307
SWIDTH 578 0
DWIDTH 19 0
BBX 20 22 -1 0
BITMAP
00000146666665300000
0003BFFFFFFFFFFE7000
005C000000BFFFD08B10
02FD551155CFFFD08FA0
0AFFFF32FFFFFFD08FF2
0EFFFF32FFFFFFD08FF7
1FFFFF32FFFFFFD08FF8
1FFFFF32FFFFFFD08FF8
1FFFFF32FFFFFFD08FF8
1FFFFF32FFFFFFD08FF8
1FFFFF32FFFFFFD08FF8
1FFFFF32FFFFFFD08FF8
1FFFFF32FFFFFFC08FF8
1FFD441044C744108FF8
1FFC111111B51137FFF8
1FFFFFFFFFFFFFFFFFF8
0FFFFFFFFFFFFFFFFFF8
0DFFFFFFFFFFFFFFFFF5
07FFFFFFFFFFFFFFFFE1
01CFFFFFFFFFFFFFFF50
001BFFFFFFFFFFFFE600
00005ADFFFFFFEC81000
ENDCHAR
STARTCHAR Jcircumflex
ENCODING 308
SWIDTH 578 0
DWIDTH 19 0
BBX 20 32 -1 0
BITMAP
00000000036620000000
00000001BFFFF8000000
00000008FFFFFF400000
0000001EFFABFFB00000
0000007FFD22FFF30000
000000DFF774AFF90000
000004FFF1C94FFE1000
000009FFA2FD0DFF5000
00000CFF67FF49FF9000
00000CFFFFFFFFFF9000
000009FFFFFFFFFF4000
0003BFFFFFFFFFFF7000
005FFFFFFFFA0BFFFB10
02FFFFFFFFFA0BFFFFA0
0AFFFFFFFFFA0BFFFFF2
0EFFFFFFFFFA0BFFFFF7
1FFFFFFFFFFA0BFFFFF8
1FFFFFFFFFFA0BFFFFF8
1FFFFFFFFFFA0BFFFFF8
1FFFFFFFFFFA0BFFFFF8
1FFFFFFFFFFA0BFFFFF8
1FFFFFFFFFFA0BFFFFF8
1FFFFFFFFFF90BFFFFF8
1FFFFFFF54310BFFFFF8
1FFFFFFF21139FFFFFF8
1FFFFFFFFFFFFFFFFFF8
0FFFFFFFFFFFFFFFFFF8
0DFFFFFFFFFFFFFFFFF5
07FFFFFFFFFFFFFFFFE1
01CFFFFFFFFFFFFFFF50
001BFFFFFFFFFFFFE600
00005ADFFFFFFEC81000
ENDCHAR
STARTCHAR jcircumflex
ENCODING 309
SWIDTH 578 0
DWIDTH 19 0
BBX 20 32 -1 0
BITMAP
00000000036620000000
00000001BFFFF8000000
00000008FFFFFF400000
0000001EFFABFFB00000
0000007FFD22FFF30000
000000DFF774AFF90000
000004FFF1C94FFE1000
000009FFA2FD0DFF5000
00000CFF67FF49FF9000
00000CFFFFFFFFFF9000
000009FFFFFFFFFF4000
0003BFFFFFFFFFFF7000
005FFFFFFFFA0BFFFB10
02FFFFFFFFFA0BFFFFA0
0AFFFFFFFFFA0BFFFFF2
0EFFFFFFFFFA0BFFFFF7
1FFFFFFFFFFA0BFFFFF8
1FFFFFFFFFFA0BFFFFF8
1FFFFFFFFFFA0BFFFFF8
1FFFFFFFFFFA0BFFFFF8
1FFFFFFFFFFA0BFFFFF8
1FFFFFFFFFFA0BFFFFF8
1FFFFFFFFFF90BFFFFF8
1FFFFFFF54310BFFFFF8
1FFFFFFF21139FFFFFF8
1FFFFFFFFFFFFFFFFFF8
0FFFFFFFFFFFFFFFFFF8
0DFFFFFFFFFFFFFFFFF5
07FFFFFFFFFFFFFFFFE1
01CFFFFFFFFFFFFFFF50
001BFFFFFFFFFFFFE600
00005ADFFFFFFEC81000
ENDCHAR
STARTCHAR Kcommaaccent
ENCODING 310
SWIDTH 578 0
DWIDTH 19 0
BBX 20 22 -1 0
BITMAP
00000146666665300000
0003BFFFFFFFFFFB7000
005FFFF60FFFFF80BB10
02FFFFF60FFFF702EFA0
0AFFFFF60FFF702EFFF2
0EFFFFF60FF703EFFFF7
1FFFFFF60F703EFFFFF8
1FFFFFF60603EFFFFFF8
1FFFFFF60007FFFFFFF8
1FFFFFF606309FFFFFF8
1FFFFFF60FE20BFFFFF8
1FFFFFF60FFC11CFFFF8
1FFFFFF60FFFB01DFFF8
1FFFFFF60FFFF903EFF8
1FFFFFF61FFFFF63EFF8
1FFFFFFFFFFFFFFEFFF8
0FFFFFFFFF22AFFFFFF8
0DFFFFFFFF00AFFFFFF5
07FFFFFFFFB0CFFFFFE1
01CFFFFFFF94FFFFFF50
001BFFFFFFFFFFFFE600
00005ADFFFFFFEC81000
ENDCHAR
STARTCHAR kcommaaccent
ENCODING 311
SWIDTH 578 0
DWIDTH 19 0
BBX 20 22 -1 0
BITMAP
00000146666665300000
0003BFFFFFFFFFFB7000
005FFFF60FFFFF80BB10
02FFFFF60FFFF702EFA0
0AFFFFF60FFF702EFFF2
0EFFFFF60FF703EFFFF7
1FFFFFF60F703EFFFFF8
1FFFFFF60603EFFFFFF8
1FFFFFF60007FFFFFFF8
1FFFFFF606309FFFFFF8
1FFFFFF60FE20BFFFFF8
1FFFFFF60FFC11CFFFF8
1FFFFFF60FFFB01DFFF8
1FFFFFF60FFFF903EFF8
1FFFFFF61FFFFF63EFF8
1FFFFFFFFFFFFFFEFFF8
0FFFFFFFFF22AFFFFFF8
0DFFFFFFFF00AFFFFFF5
07FFFFFFFFB0CFFFFFE1
01CFFFFFFF94FFFFFF50
001BFFFFFFFFFFFFE600
00005ADFFFFFFEC81000
ENDCHAR
STARTCHAR kgreenlandic
ENCODING 312
SWIDTH 578 0
DWIDTH 19 0
BBX 20 22 -1 0
BITMAP
00000146666665300000
0003BFFFFFFFFFFB7000
005FFFF60FFFFF80BB10
02FFFFF60FFFF702EFA0
0AFFFFF60FFF702EFFF2
0EFFFFF60FF703EFFFF7
1FFFFFF60F703EFFFFF8
1FFFFFF60603EFFFFFF8
1FFFFFF60007FFFFFFF8
1FFFFFF606309FFFFFF8
1FFFFFF60FE20BFFFFF8
1FFFFFF60FFC11CFFFF8
1FFFFFF60FFFB01DFFF8
1FFFFFF60FFFF903EFF8
1FFFFFF61FFFFF63EFF8
1FFFFFFFFFFFFFFEFFF8
0FFFFFFFFFFFFFFFFFF8
0DFFFFFFFFFFFFFFFFF5
07FFFFFFFFFFFFFFFFE1
01CFFFFFFFFFFFFFFF50
001BFFFFFFFFFFFFE600
00005ADFFFFFFEC81000
ENDCHAR
STARTCHAR Lacute
ENCODING 313
SWIDTH 578 0
DWIDTH 19 0
BBX 20 31 -1 0
BITMAP
000000006ABA71000000
0000000BFFFFFF500000
0000004FFFFFFFF10000
0000009FFB06FFF30000
000000EFF70DFFE10000
000003FFF25FFF800000
000007FFD0CFFE100000
00000AFF84FFF6000000
00000AFFDEFFC0000000
000005FFFFFF95300000
0003BFFFFFFFFFFE7000
005FFFFF05FFFFFFFB10
02FFFFFF05FFFFFFFFA0
0AFFFFFF05FFFFFFFFF2
0EFFFFFF05FFFFFFFFF7
1FFFFFFF05FFFFFFFFF8
1FFFFFFF05FFFFFFFFF8
1FFFFFFF05FFFFFFFFF8
1FFFFFFF05FFFFFFFFF8
1FFFFFFF05FFFFFFFFF8
1FFFFFFF05FFFFFFFFF8
1FFFFFFF05FFFFFFFFF8
1FFFFFFF014444AFFFF8
1FFFFFFF1111119FFFF8
1FFFFFFFFFFFFFFFFFF8
0FFFFFFFFFFFFFFFFFF8
0DFFFFFFFFFFFFFFFFF5
07FFFFFFFFFFFFFFFFE1
01CFFFFFFFFFFFFFFF50
001BFFFFFFFFFFFFE600
00005ADFFFFFFEC81000
ENDCHAR
STARTCHAR lacute
ENCODING 314
SWIDTH 578 0
DWIDTH 19 0
BBX 20 31 -1 0
BITMAP
000000006ABA71000000
0000000BFFFFFF500000
0000004FFFFFFFF10000
0000009FFB06FFF30000
000000EFF70DFFE10000
000003FFF25FFF800000
000007FFD0CFFE100000
00000AFF84FFF6000000
00000AFFDEFFC0000000
000005FFFFFF95300000
0003BFFFFFFFFFFE7000
005FFFFF05FFFFFFFB10
02FFFFFF05FFFFFFFFA0
0AFFFFFF05FFFFFFFFF2
0EFFFFFF05FFFFFFFFF7
1FFFFFFF05FFFFFFFFF8
1FFFFFFF05FFFFFFFFF8
1FFFFFFF05FFFFFFFFF8
1FFFFFFF05FFFFFFFFF8
1FFFFFFF05FFFFFFFFF8
1FFFFFFF05FFFFFFFFF8
1FFFFFFF05FFFFFFFFF8
1FFFFFFF014444AFFFF8
1FFFFFFF1111119FFFF8
1FFFFFFFFFFFFFFFFFF8
0FFFFFFFFFFFFFFFFFF8
0DFFFFFFFFFFFFFFFFF5
07FFFFFFFFFFFFFFFFE1
01CFFFFFFFFFFFFFFF50
001BFFFFFFFFFFFFE600
00005ADFFFFFFEC81000
ENDCHAR
STARTCHAR Lcommaaccent
ENCODING 315
SWIDTH 578 0
DWIDTH 19 0
BBX 20 22 -1 0
BITMAP
00000146666665300000
0003BFFFFFFFFFFE7000
005FFFFF05FFFFFFFB10
02FFFFFF05FFFFFFFFA0
0AFFFFFF05FFFFFFFFF2
0EFFFFFF05FFFFFFFFF7
1FFFFFFF05FFFFFFFFF8
1FFFFFFF05FFFFFFFFF8
1FFFFFFF05FFFFFFFFF8
1FFFFFFF05FFFFFFFFF8
1FFFFFFF05FFFFFFFFF8
1FFFFFFF05FFFFFFFFF8
1FFFFFFF05FFFFFFFFF8
1FFFFFFF014444AFFFF8
1FFFFFFF1111119FFFF8
1FFFFFFFFFFFFFFFFFF8
0FFFFFFFFF22AFFFFFF8
0DFFFFFFFF00AFFFFFF5
07FFFFFFFFB0CFFFFFE1
01CFFFFFFF94FFFFFF50
001BFFFFFFFFFFFFE600
00005ADFFFFFFEC81000
ENDCHAR
STARTCHAR lcommaaccent
ENCODING 316
SWIDTH 578 0
DWIDTH 19 0
BBX 20 22 -1 0
BITMAP
00000146666665300000
0003BFFFFFFFFFFE7000
005FFFFF05FFFFFFFB10
02FFFFFF05FFFFFFFFA0
0AFFFFFF05FFFFFFFFF2
0EFFFFFF05FFFFFFFFF7
1FFFFFFF05FFFFFFFFF8
1FFFFFFF05FFFFFFFFF8
1FFFFFFF05FFFFFFFFF8
1FFFFFFF05FFFFFFFFF8
1FFFFFFF05FFFFFFFFF8
1FFFFFFF05FFFFFFFFF8
1FFFFFFF05FFFFFFFFF8
1FFFFFFF014444AFFFF8
1FFFFFFF1111119FFFF8
1FFFFFFFFFFFFFFFFFF8
0FFFFFFFFF22AFFFFFF8
0DFFFFFFFF00AFFFFFF5
07FFFFFFFFB0CFFFFFE1
01CFFFFFFF94FFFFFF50
001BFFFFFFFFFFFFE600
00005ADFFFFFFEC81000
ENDCHAR
STARTCHAR Lcaron
ENCODING 317
SWIDTH 578 0
DWIDTH 19 0
BBX 20 22 -1 0
BITMAP
00000146666665300000
0003BFFFFFFFFFFE7000
005FFFFF05FC00DFFB10
02FFFFFF05FC00DFFFA0
0AFFFFFF05FF92FFFFF2
0EFFFFFF05FF78FFFFF7
1FFFFFFF05FFFFFFFFF8
1FFFFFFF05FFFFFFFFF8
1FFFFFFF05FFFFFFFFF8
1FFFFFFF05FFFFFFFFF8
1FFFFFFF05FFFFFFFFF8
1FFFFFFF05FFFFFFFFF8
1FFFFFFF05FFFFFFFFF8
1FFFFFFF014444AFFFF8
1FFFFFFF1111119FFFF8
1FFFFFFFFFFFFFFFFFF8
0FFFFFFFFFFFFFFFFFF8
0DFFFFFFFFFFFFFFFFF5
07FFFFFFFFFFFFFFFFE1
01CFFFFFFFFFFFFFFF50
001BFFFFFFFFFFFFE600
00005ADFFFFFFEC81000
ENDCHAR
STARTCHAR lcaron
ENCODING 318
SWIDTH 578 0
DWIDTH 19 0
BBX 20 22 -1 0
BITMAP
00000146666665300000
0003BFFFFFFFFFFE7000
005FFFFF05FC00DFFB10
02FFFFFF05FC00DFFFA0
0AFFFFFF05FF92FFFFF2
0EFFFFFF05FF78FFFFF7
1FFFFFFF05FFFFFFFFF8
1FFFFFFF05FFFFFFFFF8
1FFFFFFF05FFFFFFFFF8
1FFFFFFF05FFFFFFFFF8
1FFFFFFF05FFFFFFFFF8
1FFFFFFF05FFFFFFFFF8
1FFFFFFF05FFFFFFFFF8
1FFFFFFF014444AFFFF8
1FFFFFFF1111119FFFF8
1FFFFFFFFFFFFFFFFFF8
0FFFFFFFFFFFFFFFFFF8
0DFFFFFFFFFFFFFFFFF5
07FFFFFFFFFFFFFFFFE1
01CFFFFFFFFFFFFFFF50
001BFFFFFFFFFFFFE600
00005ADFFFFFFEC81000
ENDCHAR
STARTCHAR Ldot
ENCODING 319
SWIDTH 578 0
DWIDTH 19 0
BBX 20 22 -1 0
BITMAP
00000146666665300000
0003BFFFFFFFFFFE7000
005FFFFF05FFFFFFFB10
02FFFFFF05FFFFFFFFA0
0AFFFFFF05FFFFFFFFF2
0EFFFFFF05FFFFFFFFF7
1FFFFFFF05F20DFFFFF8
1FFFFFFF05F20DFFFFF8
1FFFFFFF05FFFFFFFFF8
1FFFFFFF05FFFFFFFFF8
1FFFFFFF05FFFFFFFFF8
1FFFFFFF05FFFFFFFFF8
1FFFFFFF05FFFFFFFFF8
1FFFFFFF014444AFFFF8
1FFFFFFF1111119FFFF8
1FFFFFFFFFFFFFFFFFF8
0FFFFFFFFFFFFFFFFFF8
0DFFFFFFFFFFFFFFFFF5
07FFFFFFFFFFFFFFFFE1
01CFFFFFFFFFFFFFFF50
001BFFFFFFFFFFFFE600
00005ADFFFFFFEC81000
ENDCHAR
STARTCHAR ldot
ENCODING 320
SWIDTH 578 0
DWIDTH 19 0
BBX 20 22 -1 0
BITMAP
00000146666665300000
0003BFFFFFFFFFFE7000
005FFFFF05FFFFFFFB10
02FFFFFF05FFFFFFFFA0
0AFFFFFF05FFFFFFFFF2
0EFFFFFF05FFFFFFFFF7
1FFFFFFF05F20DFFFFF8
1FFFFFFF05F20DFFFFF8
1FFFFFFF05FFFFFFFFF8
1FFFFFFF05FFFFFFFFF8
1FFFFFFF05FFFFFFFFF8
1FFFFFFF05FFFFFFFFF8
1FFFFFFF05FFFFFFFFF8
1FFFFFFF014444AFFFF8
1FFFFFFF1111119FFFF8
1FFFFFFFFFFFFFFFFFF8
0FFFFFFFFFFFFFFFFFF8
0DFFFFFFFFFFFFFFFFF5
07FFFFFFFFFFFFFFFFE1
01CFFFFFFFFFFFFFFF50
001BFFFFFFFFFFFFE600
00005ADFFFFFFEC81000
ENDCHAR
STARTCHAR Lslash
ENCODING 321
SWIDTH 578 0
DWIDTH 19 0
BBX 20 22 -1 0
BITMAP
00000146666665300000
0003BFFFFFFFFFFE7000
005FFFFF05FFFFFFFB10
02FFFFFF05FFFFFFFFA0
0AFFFFFF05FFFFFFFFF2
0EFFFFFF05FFFFFFFFF7
1FFFFFFF0459FFFFFFF8
1FFFFFFF007EFFFFFFF8
1FFFFFA205FFFFFFFFF8
1FFFFF8B05FFFFFFFFF8
1FFFFFFF05FFFFFFFFF8
1FFFFFFF05FFFFFFFFF8
1FFFFFFF05FFFFFFFFF8
1FFFFFFF014444AFFFF8
1FFFFFFF1111119FFFF8
1FFFFFFFFFFFFFFFFFF8
0FFFFFFFFFFFFFFFFFF8
0DFFFFFFFFFFFFFFFFF5
07FFFFFFFFFFFFFFFFE1
01CFFFFFFFFFFFFFFF50
001BFFFFFFFFFFFFE600
00005ADFFFFFFEC81000
ENDCHAR
STARTCHAR lslash
ENCODING 322
SWIDTH 578 0
DWIDTH 19 0
BBX 20 22 -1 0
BITMAP
00000146666665300000
0003BFFFFFFFFFFE7000
005FFFFF05FFFFFFFB10
02FFFFFF05FFFFFFFFA0
0AFFFFFF05FFFFFFFFF2
0EFFFFFF05FFFFFFFFF7
1FFFFFFF0459FFFFFFF8
1FFFFFFF007EFFFFFFF8
1FFFFFA205FFFFFFFFF8
1FFFFF8B05FFFFFFFFF8
1FFFFFFF05FFFFFFFFF8
1FFFFFFF05FFFFFFFFF8
1FFFFFFF05FFFFFFFFF8
1FFFFFFF014444AFFFF8
1FFFFFFF1111119FFFF8
1FFFFFFFFFFFFFFFFFF8
0FFFFFFFFFFFFFFFFFF8
0DFFFFFFFFFFFFFFFFF5
07FFFFFFFFFFFFFFFFE1
01CFFFFFFFFFFFFFFF50
001BFFFFFFFFFFFFE600
00005ADFFFFFFEC81000
ENDCHAR
STARTCHAR Nacute
ENCODING 323
SWIDTH 578 0
DWIDTH 19 0
BBX 20 31 -1 0
BITMAP
00000000049BA8300000
000000006FFFFFFA0000
00000000EFFFFFFF6000
00000004FFF22FFF8000
00000009FFC08FFF5000
0000000DFF81EFFD0000
0000002FFF37FFF50000
0000005FFE0DFFB00000
0000005FFEDFFF200000
0000015FFFFFFD300000
0003BFFFFFFFFFFE7000
005FFF531000016FFB10
02FFFF0156665309FFA0
0AFFFF05FFFFFD07FFF2
0EFFFF05FFFFFD07FFF7
1FFFFF05FFFFFD07FFF8
1FFFFF05FFFFFD07FFF8
1FFFFF05FFFFFD07FFF8
1FFFFF05FFFFFD07FFF8
1FFFFF05FFFFFD07FFF8
1FFFFF05FFFFFD07FFF8
1FFFFF05FFFFFD07FFF8
1FFFFF05FFFFFD07FFF8
1FFFFF25FFFFFE17FFF8
1FFFFFFFFFFFFFFFFFF8
0FFFFFFFFFFFFFFFFFF8
0DFFFFFFFFFFFFFFFFF5
07FFFFFFFFFFFFFFFFE1
01CFFFFFFFFFFFFFFF50
001BFFFFFFFFFFFFE600
00005ADFFFFFFEC81000
ENDCHAR
STARTCHAR nacute
ENCODING 324
SWIDTH 578 0
DWIDTH 19 0
BBX 20 31 -1 0
BITMAP
00000000049BA8300000
000000006FFFFFFA0000
00000000EFFFFFFF6000
00000004FFF22FFF8000
00000009FFC08FFF5000
0000000DFF81EFFD0000
0000002FFF37FFF50000
0000005FFE0DFFB00000
0000005FFEDFFF200000
0000015FFFFFFD300000
0003BFFFFFFFFFFE7000
005FFF531000016FFB10
02FFFF0156665309FFA0
0AFFFF05FFFFFD07FFF2
0EFFFF05FFFFFD07FFF7
1FFFFF05FFFFFD07FFF8
1FFFFF05FFFFFD07FFF8
1FFFFF05FFFFFD07FFF8
1FFFFF05FFFFFD07FFF8
1FFFFF05FFFFFD07FFF8
1FFFFF05FFFFFD07FFF8
1FFFFF05FFFFFD07FFF8
1FFFFF05FFFFFD07FFF8
1FFFFF25FFFFFE17FFF8
1FFFFFFFFFFFFFFFFFF8
0FFFFFFFFFFFFFFFFFF8
0DFFFFFFFFFFFFFFFFF5
07FFFFFFFFFFFFFFFFE1
01CFFFFFFFFFFFFFFF50
001BFFFFFFFFFFFFE600
00005ADFFFFFFEC81000
ENDCHAR
STARTCHAR Ncommaaccent
ENCODING 325
SWIDTH 578 0
DWIDTH 19 0
BBX 20 22 -1 0
BITMAP
00000146666665300000
0003BFFFFFFFFFFE7000
005FFF531000016FFB10
02FFFF0156665309FFA0
0AFFFF05FFFFFD07FFF2
0EFFFF05FFFFFD07FFF7
1FFFFF05FFFFFD07FFF8
1FFFFF05FFFFFD07FFF8
1FFFFF05FFFFFD07FFF8
1FFFFF05FFFFFD07FFF8
1FFFFF05FFFFFD07FFF8
1FFFFF05FFFFFD07FFF8
1FFFFF05FFFFFD07FFF8
1FFFFF05FFFFFD07FFF8
1FFFFF25FFFFFE17FFF8
1FFFFFFFFFFFFFFFFFF8
0FFFFFFFFF22AFFFFFF8
0DFFFFFFFF00AFFFFFF5
07FFFFFFFFB0CFFFFFE1
01CFFFFFFF94FFFFFF50
001BFFFFFFFFFFFFE600
00005ADFFFFFFEC81000
ENDCHAR
STARTCHAR ncommaaccent
ENCODING 326
SWIDTH 578 0
DWIDTH 19 0
BBX 20 22 -1 0
BITMAP
00000146666665300000
0003BFFFFFFFFFFE7000
005FFF531000016FFB10
02FFFF0156665309FFA0
0AFFFF05FFFFFD07FFF2
0EFFFF05FFFFFD07FFF7
1FFFFF05FFFFFD07FFF8
1FFFFF05FFFFFD07FFF8
1FFFFF05FFFFFD07FFF8
1FFFFF05FFFFFD07FFF8
1FFFFF05FFFFFD07FFF8
1FFFFF05FFFFFD07FFF8
1FFFFF05FFFFFD07FFF8
1FFFFF05FFFFFD07FFF8
1FFFFF25FFFFFE17FFF8
1FFFFFFFFFFFFFFFFFF8
0FFFFFFFFF22AFFFFFF8
0DFFFFFFFF00AFFFFFF5
07FFFFFFFFB0CFFFFFE1
01CFFFFFFF94FFFFFF50
001BFFFFFFFFFFFFE600
00005ADFFFFFFEC81000
ENDCHAR
STARTCHAR Ncaron
ENCODING 327
SWIDTH 578 0
DWIDTH 19 0
BBX 20 31 -1 0
BITMAP
00000036620476200000
00000AFFFEBFFFE40000
00005FFFFFFFFFFC0000
00007FFB5FFB6FFE0000
00006FFE0DF57FFD0000
00003FFF58E1DFFB0000
00000EFFB3A4FFF70000
000009FFF24AFFF30000
000005FFFA7EFFD00000
000002FFFFFFFFB00000
0003BFFFFFFFFFFE7000
005FFF531000016FFB10
02FFFF0156665309FFA0
0AFFFF05FFFFFD07FFF2
0EFFFF05FFFFFD07FFF7
1FFFFF05FFFFFD07FFF8
1FFFFF05FFFFFD07FFF8
1FFFFF05FFFFFD07FFF8
1FFFFF05FFFFFD07FFF8
1FFFFF05FFFFFD07FFF8
1FFFFF05FFFFFD07FFF8
1FFFFF05FFFFFD07FFF8
1FFFFF05FFFFFD07FFF8
1FFFFF25FFFFFE17FFF8
1FFFFFFFFFFFFFFFFFF8
0FFFFFFFFFFFFFFFFFF8
0DFFFFFFFFFFFFFFFFF5
07FFFFFFFFFFFFFFFFE1
01CFFFFFFFFFFFFFFF50
001BFFFFFFFFFFFFE600
00005ADFFFFFFEC81000
ENDCHAR
STARTCHAR ncaron
ENCODING 328
SWIDTH 578 0
DWIDTH 19 0
BBX 20 31 -1 0
BITMAP
00000036620476200000
00000AFFFEBFFFE40000
00005FFFFFFFFFFC0000
00007FFB5FFB6FFE0000
00006FFE0DF57FFD0000
00003FFF58E1DFFB0000
00000EFFB3A4FFF70000
000009FFF24AFFF30000
000005FFFA7EFFD00000
000002FFFFFFFFB00000
0003BFFFFFFFFFFE7000
005FFF531000016FFB10
02FFFF0156665309FFA0
0AFFFF05FFFFFD07FFF2
0EFFFF05FFFFFD07FFF7
1FFFFF05FFFFFD07FFF8
1FFFFF05FFFFFD07FFF8
1FFFFF05FFFFFD07FFF8
1FFFFF05FFFFFD07FFF8
1FFFFF05FFFFFD07FFF8
1FFFFF05FFFFFD07FFF8
1FFFFF05FFFFFD07FFF8
1FFFFF05FFFFFD07FFF8
1FFFFF25FFFFFE17FFF8
1FFFFFFFFFFFFFFFFFF8
0FFFFFFFFFFFFFFFFFF8
0DFFFFFFFFFFFFFFFFF5
07FFFFFFFFFFFFFFFFE1
01CFFFFFFFFFFFFFFF50
001BFFFFFFFFFFFFE600
00005ADFFFFFFEC81000
ENDCHAR
STARTCHAR napostrophe
ENCODING 329
SWIDTH 578 0
DWIDTH 19 0
BBX 20 22 -1 0
BITMAP
00000146666665300000
0003BFFFFFFFFFFE7000
005FFF531000016FFB10
02C77F0156665309FFA0
0AA00F05FFFFFD07FFF2
0EC41F05FFFFFD07FFF7
1FF47F05FFFFFD07FFF8
1FFBEF05FFFFFD07FFF8
1FFFFF05FFFFFD07FFF8
1FFFFF05FFFFFD07FFF8
1FFFFF05FFFFFD07FFF8
1FFFFF05FFFFFD07FFF8
1FFFFF05FFFFFD07FFF8
1FFFFF05FFFFFD07FFF8
1FFFFF25FFFFFE17FFF8
1FFFFFFFFFFFFFFFFFF8
0FFFFFFFFFFFFFFFFFF8
0DFFFFFFFFFFFFFFFFF5
07FFFFFFFFFFFFFFFFE1
01CFFFFFFFFFFFFFFF50
001BFFFFFFFFFFFFE600
00005ADFFFFFFEC81000
ENDCHAR
STARTCHAR Eng
ENCODING 330
SWIDTH 578 0
DWIDTH 19 0
BBX 20 22 -1 0
BITMAP
00000146666665300000
0003BFFFFFFFFFFE7000
005FFF531000016FFB10
02FFFF0156665309FFA0
0AFFFF05FFFFFD07FFF2
0EFFFF05FFFFFD07FFF7
1FFFFF05FFFFFD07FFF8
1FFFFF05FFFFFD07FFF8
1FFFFF05FFFFFD07FFF8
1FFFFF05FFFFFD07FFF8
1FFFFF05FFFFFD07FFF8
1FFFFF05FFFFFD07FFF8
1FFFFF05FFFFFD07FFF8
1FFFFF05FFFFFD07FFF8
1FFFFF25FFFFFD07FFF8
1FFFFFFFFFFFFD07FFF8
0FFFFFFFFFFFFD07FFF8
0DFFFFFFFFDDD807FFF5
07FFFFFFFF50001AFFE1
01CFFFFFFFA889DFFF50
001BFFFFFFFFFFFFE600
00005ADFFFFFFEC81000
ENDCHAR
STARTCHAR eng
ENCODING 331
SWIDTH 578 0
DWIDTH 19 0
BBX 20 22 -1 0
BITMAP
00000146666665300000
0003BFFFFFFFFFFE7000
005FFF531000016FFB10
02FFFF0156665309FFA0
0AFFFF05FFFFFD07FFF2
0EFFFF05FFFFFD07FFF7
1FFFFF05FFFFFD07FFF8
1FFFFF05FFFFFD07FFF8
1FFFFF05FFFFFD07FFF8
1FFFFF05FFFFFD07FFF8
1FFFFF05FFFFFD07FFF8
1FFFFF05FFFFFD07FFF8
1FFFFF05FFFFFD07FFF8
1FFFFF05FFFFFD07FFF8
1FFFFF25FFFFFD07FFF8
1FFFFFFFFFFFFD07FFF8
0FFFFFFFFFFFFD07FFF8
0DFFFFFFFFDDD807FFF5
07FFFFFFFF50001AFFE1
01CFFFFFFFA889DFFF50
001BFFFFFFFFFFFFE600
00005ADFFFFFFEC81000
ENDCHAR
STARTCHAR Omacron
ENCODING 332
SWIDTH 578 0
DWIDTH 19 0
BBX 20 30 -1 0
BITMAP
00000000135530000000
0000003BFFFFFFA30000
000007FFFFFFFFFF6000
00005FFFFFFFFFFFF300
0000BFFFFFFFFFFFFA00
0000EFFC111115FFFD00
0000DFFD444448FFFB00
00008FFFFFFFFFFFF700
00001EFFFFFFFFFFC100
0003BFFFFFFFFFFF8000
005FFFD31000014EFB10
02FFFF4045555405FFA0
0AFFFF24FFFFFF32FFF2
0EFFFF14FFFFFF32FFF7
1FFFFF14FFFFFF32FFF8
1FFFFF14FFFFFF32FFF8
1FFFFF14FFFFFF32FFF8
1FFFFF14FFFFFF32FFF8
1FFFFF14FFFFFF32FFF8
1FFFFF14FFFFFF32FFF8
1FFFFF23FFFFFF22FFF8
1FFFFF4034444305FFF8
1FFFFFE42111124EFFF8
1FFFFFFFFFFFFFFFFFF8
0FFFFFFFFFFFFFFFFFF8
0DFFFFFFFFFFFFFFFFF5
07FFFFFFFFFFFFFFFFE1
01CFFFFFFFFFFFFFFF50
001BFFFFFFFFFFFFE600
00005ADFFFFFFEC81000
ENDCHAR
STARTCHAR omacron
ENCODING 333
SWIDTH 578 0
DWIDTH 19 0
BBX 20 30 -1 0
BITMAP
00000000135530000000
0000003BFFFFFFA30000
000007FFFFFFFFFF6000
00005FFFFFFFFFFFF300
0000BFFFFFFFFFFFFA00
0000EFFC111115FFFD00
0000DFFD444448FFFB00
00008FFFFFFFFFFFF700
00001EFFFFFFFFFFC100
0003BFFFFFFFFFFF8000
005FFFD31000014EFB10
02FFFF4045555405FFA0
0AFFFF24FFFFFF32FFF2
0EFFFF14FFFFFF32FFF7
1FFFFF14FFFFFF32FFF8
1FFFFF14FFFFFF32FFF8
1FFFFF14FFFFFF32FFF8
1FFFFF14FFFFFF32FFF8
1FFFFF14FFFFFF32FFF8
1FFFFF14FFFFFF32FFF8
1FFFFF23FFFFFF22FFF8
1FFFFF4034444305FFF8
1FFFFFE42111124EFFF8
1FFFFFFFFFFFFFFFFFF8
0FFFFFFFFFFFFFFFFFF8
0DFFFFFFFFFFFFFFFFF5
07FFFFFFFFFFFFFFFFE1
01CFFFFFFFFFFFFFFF50
001BFFFFFFFFFFFFE600
00005ADFFFFFFEC81000
ENDCHAR
STARTCHAR Obreve
ENCODING 334
SWIDTH 578 0
DWIDTH 19 0
BBX 20 30 -1 0
BITMAP
00000000135530000000
0000003BFFFFFFA30000
000007FFFFFFFFFF6000
00005FFFFFFFFFFFF300
0000BFFFFFFFFFFFFA00
0000EFFF69FF97FFFD00
0000DFFF428824FFFB00
00008FFFC3003DFFF700
00001EFFFFFFFFFFC100
0003BFFFFFFFFFFF8000
005FFFD31000014EFB10
02FFFF4045555405FFA0
0AFFFF24FFFFFF32FFF2
0EFFFF14FFFFFF32FFF7
1FFFFF14FFFFFF32FFF8
1FFFFF14FFFFFF32FFF8
1FFFFF14FFFFFF32FFF8
1FFFFF14FFFFFF32FFF8
1FFFFF14FFFFFF32FFF8
1FFFFF14FFFFFF32FFF8
1FFFFF23FFFFFF22FFF8
1FFFFF4034444305FFF8
1FFFFFE42111124EFFF8
1FFFFFFFFFFFFFFFFFF8
0FFFFFFFFFFFFFFFFFF8
0DFFFFFFFFFFFFFFFFF5
07FFFFFFFFFFFFFFFFE1
01CFFFFFFFFFFFFFFF50
001BFFFFFFFFFFFFE600
00005ADFFFFFFEC81000
ENDCHAR
STARTCHAR obreve
ENCODING 335
SWIDTH 578 0
DWIDTH 19 0
BBX 20 30 -1 0
BITMAP
00000000135530000000
0000003BFFFFFFA30000
000007FFFFFFFFFF6000
00005FFFFFFFFFFFF300
0000BFFFFFFFFFFFFA00
0000EFFF69FF97FFFD00
0000DFFF428824FFFB00
00008FFFC3003DFFF700
00001EFFFFFFFFFFC100
0003BFFFFFFFFFFF8000
005FFFD31000014EFB10
02FFFF4045555405FFA0
0AFFFF24FFFFFF32FFF2
0EFFFF14FFFFFF32FFF7
1FFFFF14FFFFFF32FFF8
1FFFFF14FFFFFF32FFF8
1FFFFF14FFFFFF32FFF8
1FFFFF14FFFFFF32FFF8
1FFFFF14FFFFFF32FFF8
1FFFFF14FFFFFF32FFF8
1FFFFF23FFFFFF22FFF8
1FFFFF4034444305FFF8
1FFFFFE42111124EFFF8
1FFFFFFFFFFFFFFFFFF8
0FFFFFFFFFFFFFFFFFF8
0DFFFFFFFFFFFFFFFFF5
07FFFFFFFFFFFFFFFFE1
01CFFFFFFFFFFFFFFF50
001BFFFFFFFFFFFFE600
00005ADFFFFFFEC81000
ENDCHAR
STARTCHAR Ohungarumlaut
ENCODING 336
SWIDTH 578 0
DWIDTH 19 0
BBX 20 32 -1 0
BITMAP
00000000000010001000
0000000001AEFDCFF600
000000000BFFFFFFFE10
000000005FFFFFFFFF70
00000000DFF92EF37FE1
00000006FFE1BFA2EFF6
0000001EFF76FF2BFFD1
0000008FFE2EF96FFF30
000000EFF6AFE3EFF800
000000EFFCFFEDFFD000
000001FFFFFFFFFF3000
0003BFFFFFFFFFFF7000
005FFFD31000014EFB10
02FFFF4045555405FFA0
0AFFFF24FFFFFF32FFF2
0EFFFF14FFFFFF32FFF7
1FFFFF14FFFFFF32FFF8
1FFFFF14FFFFFF32FFF8
1FFFFF14FFFFFF32FFF8
1FFFFF14FFFFFF32FFF8
1FFFFF14FFFFFF32FFF8
1FFFFF14FFFFFF32FFF8
1FFFFF23FFFFFF22FFF8
1FFFFF4034444305FFF8
1FFFFFE42111124EFFF8
1FFFFFFFFFFFFFFFFFF8
0FFFFFFFFFFFFFFFFFF8
0DFFFFFFFFFFFFFFFFF5
07FFFFFFFFFFFFFFFFE1
01CFFFFFFFFFFFFFFF50
001BFFFFFFFFFFFFE600
00005ADFFFFFFEC81000
ENDCHAR
STARTCHAR ohungarumlaut
ENCODING 337
SWIDTH 578 0
DWIDTH 19 0
BBX 20 32 -1 0
BITMAP
00000000000010001000
0000000001AEFDCFF600
000000000BFFFFFFFE10
000000005FFFFFFFFF70
00000000DFF92EF37FE1
00000006FFE1BFA2EFF6
0000001EFF76FF2BFFD1
0000008FFE2EF96FFF30
000000EFF6AFE3EFF800
000000EFFCFFEDFFD000
000001FFFFFFFFFF3000
0003BFFFFFFFFFFF7000
005FFFD31000014EFB10
02FFFF4045555405FFA0
0AFFFF24FFFFFF32FFF2
0EFFFF14FFFFFF32FFF7
1FFFFF14FFFFFF32FFF8
1FFFFF14FFFFFF32FFF8
1FFFFF14FFFFFF32FFF8
1FFFFF14FFFFFF32FFF8
1FFFFF14FFFFFF32FFF8
1FFFFF14FFFFFF32FFF8
1FFFFF23FFFFFF22FFF8
1FFFFF4034444305FFF8
1FFFFFE42111124EFFF8
1FFFFFFFFFFFFFFFFFF8
0FFFFFFFFFFFFFFFFFF8
0DFFFFFFFFFFFFFFFFF5
07FFFFFFFFFFFFFFFFE1
01CFFFFFFFFFFFFFFF50
001BFFFFFFFFFFFFE600
00005ADFFFFFFEC81000
ENDCHAR
STARTCHAR OE
ENCODING 338
SWIDTH 578 0
DWIDTH 19 0
BBX 20 22 -1 0
BITMAP
00000146666665300000
0003BFFFFFFFFFFE7000
005FF72001320000DB10
02FFB02554015555EFA0
0AFF90CFFF32FFFFFFF2
0EFF80CFFF42FFFFFFF7
1FFF80CFFF42FFFFFFF8
1FFF80CFFF41AAACFFF8
1FFF80CFFF400006FFF8
1FFF80CFFF41BBBCFFF8
1FFF80CFFF41FFFFFFF8
1FFF80CFFF41FFFFFFF8
1FFF90BFFF31FFFFFFF8
1FFFB01443004444BFF8
1FFFF83112431111AFF8
1FFFFFFFFFFFFFFFFFF8
0FFFFFFFFFFFFFFFFFF8
0DFFFFFFFFFFFFFFFFF5
07FFFFFFFFFFFFFFFFE1
01CFFFFFFFFFFFFFFF50
001BFFFFFFFFFFFFE600
00005ADFFFFFFEC81000
ENDCHAR
STARTCHAR oe
ENCODING 339
SWIDTH 578 0
DWIDTH 19 0
BBX 20 22 -1 0
BITMAP
00000146666665300000
0003BFFFFFFFFFFE7000
005FF72001320000DB10
02FFB02554015555EFA0
0AFF90CFFF32FFFFFFF2
0EFF80CFFF42FFFFFFF7
1FFF80CFFF42FFFFFFF8
1FFF80CFFF41AAACFFF8
1FFF80CFFF400006FFF8
1FFF80CFFF41BBBCFFF8
1FFF80CFFF41FFFFFFF8
1FFF80CFFF41FFFFFFF8
1FFF90BFFF31FFFFFFF8
1FFFB01443004444BFF8
1FFFF83112431111AFF8
1FFFFFFFFFFFFFFFFFF8
0FFFFFFFFFFFFFFFFFF8
0DFFFFFFFFFFFFFFFFF5
07FFFFFFFFFFFFFFFFE1
01CFFFFFFFFFFFFFFF50
001BFFFFFFFFFFFFE600
00005ADFFFFFFEC81000
ENDCHAR
STARTCHAR Racute
ENCODING 340
SWIDTH 578 0
DWIDTH 19 0
BBX 20 31 -1 0
BITMAP
00000000049BA8300000
000000006FFFFFFA0000
00000000EFFFFFFF6000
00000004FFF22FFF8000
00000009FFC08FFF5000
0000000DFF81EFFD0000
0000002FFF37FFF50000
0000005FFE0DFFB00000
0000005FFEDFFF200000
0000015FFFFFFD300000
0003BFFFFFFFFFFE7000
005FFF60000013EFFB10
02FFFF605555304FFFA0
0AFFFF60EFFFF41FFFF2
0EFFFF60EFFFF50FFFF7
1FFFFF60EFFFF51FFFF8
1FFFFF60EFFFD15FFFF8
1FFFFF60111108EFFFF8
1FFFFF604444219FFFF8
1FFFFF60EFFFF41FFFF8
1FFFFF60EFFFF70DFFF8
1FFFFF60EFFFF70DFFF8
1FFFFF60EFFFF70DFFF8
1FFFFF61EFFFF71EFFF8
1FFFFFFFFFFFFFFFFFF8
0FFFFFFFFFFFFFFFFFF8
0DFFFFFFFFFFFFFFFFF5
07FFFFFFFFFFFFFFFFE1
01CFFFFFFFFFFFFFFF50
001BFFFFFFFFFFFFE600
00005ADFFFFFFEC81000
ENDCHAR
STARTCHAR racute
ENCODING 341
SWIDTH 578 0
DWIDTH 19 0
BBX 20 31 -1 0
BITMAP
00000000049BA8300000
000000006FFFFFFA0000
00000000EFFFFFFF6000
00000004FFF22FFF8000
00000009FFC08FFF5000
0000000DFF81EFFD0000
0000002FFF37FFF50000
0000005FFE0DFFB00000
0000005FFEDFFF200000
0000015FFFFFFD300000
0003BFFFFFFFFFFE7000
005FFF60000013EFFB10
02FFFF605555304FFFA0
0AFFFF60EFFFF41FFFF2
0EFFFF60EFFFF50FFFF7
1FFFFF60EFFFF51FFFF8
1FFFFF60EFFFD15FFFF8
1FFFFF60111108EFFFF8
1FFFFF604444219FFFF8
1FFFFF60EFFFF41FFFF8
1FFFFF60EFFFF70DFFF8
1FFFFF60EFFFF70DFFF8
1FFFFF60EFFFF70DFFF8
1FFFFF61EFFFF71EFFF8
1FFFFFFFFFFFFFFFFFF8
0FFFFFFFFFFFFFFFFFF8
0DFFFFFFFFFFFFFFFFF5
07FFFFFFFFFFFFFFFFE1
01CFFFFFFFFFFFFFFF50
001BFFFFFFFFFFFFE600
00005ADFFFFFFEC81000
ENDCHAR
STARTCHAR Rcommaaccent
ENCODING 342
SWIDTH 578 0
DWIDTH 19 0
BBX 20 22 -1 0
BITMAP
00000146666665300000
0003BFFFFFFFFFFE7000
005FFF60000013EFFB10
02FFFF605555304FFFA0
0AFFFF60EFFFF41FFFF2
0EFFFF60EFFFF50FFFF7
1FFFFF60EFFFF51FFFF8
1FFFFF60EFFFD15FFFF8
1FFFFF60111108EFFFF8
1FFFFF604444219FFFF8
1FFFFF60EFFFF41FFFF8
1FFFFF60EFFFF70DFFF8
1FFFFF60EFFFF70DFFF8
1FFFFF60EFFFF70DFFF8
1FFFFF61EFFFF71EFFF8
1FFFFFFFFFFFFFFFFFF8
0FFFFFFFFF22AFFFFFF8
0DFFFFFFFF00AFFFFFF5
07FFFFFFFFB0CFFFFFE1
01CFFFFFFF94FFFFFF50
001BFFFFFFFFFFFFE600
00005ADFFFFFFEC81000
ENDCHAR
STARTCHAR rcommaaccent
ENCODING 343
SWIDTH 578 0
DWIDTH 19 0
BBX 20 22 -1 0
BITMAP
00000146666665300000
0003BFFFFFFFFFFE7000
005FFF60000013EFFB10
02FFFF605555304FFFA0
0AFFFF60EFFFF41FFFF2
0EFFFF60EFFFF50FFFF7
1FFFFF60EFFFF51FFFF8
1FFFFF60EFFFD15FFFF8
1FFFFF60111108EFFFF8
1FFFFF604444219FFFF8
1FFFFF60EFFFF41FFFF8
1FFFFF60EFFFF70DFFF8
1FFFFF60EFFFF70DFFF8
1FFFFF60EFFFF70DFFF8
1FFFFF61EFFFF71EFFF8
1FFFFFFFFFFFFFFFFFF8
0FFFFFFFFF22AFFFFFF8
0DFFFFFFFF00AFFFFFF5
07FFFFFFFFB0CFFFFFE1
01CFFFFFFF94FFFFFF50
001BFFFFFFFFFFFFE600
00005ADFFFFFFEC81000
ENDCHAR
STARTCHAR Rcaron
ENCODING 344
SWIDTH 578 0
DWIDTH 19 0
BBX 20 31 -1 0
BITMAP
00000036620476200000
00000AFFFEBFFFE40000
00005FFFFFFFFFFC0000
00007FFB5FFB6FFE0000
00006FFE0DF57FFD0000
00003FFF58E1DFFB0000
00000EFFB3A4FFF70000
000009FFF24AFFF30000
000005FFFA7EFFD00000
000002FFFFFFFFB00000
0003BFFFFFFFFFFE7000
005FFF60000013EFFB10
02FFFF605555304FFFA0
0AFFFF60EFFFF41FFFF2
0EFFFF60EFFFF50FFFF7
1FFFFF60EFFFF51FFFF8
1FFFFF60EFFFD15FFFF8
1FFFFF60111108EFFFF8
1FFFFF604444219FFFF8
1FFFFF60EFFFF41FFFF8
1FFFFF60EFFFF70DFFF8
1FFFFF60EFFFF70DFFF8
1FFFFF60EFFFF70DFFF8
1FFFFF61EFFFF71EFFF8
1FFFFFFFFFFFFFFFFFF8
0FFFFFFFFFFFFFFFFFF8
0DFFFFFFFFFFFFFFFFF5
07FFFFFFFFFFFFFFFFE1
01CFFFFFFFFFFFFFFF50
001BFFFFFFFFFFFFE600
00005ADFFFFFFEC81000
ENDCHAR
STARTCHAR rcaron
ENCODING 345
SWIDTH 578 0
DWIDTH 19 0
BBX 20 31 -1 0
BITMAP
00000036620476200000
00000AFFFEBFFFE40000
00005FFFFFFFFFFC0000
00007FFB5FFB6FFE0000
00006FFE0DF57FFD0000
00003FFF58E1DFFB0000
00000EFFB3A4FFF70000
000009FFF24AFFF30000
000005FFFA7EFFD00000
000002FFFFFFFFB00000
0003BFFFFFFFFFFE7000
005FFF60000013EFFB10
02FFFF605555304FFFA0
0AFFFF60EFFFF41FFFF2
0EFFFF60EFFFF50FFFF7
1FFFFF60EFFFF51FFFF8
1FFFFF60EFFFD15FFFF8
1FFFFF60111108EFFFF8
1FFFFF604444219FFFF8
1FFFFF60EFFFF41FFFF8
1FFFFF60EFFFF70DFFF8
1FFFFF60EFFFF70DFFF8
1FFFFF60EFFFF70DFFF8
1FFFFF61EFFFF71EFFF8
1FFFFFFFFFFFFFFFFFF8
0FFFFFFFFFFFFFFFFFF8
0DFFFFFFFFFFFFFFFFF5
07FFFFFFFFFFFFFFFFE1
01CFFFFFFFFFFFFFFF50
001BFFFFFFFFFFFFE600
00005ADFFFFFFEC81000
ENDCHAR
STARTCHAR Sacute
ENCODING 346
SWIDTH 578 0
DWIDTH 19 0
BBX 20 31 -1 0
BITMAP
00000000016ABA710000
000000000CFFFFFE5000
000000005FFFFFFFE100
00000000AFFB07FFF200
00000000EFF60EFFE000
00000004FFF26FFF7000
00000008FFC0DFFD1000
0000000BFF84FFF50000
0000000BFFDEFFB00000
0000014AFFFFFF600000
0003BFFFFFFFFFFE7000
005FFFF62000002EFB10
02FFFF902555543FFFA0
0AFFFF70DFFFFFFFFFF2
0EFFFF70EFFFFFFFFFF7
1FFFFF70DFFFFFFFFFF8
1FFFFF80588889DFFFF8
1FFFFFE30000001CFFF8
1FFFFFFFECCCC907FFF8
1FFFFFFFFFFFFE06FFF8
1FFFFFFFFFFFFE06FFF8
1FFFFFFFFFFFFD07FFF8
1FFFFFF334444209FFF8
1FFFFFF32111127FFFF8
1FFFFFFFFFFFFFFFFFF8
0FFFFFFFFFFFFFFFFFF8
0DFFFFFFFFFFFFFFFFF5
07FFFFFFFFFFFFFFFFE1
01CFFFFFFFFFFFFFFF50
001BFFFFFFFFFFFFE600
00005ADFFFFFFEC81000
ENDCHAR
STARTCHAR sacute
ENCODING 347
SWIDTH 578 0
DWIDTH 19 0
BBX 20 31 -1 0
BITMAP
00000000016ABA710000
000000000CFFFFFE5000
000000005FFFFFFFE100
00000000AFFB07FFF200
00000000EFF60EFFE000
00000004FFF26FFF7000
00000008FFC0DFFD1000
0000000BFF84FFF50000
0000000BFFDEFFB00000
0000014AFFFFFF600000
0003BFFFFFFFFFFE7000
005FFFF62000002EFB10
02FFFF902555543FFFA0
0AFFFF70DFFFFFFFFFF2
0EFFFF70EFFFFFFFFFF7
1FFFFF70DFFFFFFFFFF8
1FFFFF80588889DFFFF8
1FFFFFE30000001CFFF8
1FFFFFFFECCCC907FFF8
1FFFFFFFFFFFFE06FFF8
1FFFFFFFFFFFFE06FFF8
1FFFFFFFFFFFFD07FFF8
1FFFFFF334444209FFF8
1FFFFFF32111127FFFF8
1FFFFFFFFFFFFFFFFFF8
0FFFFFFFFFFFFFFFFFF8
0DFFFFFFFFFFFFFFFFF5
07FFFFFFFFFFFFFFFFE1
01CFFFFFFFFFFFFFFF50
001BFFFFFFFFFFFFE600
00005ADFFFFFFEC81000
ENDCHAR
STARTCHAR Scircumflex
ENCODING 348
SWIDTH 578 0
DWIDTH 19 0
BBX 20 32 -1 0
BITMAP
00000000025640000000
000000008FFFFB100000
00000004FFFFFF800000
0000000BFFCAFFE10000
0000003FFF22CFF70000
0000009FFB386FFD0000
000000EFF58D1FFF4000
000005FFE0DF2AFF9000
000008FF94FF85FFD000
000008FFFFFFFFFFD000
000005FFFFFFFFFF8000
0003BFFFFFFFFFFF7000
005FFFF62000002EFB10
02FFFF902555543FFFA0
0AFFFF70DFFFFFFFFFF2
0EFFFF70EFFFFFFFFFF7
1FFFFF70DFFFFFFFFFF8
1FFFFF80588889DFFFF8
1FFFFFE30000001CFFF8
1FFFFFFFECCCC907FFF8
1FFFFFFFFFFFFE06FFF8
1FFFFFFFFFFFFE06FFF8
1FFFFFFFFFFFFD07FFF8
1FFFFFF334444209FFF8
1FFFFFF32111127FFFF8
1FFFFFFFFFFFFFFFFFF8
0FFFFFFFFFFFFFFFFFF8
0DFFFFFFFFFFFFFFFFF5
07FFFFFFFFFFFFFFFFE1
01CFFFFFFFFFFFFFFF50
001BFFFFFFFFFFFFE600
00005ADFFFFFFEC81000
ENDCHAR
STARTCHAR scircumflex
ENCODING 349
SWIDTH 578 0
DWIDTH 19 0
BBX 20 32 -1 0
BITMAP
00000000025640000000
000000008FFFFB100000
00000004FFFFFF800000
0000000BFFCAFFE10000
0000003FFF22CFF70000
0000009FFB386FFD0000
000000EFF58D1FFF4000
000005FFE0DF2AFF9000
000008FF94FF85FFD000
000008FFFFFFFFFFD000
000005FFFFFFFFFF8000
0003BFFFFFFFFFFF7000
005FFFF62000002EFB10
02FFFF902555543FFFA0
0AFFFF70DFFFFFFFFFF2
0EFFFF70EFFFFFFFFFF7
1FFFFF70DFFFFFFFFFF8
1FFFFF80588889DFFFF8
1FFFFFE30000001CFFF8
1FFFFFFFECCCC907FFF8
1FFFFFFFFFFFFE06FFF8
1FFFFFFFFFFFFE06FFF8
1FFFFFFFFFFFFD07FFF8
1FFFFFF334444209FFF8
1FFFFFF32111127FFFF8
1FFFFFFFFFFFFFFFFFF8
0FFFFFFFFFFFFFFFFFF8
0DFFFFFFFFFFFFFFFFF5
07FFFFFFFFFFFFFFFFE1
01CFFFFFFFFFFFFFFF50
001BFFFFFFFFFFFFE600
00005ADFFFFFFEC81000
ENDCHAR
STARTCHAR Scedilla
ENCODING 350
SWIDTH 578 0
DWIDTH 19 0
BBX 20 22 -1 0
BITMAP
00000146666665300000
0003BFFFFFFFFFFE7000
005FFFF62000002EFB10
02FFFF902555543FFFA0
0AFFFF70DFFFFFFFFFF2
0EFFFF70EFFFFFFFFFF7
1FFFFF70DFFFFFFFFFF8
1FFFFF80588889DFFFF8
1FFFFFE30000001CFFF8
1FFFFFFFECCCC907FFF8
1FFFFFFFFFFFFE06FFF8
1FFFFFFFFFFFFE06FFF8
1FFFFFFFFFFFFD07FFF8
1FFFFFF334444209FFF8
1FFFFFF32110127FFFF8
1FFFFFFFFA53FFFFFFF8
0FFFFFFFB025FFFFFFF8
0DFFFFFF80FFFFFFFFF5
07FFFFFFA069FFFFFFE1
01CFFFFFF723FFFFFF50
001BFFFFFFFFFFFFE600
00005ADFFFFFFEC81000
ENDCHAR
STARTCHAR scedilla
ENCODING 351
SWIDTH 578 0
DWIDTH 19 0
BBX 20 22 -1 0
BITMAP
00000146666665300000
0003BFFFFFFFFFFE7000
005FFFF62000002EFB10
02FFFF902555543FFFA0
0AFFFF70DFFFFFFFFFF2
0EFFFF70EFFFFFFFFFF7
1FFFFF70DFFFFFFFFFF8
1FFFFF80588889DFFFF8
1FFFFFE30000001CFFF8
1FFFFFFFECCCC907FFF8
1FFFFFFFFFFFFE06FFF8
1FFFFFFFFFFFFE06FFF8
1FFFFFFFFFFFFD07FFF8
1FFFFFF334444209FFF8
1FFFFFF32110127FFFF8
1FFFFFFFFA53FFFFFFF8
0FFFFFFFB025FFFFFFF8
0DFFFFFF80FFFFFFFFF5
07FFFFFFA069FFFFFFE1
01CFFFFFF723FFFFFF50
001BFFFFFFFFFFFFE600
00005ADFFFFFFEC81000
ENDCHAR
STARTCHAR Scaron
ENCODING 352
SWIDTH 578 0
DWIDTH 19 0
BBX 20 31 -1 0
BITMAP
00000003672047620000
0000009FFFFBFFFE4000
000004FFFFFFFFFFC000
000007FFB5FFB5FFF000
000005FFE1CF57FFE000
000002FFF67F1CFFB000
000000DFFC2B3FFF8000
0000009FFF249FFF3000
0000004FFFB7EFFD0000
0000015FFFFFFFF80000
0003BFFFFFFFFFFF7000
005FFFF62000002EFB10
02FFFF902555543FFFA0
0AFFFF70DFFFFFFFFFF2
0EFFFF70EFFFFFFFFFF7
1FFFFF70DFFFFFFFFFF8
1FFFFF80588889DFFFF8
1FFFFFE30000001CFFF8
1FFFFFFFECCCC907FFF8
1FFFFFFFFFFFFE06FFF8
1FFFFFFFFFFFFE06FFF8
1FFFFFFFFFFFFD07FFF8
1FFFFFF334444209FFF8
1FFFFFF32111127FFFF8
1FFFFFFFFFFFFFFFFFF8
0FFFFFFFFFFFFFFFFFF8
0DFFFFFFFFFFFFFFFFF5
07FFFFFFFFFFFFFFFFE1
01CFFFFFFFFFFFFFFF50
001BFFFFFFFFFFFFE600
00005ADFFFFFFEC81000
ENDCHAR
STARTCHAR scaron
ENCODING 353
SWIDTH 578 0
DWIDTH 19 0
BBX 20 31 -1 0
BITMAP
00000003672047620000
0000009FFFFBFFFE4000
000004FFFFFFFFFFC000
000007FFB5FFB5FFF000
000005FFE1CF57FFE000
000002FFF67F1CFFB000
000000DFFC2B3FFF8000
0000009FFF249FFF3000
0000004FFFB7EFFD0000
0000015FFFFFFFF80000
0003BFFFFFFFFFFF7000
005FFFF62000002EFB10
02FFFF902555543FFFA0
0AFFFF70DFFFFFFFFFF2
0EFFFF70EFFFFFFFFFF7
1FFFFF70DFFFFFFFFFF8
1FFFFF80588889DFFFF8
1FFFFFE30000001CFFF8
1FFFFFFFECCCC907FFF8
1FFFFFFFFFFFFE06FFF8
1FFFFFFFFFFFFE06FFF8
1FFFFFFFFFFFFD07FFF8
1FFFFFF334444209FFF8
1FFFFFF32111127FFFF8
1FFFFFFFFFFFFFFFFFF8
0FFFFFFFFFFFFFFFFFF8
0DFFFFFFFFFFFFFFFFF5
07FFFFFFFFFFFFFFFFE1
01CFFFFFFFFFFFFFFF50
001BFFFFFFFFFFFFE600
00005ADFFFFFFEC81000
ENDCHAR
STARTCHAR Tcommaaccent
ENCODING 354
SWIDTH 578 0
DWIDTH 19 0
BBX 20 22 -1 0
BITMAP
00000146666665300000
0003BFFFFFFFFFFE7000
005FFF9000000006FB10
02FFFFB555105559FFA0
0AFFFFFFFF41FFFFFFF2
0EFFFFFFFF41FFFFFFF7
1FFFFFFFFF41FFFFFFF8
1FFFFFFFFF41FFFFFFF8
1FFFFFFFFF41FFFFFFF8
1FFFFFFFFF41FFFFFFF8
1FFFFFFFFF41FFFFFFF8
1FFFFFFFFF41FFFFFFF8
1FFFFFFFFF41FFFFFFF8
1FFFFFFFFF41FFFFFFF8
1FFFFFFFFF52FFFFFFF8
1FFFFFFFFFFFFFFFFFF8
0FFFFFFFFF22AFFFFFF8
0DFFFFFFFF00AFFFFFF5
07FFFFFFFFB0CFFFFFE1
01CFFFFFFF94FFFFFF50
001BFFFFFFFFFFFFE600
00005ADFFFFFFEC81000
ENDCHAR
STARTCHAR tcommaaccent
ENCODING 355
SWIDTH 578 0
DWIDTH 19 0
BBX 20 22 -1 0
BITMAP
00000146666665300000
0003BFFFFFFFFFFE7000
005FFF9000000006FB10
02FFFFB555105559FFA0
0AFFFFFFFF41FFFFFFF2
0EFFFFFFFF41FFFFFFF7
1FFFFFFFFF41FFFFFFF8
1FFFFFFFFF41FFFFFFF8
1FFFFFFFFF41FFFFFFF8
1FFFFFFFFF41FFFFFFF8
1FFFFFFFFF41FFFFFFF8
1FFFFFFFFF41FFFFFFF8
1FFFFFFFFF41FFFFFFF8
1FFFFFFFFF41FFFFFFF8
1FFFFFFFFF52FFFFFFF8
1FFFFFFFFFFFFFFFFFF8
0FFFFFFFFF22AFFFFFF8
0DFFFFFFFF00AFFFFFF5
07FFFFFFFFB0CFFFFFE1
01CFFFFFFF94FFFFFF50
001BFFFFFFFFFFFFE600
00005ADFFFFFFEC81000
ENDCHAR
STARTCHAR Tcaron
ENCODING 356
SWIDTH 578 0
DWIDTH 19 0
BBX 20 31 -1 0
BITMAP
00000005750167500000
000002DFFFCDFFFC0000
00000BFFFFFFFFFF6000
00000DFF7AFF6AFF9000
00000CFF93FE0DFF7000
000009FFE1E94FFF5000
000005FFF594AFFF1000
000001FFFB31EFFC0000
000000BFFF79FFF70000
000001AFFFFFFFF20000
0003BFFFFFFFFFFE7000
005FFF9000000006FB10
02FFFFB555105559FFA0
0AFFFFFFFF41FFFFFFF2
0EFFFFFFFF41FFFFFFF7
1FFFFFFFFF41FFFFFFF8
1FFFFFFFFF41FFFFFFF8
1FFFFFFFFF41FFFFFFF8
1FFFFFFFFF41FFFFFFF8
1FFFFFFFFF41FFFFFFF8
1FFFFFFFFF41FFFFFFF8
1FFFFFFFFF41FFFFFFF8
1FFFFFFFFF41FFFFFFF8
1FFFFFFFFF52FFFFFFF8
1FFFFFFFFFFFFFFFFFF8
0FFFFFFFFFFFFFFFFFF8
0DFFFFFFFFFFFFFFFFF5
07FFFFFFFFFFFFFFFFE1
01CFFFFFFFFFFFFFFF50
001BFFFFFFFFFFFFE600
00005ADFFFFFFEC81000
ENDCHAR
STARTCHAR tcaron
ENCODING 357
SWIDTH 578 0
DWIDTH 19 0
BBX 20 22 -1 0
BITMAP
00000146666665300000
0003BFFFFFFFFFFE7000
005FFF9000000006FB10
02FFFFB555105559FFA0
0AFFFFFFFF41FA9BFFF2
0EFFFFFFFF41F306FFF7
1FFFFFFFFF41F817FFF8
1FFFFFFFFF41FD0CFFF8
1FFFFFFFFF41FE9FFFF8
1FFFFFFFFF41FFFFFFF8
1FFFFFFFFF41FFFFFFF8
1FFFFFFFFF41FFFFFFF8
1FFFFFFFFF41FFFFFFF8
1FFFFFFFFF41FFFFFFF8
1FFFFFFFFF52FFFFFFF8
1FFFFFFFFFFFFFFFFFF8
0FFFFFFFFFFFFFFFFFF8
0DFFFFFFFFFFFFFFFFF5
07FFFFFFFFFFFFFFFFE1
01CFFFFFFFFFFFFFFF50
001BFFFFFFFFFFFFE600
00005ADFFFFFFEC81000
ENDCHAR
STARTCHAR Tbar
ENCODING 358
SWIDTH 578 0
DWIDTH 19 0
BBX 20 22 -1 0
BITMAP
00000146666665300000
0003BFFFFFFFFFFE7000
005FFF9000000006FB10
02FFFFB555105559FFA0
0AFFFFFFFF41FFFFFFF2
0EFFFFFFFF41FFFFFFF7
1FFFFFFFFF41FFFFFFF8
1FFFFFFFFF41FFFFFFF8
1FFFFFFF200000FFFFF8
1FFFFFFF992099FFFFF8
1FFFFFFFFF41FFFFFFF8
1FFFFFFFFF41FFFFFFF8
1FFFFFFFFF41FFFFFFF8
1FFFFFFFFF41FFFFFFF8
1FFFFFFFFF52FFFFFFF8
1FFFFFFFFFFFFFFFFFF8
0FFFFFFFFFFFFFFFFFF8
0DFFFFFFFFFFFFFFFFF5
07FFFFFFFFFFFFFFFFE1
01CFFFFFFFFFFFFFFF50
001BFFFFFFFFFFFFE600
00005ADFFFFFFEC81000
ENDCHAR
STARTCHAR tbar
ENCODING 359
SWIDTH 578 0
DWIDTH 19 0
BBX 20 22 -1 0
BITMAP
00000146666665300000
0003BFFFFFFFFFFE7000
005FFF9000000006FB10
02FFFFB555105559FFA0
0AFFFFFFFF41FFFFFFF2
0EFFFFFFFF41FFFFFFF7
1FFFFFFFFF41FFFFFFF8
1FFFFFFFFF41FFFFFFF8
1FFFFFFF200000FFFFF8
1FFFFFFF992099FFFFF8
1FFFFFFFFF41FFFFFFF8
1FFFFFFFFF41FFFFFFF8
1FFFFFFFFF41FFFFFFF8
1FFFFFFFFF41FFFFFFF8
1FFFFFFFFF52FFFFFFF8
1FFFFFFFFFFFFFFFFFF8
0FFFFFFFFFFFFFFFFFF8
0DFFFFFFFFFFFFFFFFF5
07FFFFFFFFFFFFFFFFE1
01CFFFFFFFFFFFFFFF50
001BFFFFFFFFFFFFE600
00005ADFFFFFFEC81000
ENDCHAR
STARTCHAR Utilde
ENCODING 360
SWIDTH 578 0
DWIDTH 19 0
BBX 20 31 -1 0
BITMAP
00000000024420000000
00000018EFFFFE810000
000002DFFFFFFFFD3000
00000DFFFFFFFFFFE100
00006FFFFFFFFFFFF800
0000BFFFFFFFFFFFFC00
0000DFFFDDFFE9DFFE00
0000CFFA001860BFFD00
00008FF61D8201EFF900
00002FFFFFFFFFFFF300
0003BFFFFFFFFFFFD000
005FFF06FFFFFF23FB10
02FFFF06FFFFFF23FFA0
0AFFFF06FFFFFF23FFF2
0EFFFF06FFFFFF23FFF7
1FFFFF06FFFFFF23FFF8
1FFFFF06FFFFFF23FFF8
1FFFFF06FFFFFF23FFF8
1FFFFF06FFFFFF23FFF8
1FFFFF06FFFFFF23FFF8
1FFFFF06FFFFFF23FFF8
1FFFFF04FFFFFF14FFF8
1FFFFF3034444206FFF8
1FFFFFD42111125EFFF8
1FFFFFFFFFFFFFFFFFF8
0FFFFFFFFFFFFFFFFFF8
0DFFFFFFFFFFFFFFFFF5
07FFFFFFFFFFFFFFFFE1
01CFFFFFFFFFFFFFFF50
001BFFFFFFFFFFFFE600
00005ADFFFFFFEC81000
ENDCHAR
STARTCHAR utilde
ENCODING 361
SWIDTH 578 0
DWIDTH 19 0
BBX 20 31 -1 0
BITMAP
00000000024430000000
00000017DFFFFE810000
000002DFFFFFFFFE3000
00000CFFFFFFFFFFE100
00006FFFFFFFFFFFF800
0000AFFFFFFFFFFFFD00
0000CFFFDDFFE9DFFF00
0000BFFA001860BFFE00
00008FF61D8201EFFA00
00001FFFFFFFFFFFF300
0003BFFFFFFFFFFFD000
005FFF06FFFFFF23FB10
02FFFF06FFFFFF23FFA0
0AFFFF06FFFFFF23FFF2
0EFFFF06FFFFFF23FFF7
1FFFFF06FFFFFF23FFF8
1FFFFF06FFFFFF23FFF8
1FFFFF06FFFFFF23FFF8
1FFFFF06FFFFFF23FFF8
1FFFFF06FFFFFF23FFF8
1FFFFF06FFFFFF23FFF8
1FFFFF04FFFFFF14FFF8
1FFFFF3034444206FFF8
1FFFFFD42111125EFFF8
1FFFFFFFFFFFFFFFFFF8
0FFFFFFFFFFFFFFFFFF8
0DFFFFFFFFFFFFFFFFF5
07FFFFFFFFFFFFFFFFE1
01CFFFFFFFFFFFFFFF50
001BFFFFFFFFFFFFE600
00005ADFFFFFFEC81000
ENDCHAR
STARTCHAR Umacron
ENCODING 362
SWIDTH 578 0
DWIDTH 19 0
BBX 20 30 -1 0
BITMAP
00000000035531000000
0000003AFFFFFFB30000
000006FFFFFFFFFF7000
00003FFFFFFFFFFFF500
0000AFFFFFFFFFFFFC00
0000CFFD111114FFFE00
0000BFFE444447FFFD00
00007FFFFFFFFFFFF800
00001DFFFFFFFFFFD100
0003BFFFFFFFFFFF9000
005FFF06FFFFFF23FB10
02FFFF06FFFFFF23FFA0
0AFFFF06FFFFFF23FFF2
0EFFFF06FFFFFF23FFF7
1FFFFF06FFFFFF23FFF8
1FFFFF06FFFFFF23FFF8
1FFFFF06FFFFFF23FFF8
1FFFFF06FFFFFF23FFF8
1FFFFF06FFFFFF23FFF8
1FFFFF06FFFFFF23FFF8
1FFFFF04FFFFFF14FFF8
1FFFFF3034444206FFF8
1FFFFFD42111125EFFF8
1FFFFFFFFFFFFFFFFFF8
0FFFFFFFFFFFFFFFFFF8
0DFFFFFFFFFFFFFFFFF5
07FFFFFFFFFFFFFFFFE1
01CFFFFFFFFFFFFFFF50
001BFFFFFFFFFFFFE600
00005ADFFFFFFEC81000
ENDCHAR
STARTCHAR umacron
ENCODING 363
SWIDTH 578 0
DWIDTH 19 0
BBX 20 30 -1 0
BITMAP
00000000035531000000
0000003AFFFFFFB30000
000006FFFFFFFFFF7000
00003FFFFFFFFFFFF500
0000AFFFFFFFFFFFFC00
0000CFFD111114FFFE00
0000BFFE444447FFFD00
00007FFFFFFFFFFFF800
00001DFFFFFFFFFFD100
0003BFFFFFFFFFFF9000
005FFF06FFFFFF23FB10
02FFFF06FFFFFF23FFA0
0AFFFF06FFFFFF23FFF2
0EFFFF06FFFFFF23FFF7
1FFFFF06FFFFFF23FFF8
1FFFFF06FFFFFF23FFF8
1FFFFF06FFFFFF23FFF8
1FFFFF06FFFFFF23FFF8
1FFFFF06FFFFFF23FFF8
1FFFFF06FFFFFF23FFF8
1FFFFF04FFFFFF14FFF8
1FFFFF3034444206FFF8
1FFFFFD42111125EFFF8
1FFFFFFFFFFFFFFFFFF8
0FFFFFFFFFFFFFFFFFF8
0DFFFFFFFFFFFFFFFFF5
07FFFFFFFFFFFFFFFFE1
01CFFFFFFFFFFFFFFF50
001BFFFFFFFFFFFFE600
00005ADFFFFFFEC81000
ENDCHAR
STARTCHAR Ubreve
ENCODING 364
SWIDTH 578 0
DWIDTH 19 0
BBX 20 30 -1 0
BITMAP
00000000035531000000
0000003AFFFFFFB30000
000006FFFFFFFFFF7000
00003FFFFFFFFFFFF500
0000AFFFFFFFFFFFFC00
0000CFFF78FFA6FFFE00
0000BFFF528833FFFD00
00007FFFD3102CFFF800
00001DFFFFFFFFFFD100
0003BFFFFFFFFFFF9000
005FFF06FFFFFF23FB10
02FFFF06FFFFFF23FFA0
0AFFFF06FFFFFF23FFF2
0EFFFF06FFFFFF23FFF7
1FFFFF06FFFFFF23FFF8
1FFFFF06FFFFFF23FFF8
1FFFFF06FFFFFF23FFF8
1FFFFF06FFFFFF23FFF8
1FFFFF06FFFFFF23FFF8
1FFFFF06FFFFFF23FFF8
1FFFFF04FFFFFF14FFF8
1FFFFF3034444206FFF8
1FFFFFD42111125EFFF8
1FFFFFFFFFFFFFFFFFF8
0FFFFFFFFFFFFFFFFFF8
0DFFFFFFFFFFFFFFFFF5
07FFFFFFFFFFFFFFFFE1
01CFFFFFFFFFFFFFFF50
001BFFFFFFFFFFFFE600
00005ADFFFFFFEC81000
ENDCHAR
STARTCHAR ubreve
ENCODING 365
SWIDTH 578 0
DWIDTH 19 0
BBX 20 30 -1 0
BITMAP
00000000035541000000
0000003AFFFFFFB40000
000006FFFFFFFFFF8000
00003FFFFFFFFFFFF500
0000AFFFFFFFFFFFFC00
0000CFFF88FFA5FFFE00
0000BFFF628832FFFD00
00006FFFD3102CFFF900
00001DFFFFFFFFFFD100
0003BFFFFFFFFFFF9000
005FFF06FFFFFF23FB10
02FFFF06FFFFFF23FFA0
0AFFFF06FFFFFF23FFF2
0EFFFF06FFFFFF23FFF7
1FFFFF06FFFFFF23FFF8
1FFFFF06FFFFFF23FFF8
1FFFFF06FFFFFF23FFF8
1FFFFF06FFFFFF23FFF8
1FFFFF06FFFFFF23FFF8
1FFFFF06FFFFFF23FFF8
1FFFFF04FFFFFF14FFF8
1FFFFF3034444206FFF8
1FFFFFD42111125EFFF8
1FFFFFFFFFFFFFFFFFF8
0FFFFFFFFFFFFFFFFFF8
0DFFFFFFFFFFFFFFFFF5
07FFFFFFFFFFFFFFFFE1
01CFFFFFFFFFFFFFFF50
001BFFFFFFFFFFFFE600
00005ADFFFFFFEC81000
ENDCHAR
STARTCHAR Uring
ENCODING 366
SWIDTH 578 0
DWIDTH 19 0
BBX 20 30 -1 0
BITMAP
000000017CEDB6000000
0000003EFFFFFFC10000
000001EFFFEEFFFB0000
000008FFB1003EFF5000
00000DFF46DC28FFA000
00000FFF39FF47FFC000
00000FFF549918FFC000
00000DFFD4226FFFA000
00000AFFFFFFFFFF5000
0003BFFFFFFFFFFF7000
005FFF06FFFFFF23FB10
02FFFF06FFFFFF23FFA0
0AFFFF06FFFFFF23FFF2
0EFFFF06FFFFFF23FFF7
1FFFFF06FFFFFF23FFF8
1FFFFF06FFFFFF23FFF8
1FFFFF06FFFFFF23FFF8
1FFFFF06FFFFFF23FFF8
1FFFFF06FFFFFF23FFF8
1FFFFF06FFFFFF23FFF8
1FFFFF04FFFFFF14FFF8
1FFFFF3034444206FFF8
1FFFFFD42111125EFFF8
1FFFFFFFFFFFFFFFFFF8
0FFFFFFFFFFFFFFFFFF8
0DFFFFFFFFFFFFFFFFF5
07FFFFFFFFFFFFFFFFE1
01CFFFFFFFFFFFFFFF50
001BFFFFFFFFFFFFE600
00005ADFFFFFFEC81000
ENDCHAR
STARTCHAR uring
ENCODING 367
SWIDTH 578 0
DWIDTH 19 0
BBX 20 30 -1 0
BITMAP
000000017CEEB6000000
0000003DFFFFFFC10000
000001DFFFEEFFFC0000
000008FFC1003DFF5000
00000DFF55DC28FFA000
00000FFF48FF57FFC000
00000FFF549928FFD000
00000DFFD4226EFFA000
000009FFFFFFFFFF6000
0003BFFFFFFFFFFF7000
005FFF06FFFFFF23FB10
02FFFF06FFFFFF23FFA0
0AFFFF06FFFFFF23FFF2
0EFFFF06FFFFFF23FFF7
1FFFFF06FFFFFF23FFF8
1FFFFF06FFFFFF23FFF8
1FFFFF06FFFFFF23FFF8
1FFFFF06FFFFFF23FFF8
1FFFFF06FFFFFF23FFF8
1FFFFF06FFFFFF23FFF8
1FFFFF04FFFFFF14FFF8
1FFFFF3034444206FFF8
1FFFFFD42111125EFFF8
1FFFFFFFFFFFFFFFFFF8
0FFFFFFFFFFFFFFFFFF8
0DFFFFFFFFFFFFFFFFF5
07FFFFFFFFFFFFFFFFE1
01CFFFFFFFFFFFFFFF50
001BFFFFFFFFFFFFE600
00005ADFFFFFFEC81000
ENDCHAR
STARTCHAR Uhungarumlaut
ENCODING 368
SWIDTH 581 0
DWIDTH 19 0
BBX 20 32 -1 0
BITMAP
00000000000010001000
00000000019EFDCFF800
000000000AFFFFFFFE10
000000004FFFFFFFFF90
00000000CFFA1EF46FF2
00000005FFF29FB1EFF8
0000000DFF94FF3AFFE1
0000006FFE2DFA5FFF50
000000CFF89FF3EFFA00
000000DFFCFFEDFFD100
000001EFFFFFFFFF4000
0003BFFFFFFFFFFF7000
005FFF06FFFFFF23FB10
02FFFF06FFFFFF23FFA0
0AFFFF06FFFFFF23FFF2
0EFFFF06FFFFFF23FFF7
1FFFFF06FFFFFF23FFF8
1FFFFF06FFFFFF23FFF8
1FFFFF06FFFFFF23FFF8
1FFFFF06FFFFFF23FFF8
1FFFFF06FFFFFF23FFF8
1FFFFF06FFFFFF23FFF8
1FFFFF04FFFFFF14FFF8
1FFFFF3034444206FFF8
1FFFFFD42111125EFFF8
1FFFFFFFFFFFFFFFFFF8
0FFFFFFFFFFFFFFFFFF8
0DFFFFFFFFFFFFFFFFF5
07FFFFFFFFFFFFFFFFE1
01CFFFFFFFFFFFFFFF50
001BFFFFFFFFFFFFE600
00005ADFFFFFFEC81000
ENDCHAR
STARTCHAR uhungarumlaut
ENCODING 369
SWIDTH 582 0
DWIDTH 19 0
BBX 20 32 -1 0
BITMAP
00000000000010001000
00000000019EFEBFF800
0000000009FFFFFFFF20
000000003FFFFFFFFF90
00000000BFFB1DF55FF2
00000004FFF39FC1EFF8
0000000CFF94FF3AFFE1
0000006FFF2DFA4FFF50
000000CFF89FF3DFFA00
000000DFFCFFEDFFE100
000001EFFFFFFFFF5000
0003BFFFFFFFFFFF7000
005FFF06FFFFFF23FB10
02FFFF06FFFFFF23FFA0
0AFFFF06FFFFFF23FFF2
0EFFFF06FFFFFF23FFF7
1FFFFF06FFFFFF23FFF8
1FFFFF06FFFFFF23FFF8
1FFFFF06FFFFFF23FFF8
1FFFFF06FFFFFF23FFF8
1FFFFF06FFFFFF23FFF8
1FFFFF06FFFFFF23FFF8
1FFFFF04FFFFFF14FFF8
1FFFFF3034444206FFF8
1FFFFFD42111125EFFF8
1FFFFFFFFFFFFFFFFFF8
0FFFFFFFFFFFFFFFFFF8
0DFFFFFFFFFFFFFFFFF5
07FFFFFFFFFFFFFFFFE1
01CFFFFFFFFFFFFFFF50
001BFFFFFFFFFFFFE600
00005ADFFFFFFEC81000
ENDCHAR
STARTCHAR Uogonek
ENCODING 370
SWIDTH 578 0
DWIDTH 19 0
BBX 20 22 -1 0
BITMAP
00000146666665300000
0003BFFFFFFFFFFE7000
005FFF06FFFFFF23FB10
02FFFF06FFFFFF23FFA0
0AFFFF06FFFFFF23FFF2
0EFFFF06FFFFFF23FFF7
1FFFFF06FFFFFF23FFF8
1FFFFF06FFFFFF23FFF8
1FFFFF06FFFFFF23FFF8
1FFFFF06FFFFFF23FFF8
1FFFFF06FFFFFF23FFF8
1FFFFF06FFFFFF23FFF8
1FFFFF04FFFFFF14FFF8
1FFFFF3034444206FFF8
1FFFFFD42111025EFFF8
1FFFFFFFFFA1BFFFFFF8
0FFFFFFFFB09FFFFFFF8
0DFFFFFFF81FFFFFFFF5
07FFFFFFFA069FFFFFE1
01CFFFFFFF623FFFFF50
001BFFFFFFFFFFFFE600
00005ADFFFFFFEC81000
ENDCHAR
STARTCHAR uogonek
ENCODING 371
SWIDTH 578 0
DWIDTH 19 0
BBX 20 22 -1 0
BITMAP
00000146666665300000
0003BFFFFFFFFFFE7000
005FFF06FFFFFF23FB10
02FFFF06FFFFFF23FFA0
0AFFFF06FFFFFF23FFF2
0EFFFF06FFFFFF23FFF7
1FFFFF06FFFFFF23FFF8
1FFFFF06FFFFFF23FFF8
1FFFFF06FFFFFF23FFF8
1FFFFF06FFFFFF23FFF8
1FFFFF06FFFFFF23FFF8
1FFFFF06FFFFFF23FFF8
1FFFFF04FFFFFF14FFF8
1FFFFF3034444206FFF8
1FFFFFD42111025EFFF8
1FFFFFFFFFA1BFFFFFF8
0FFFFFFFFB09FFFFFFF8
0DFFFFFFF81FFFFFFFF5
07FFFFFFFA069FFFFFE1
01CFFFFFFF623FFFFF50
001BFFFFFFFFFFFFE600
00005ADFFFFFFEC81000
ENDCHAR
STARTCHAR Wcircumflex
ENCODING 372
SWIDTH 578 0
DWIDTH 19 0
BBX 20 32 -1 0
BITMAP
00000000146510000000
00000003DFFFE4000000
0000000CFFFFFE100000
0000004FFEADFF700000
000000BFF925FFD00000
000002FFF3B1EFF50000
000008FFC1F49FFB0000
00000DFF66F93FFF1000
00001FFF2BFE1DFF4000
00001FFFFFFFFFFF4000
00000DFFFFFFFFFE1000
0003BFFFFFFFFFFF7000
005F92BFFE8CFFF25B10
02FF80AFFB06FFF03FA0
0AFFA08FF803FFD05FF2
0EFFC07FF601FFC07FF7
1FFFD05FF300DFA08FF8
1FFFF04FF130AF90AFF8
1FFFF13FD0708F80CFF8
1FFFF31FA0B15F60DFF8
1FFFF50F80D33F50FFF8
1FFFF60D50F50F31FFF8
1FFFF80C23F70C23FFF8
1FFFFA0305FA0305FFF8
1FFFFF714EFF714EFFF8
1FFFFFFFFFFFFFFFFFF8
0FFFFFFFFFFFFFFFFFF8
0DFFFFFFFFFFFFFFFFF5
07FFFFFFFFFFFFFFFFE1
01CFFFFFFFFFFFFFFF50
001BFFFFFFFFFFFFE600
00005ADFFFFFFEC81000
ENDCHAR
STARTCHAR wcircumflex
ENCODING 373
SWIDTH 578 0
DWIDTH 19 0
BBX 20 32 -1 0
BITMAP
00000000146510000000
00000003DFFFE4000000
0000000CFFFFFE100000
0000004FFEADFF700000
000000BFF925FFD00000
000002FFF3B1EFF50000
000008FFC1F49FFB0000
00000DFF66F93FFF1000
00001FFF2BFE1DFF4000
00001FFFFFFFFFFF4000
00000DFFFFFFFFFE1000
0003BFFFFFFFFFFF7000
005F92BFFE8CFFF25B10
02FF80AFFB06FFF03FA0
0AFFA08FF803FFD05FF2
0EFFC07FF601FFC07FF7
1FFFD05FF300DFA08FF8
1FFFF04FF130AF90AFF8
1FFFF13FD0708F80CFF8
1FFFF31FA0B15F60DFF8
1FFFF50F80D33F50FFF8
1FFFF60D50F50F31FFF8
1FFFF80C23F70C23FFF8
1FFFFA0305FA0305FFF8
1FFFFF714EFF714EFFF8
1FFFFFFFFFFFFFFFFFF8
0FFFFFFFFFFFFFFFFFF8
0DFFFFFFFFFFFFFFFFF5
07FFFFFFFFFFFFFFFFE1
01CFFFFFFFFFFFFFFF50
001BFFFFFFFFFFFFE600
00005ADFFFFFFEC81000
ENDCHAR
STARTCHAR Ycircumflex
ENCODING 374
SWIDTH 578 0
DWIDTH 19 0
BBX 20 32 -1 0
BITMAP
00000000036630000000
00000000BFFFF8000000
00000007FFFFFF400000
0000001EFFABFFC00000
0000006FFD21FFF30000
000000CFF774AFFA0000
000003FFF2C94FFF1000
000008FFB2FE0DFF5000
00000BFF67FF58FF9000
00000CFFFFFFFFFF9000
000008FFFFFFFFFF4000
0003BFFFFFFFFFFF7000
005FFF609FFFF907FB10
02FFFFD04FFFF30DFFA0
0AFFFFF40DFFC05FFFF2
0EFFFFFA07FF60BFFFF7
1FFFFFFF21FE13FFFFF8
1FFFFFFF80A909FFFFF8
1FFFFFFFE0421EFFFFF8
1FFFFFFFF6007FFFFFF8
1FFFFFFFFC00DFFFFFF8
1FFFFFFFFF23FFFFFFF8
1FFFFFFFFF23FFFFFFF8
1FFFFFFFFF23FFFFFFF8
1FFFFFFFFF34FFFFFFF8
1FFFFFFFFFFFFFFFFFF8
0FFFFFFFFFFFFFFFFFF8
0DFFFFFFFFFFFFFFFFF5
07FFFFFFFFFFFFFFFFE1
01CFFFFFFFFFFFFFFF50
001BFFFFFFFFFFFFE600
00005ADFFFFFFEC81000
ENDCHAR
STARTCHAR ycircumflex
ENCODING 375
SWIDTH 578 0
DWIDTH 19 0
BBX 20 32 -1 0
BITMAP
00000000036630000000
00000000BFFFF8000000
00000007FFFFFF400000
0000001EFFABFFC00000
0000006FFD21FFF30000
000000CFF774AFFA0000
000003FFF2C94FFF1000
000008FFB2FE0DFF5000
00000BFF67FF58FF9000
00000CFFFFFFFFFF9000
000008FFFFFFFFFF4000
0003BFFFFFFFFFFF7000
005FFF609FFFF907FB10
02FFFFD04FFFF30DFFA0
0AFFFFF40DFFC05FFFF2
0EFFFFFA07FF60BFFFF7
1FFFFFFF21FE13FFFFF8
1FFFFFFF80A909FFFFF8
1FFFFFFFE0421EFFFFF8
1FFFFFFFF6007FFFFFF8
1FFFFFFFFC00DFFFFFF8
1FFFFFFFFF23FFFFFFF8
1FFFFFFFFF23FFFFFFF8
1FFFFFFFFF23FFFFFFF8
1FFFFFFFFF34FFFFFFF8
1FFFFFFFFFFFFFFFFFF8
0FFFFFFFFFFFFFFFFFF8
0DFFFFFFFFFFFFFFFFF5
07FFFFFFFFFFFFFFFFE1
01CFFFFFFFFFFFFFFF50
001BFFFFFFFFFFFFE600
00005ADFFFFFFEC81000
ENDCHAR
STARTCHAR Ydieresis
ENCODING 376
SWIDTH 578 0
DWIDTH 19 0
BBX 20 30 -1 0
BITMAP
00000000013310000000
00000007DFFFFD700000
000001CFFFFFFFFC1000
00000BFFFFFFFFFFA000
00002FFEBCFFBCFFF200
00004FFC02FD01FFF400
00002FFD45FE44FFF200
00000CFFFFFFFFFFC000
000004FFFFFFFFFE3000
0003BFFFFFFFFFFF7000
005FFF609FFFF907FB10
02FFFFD04FFFF30DFFA0
0AFFFFF40DFFC05FFFF2
0EFFFFFA07FF60BFFFF7
1FFFFFFF21FE13FFFFF8
1FFFFFFF80A909FFFFF8
1FFFFFFFE0421EFFFFF8
1FFFFFFFF6007FFFFFF8
1FFFFFFFFC00DFFFFFF8
1FFFFFFFFF23FFFFFFF8
1FFFFFFFFF23FFFFFFF8
1FFFFFFFFF23FFFFFFF8
1FFFFFFFFF34FFFFFFF8
1FFFFFFFFFFFFFFFFFF8
0FFFFFFFFFFFFFFFFFF8
0DFFFFFFFFFFFFFFFFF5
07FFFFFFFFFFFFFFFFE1
01CFFFFFFFFFFFFFFF50
001BFFFFFFFFFFFFE600
00005ADFFFFFFEC81000
ENDCHAR
STARTCHAR Zacute
ENCODING 377
SWIDTH 578 0
DWIDTH 19 0
BBX 20 31 -1 0
BITMAP
0000000028AB95000000
00000003EFFFFFD20000
0000000AFFFFFFFA0000
0000000EFF60CFFC0000
0000004FFF24FFF90000
0000009FFC0BFFF30000
000000DFF82FFF900000
000001FFF39FFE100000
000000FFFCFFF6000000
000001DFFFFFF5300000
0003BFFFFFFFFFFE7000
005FFFF2000000EFFB10
02FFFFF7555520AFFFA0
0AFFFFFFFFFE13FFFFF2
0EFFFFFFFFF60BFFFFF7
1FFFFFFFFFC04FFFFFF8
1FFFFFFFFF40CFFFFFF8
1FFFFFFFFB06FFFFFFF8
1FFFFFFFF31EFFFFFFF8
1FFFFFFF908FFFFFFFF8
1FFFFFFE12EFFFFFFFF8
1FFFFFF709FFFFFFFFF8
1FFFFFF10444446FFFF8
1FFFFFF41111114FFFF8
1FFFFFFFFFFFFFFFFFF8
0FFFFFFFFFFFFFFFFFF8
0DFFFFFFFFFFFFFFFFF5
07FFFFFFFFFFFFFFFFE1
01CFFFFFFFFFFFFFFF50
001BFFFFFFFFFFFFE600
00005ADFFFFFFEC81000
ENDCHAR
STARTCHAR zacute
ENCODING 378
SWIDTH 578 0
DWIDTH 19 0
BBX 20 31 -1 0
BITMAP
0000000028AB95000000
00000003EFFFFFD20000
0000000AFFFFFFFA0000
0000000EFF60CFFC0000
0000004FFF24FFF90000
0000009FFC0BFFF30000
000000DFF82FFF900000
000001FFF39FFE100000
000000FFFCFFF6000000
000001DFFFFFF5300000
0003BFFFFFFFFFFE7000
005FFFF2000000EFFB10
02FFFFF7555520AFFFA0
0AFFFFFFFFFE13FFFFF2
0EFFFFFFFFF60BFFFFF7
1FFFFFFFFFC04FFFFFF8
1FFFFFFFFF40CFFFFFF8
1FFFFFFFFB06FFFFFFF8
1FFFFFFFF31EFFFFFFF8
1FFFFFFF908FFFFFFFF8
1FFFFFFE12EFFFFFFFF8
1FFFFFF709FFFFFFFFF8
1FFFFFF10444446FFFF8
1FFFFFF41111114FFFF8
1FFFFFFFFFFFFFFFFFF8
0FFFFFFFFFFFFFFFFFF8
0DFFFFFFFFFFFFFFFFF5
07FFFFFFFFFFFFFFFFE1
01CFFFFFFFFFFFFFFF50
001BFFFFFFFFFFFFE600
00005ADFFFFFFEC81000
ENDCHAR
STARTCHAR Zdotaccent
ENCODING 379
SWIDTH 578 0
DWIDTH 19 0
BBX 20 30 -1 0
BITMAP
00000000345410000000
0000019EFFFFFC500000
00004EFFFFFFFFFA0000
0001EFFFFFFFFFFF8000
0007FFFFFFFFFFFFE000
0009FFFFF30CFFFFF200
0009FFFFF30CFFFFF100
0005FFFFFFFFFFFFD000
0001EFFFFFFFFFFF7000
0003FFFFFFFFFFFF7000
005FFFF2000000EFFB10
02FFFFF7555520AFFFA0
0AFFFFFFFFFE13FFFFF2
0EFFFFFFFFF60BFFFFF7
1FFFFFFFFFC04FFFFFF8
1FFFFFFFFF40CFFFFFF8
1FFFFFFFFB06FFFFFFF8
1FFFFFFFF31EFFFFFFF8
1FFFFFFF908FFFFFFFF8
1FFFFFFE12EFFFFFFFF8
1FFFFFF709FFFFFFFFF8
1FFFFFF10444446FFFF8
1FFFFFF41111114FFFF8
1FFFFFFFFFFFFFFFFFF8
0FFFFFFFFFFFFFFFFFF8
0DFFFFFFFFFFFFFFFFF5
07FFFFFFFFFFFFFFFFE1
01CFFFFFFFFFFFFFFF50
001BFFFFFFFFFFFFE600
00005ADFFFFFFEC81000
ENDCHAR
STARTCHAR zdotaccent
ENCODING 380
SWIDTH 578 0
DWIDTH 19 0
BBX 20 30 -1 0
BITMAP
00000000345410000000
0000019EFFFFFC500000
00004EFFFFFFFFFA0000
0001EFFFFFFFFFFF8000
0007FFFFFFFFFFFFE000
0009FFFFF30CFFFFF200
0009FFFFF30CFFFFF100
0005FFFFFFFFFFFFD000
0001EFFFFFFFFFFF7000
0003FFFFFFFFFFFF7000
005FFFF2000000EFFB10
02FFFFF7555520AFFFA0
0AFFFFFFFFFE13FFFFF2
0EFFFFFFFFF60BFFFFF7
1FFFFFFFFFC04FFFFFF8
1FFFFFFFFF40CFFFFFF8
1FFFFFFFFB06FFFFFFF8
1FFFFFFFF31EFFFFFFF8
1FFFFFFF908FFFFFFFF8
1FFFFFFE12EFFFFFFFF8
1FFFFFF709FFFFFFFFF8
1FFFFFF10444446FFFF8
1FFFFFF41111114FFFF8
1FFFFFFFFFFFFFFFFFF8
0FFFFFFFFFFFFFFFFFF8
0DFFFFFFFFFFFFFFFFF5
07FFFFFFFFFFFFFFFFE1
01CFFFFFFFFFFFFFFF50
001BFFFFFFFFFFFFE600
00005ADFFFFFFEC81000
ENDCHAR
STARTCHAR Zcaron
ENCODING 381
SWIDTH 578 0
DWIDTH 19 0
BBX 20 31 -1 0
BITMAP
00000026740376300000
000006FFFFBFFFF70000
00001FFFFFFFFFFF1000
00003FFE4DFE4EFF3000
00002FFF49F93FFF2000
00000EFF94F49FFE0000
00000AFFE1D1EFFB0000
000005FFF646FFF70000
000001FFFD7CFFF20000
000001FFFFFFFFF00000
0003BFFFFFFFFFFE7000
005FFFF2000000EFFB10
02FFFFF7555520AFFFA0
0AFFFFFFFFFE13FFFFF2
0EFFFFFFFFF60BFFFFF7
1FFFFFFFFFC04FFFFFF8
1FFFFFFFFF40CFFFFFF8
1FFFFFFFFB06FFFFFFF8
1FFFFFFFF31EFFFFFFF8
1FFFFFFF908FFFFFFFF8
1FFFFFFE12EFFFFFFFF8
1FFFFFF709FFFFFFFFF8
1FFFFFF10444446FFFF8
1FFFFFF41111114FFFF8
1FFFFFFFFFFFFFFFFFF8
0FFFFFFFFFFFFFFFFFF8
0DFFFFFFFFFFFFFFFFF5
07FFFFFFFFFFFFFFFFE1
01CFFFFFFFFFFFFFFF50
001BFFFFFFFFFFFFE600
00005ADFFFFFFEC81000
ENDCHAR
STARTCHAR zcaron
ENCODING 382
SWIDTH 578 0
DWIDTH 19 0
BBX 20 31 -1 0
BITMAP
00000026740376300000
000006FFFFBFFFF70000
00001FFFFFFFFFFF1000
00003FFE4DFE4EFF3000
00002FFF49F93FFF2000
00000EFF94F49FFE0000
00000AFFE1D1EFFB0000
000005FFF646FFF70000
000001FFFD7CFFF20000
000001FFFFFFFFF00000
0003BFFFFFFFFFFE7000
005FFFF2000000EFFB10
02FFFFF7555520AFFFA0
0AFFFFFFFFFE13FFFFF2
0EFFFFFFFFF60BFFFFF7
1FFFFFFFFFC04FFFFFF8
1FFFFFFFFF40CFFFFFF8
1FFFFFFFFB06FFFFFFF8
1FFFFFFFF31EFFFFFFF8
1FFFFFFF908FFFFFFFF8
1FFFFFFE12EFFFFFFFF8
1FFFFFF709FFFFFFFFF8
1FFFFFF10444446FFFF8
1FFFFFF41111114FFFF8
1FFFFFFFFFFFFFFFFFF8
0FFFFFFFFFFFFFFFFFF8
0DFFFFFFFFFFFFFFFFF5
07FFFFFFFFFFFFFFFFE1
01CFFFFFFFFFFFFFFF50
001BFFFFFFFFFFFFE600
00005ADFFFFFFEC81000
ENDCHAR
STARTCHAR longs
ENCODING 383
SWIDTH 578 0
DWIDTH 19 0
BBX 20 22 -1 0
BITMAP
00000146666665300000
0003BFFFFFFFFFFE7000
005FFFFFFECDFFFFFB10
02FFFFFD40002AFFFFA0
0AFFFFD14CFD708FFFF2
0EFFFF44FFFFFA0DFFF7
1FFFFD0DFFFFFF48FFF8
1FFFFB1FFFBEFF76FFF8
1FFFFD0FFF2BFF67FFF8
1FFFFF1BFF2BFF2AFFF8
1FFFFF82DF2BF63FFFF8
1FFFFFF63F2B92DFFFF8
1FFFFFFFEF2BFFFFFFF8
1FFFFFFFFF4CFFFFFFF8
1FFFFFFFFFFFFFFFFFF8
1FFFFFFFFFFFFFFFFFF8
0FFFFFFFFFFFFFFFFFF8
0DFFFFFFFFFFFFFFFFF5
07FFFFFFFFFFFFFFFFE1
01CFFFFFFFFFFFFFFF50
001BFFFFFFFFFFFFE600
00005ADFFFFFFEC81000
ENDCHAR
STARTCHAR florin
ENCODING 402
SWIDTH 578 0
DWIDTH 19 0
BBX 20 22 -1 0
BITMAP
00000146666665300000
0003BFFFFFFFFFFE7000
005FFFFFFD2008FFFB10
02FFFFFFE2355AFFFFA0
0AFFFFFFC08FFFFFFFF2
0EFFFFFFC08FFFFFFFF7
1FFFFFFFC08FFFFFFFF8
1FFFFFFB805ACFFFFFF8
1FFFFFF300006FFFFFF8
1FFFFFFFC07FFFFFFFF8
1FFFFFFFC08FFFFFFFF8
1FFFFFFFC08FFFFFFFF8
1FFFFFFFC08FFFFFFFF8
1FFFFFFFC08FFFFFFFF8
1FFFFFFFC08FFFFFFFF8
1FFFFFFFC08FFFFFFFF8
0FFFFFB860AFFFFFFFF8
0DFFFF8009FFFFFFFFF5
07FFFFFFFFFFFFFFFFE1
01CFFFFFFFFFFFFFFF50
001BFFFFFFFFFFFFE600
00005ADFFFFFFEC81000
ENDCHAR
STARTCHAR uni01CD
ENCODING 461
SWIDTH 578 0
DWIDTH 19 0
BBX 20 31 -1 0
BITMAP
00000015750167400000
000003DFFFCEFFFB0000
00000CFFFFFFFFFF5000
00000EFF6AFF6BFF8000
00000DFF84FD0EFF7000
00000AFFD1E85FFF4000
000006FFF4A3BFFF1000
000001FFFA32FFFB0000
000000CFFF7AFFF60000
000001BFFFFFFFF10000
0003BFFFFFFFFFFE7000
005FFFFA310025EFFB10
02FFFFD01455306FFFA0
0AFFFFB09FFFF13FFFF2
0EFFFFA0AFFFF22FFFF7
1FFFFF80CFFFF40FFFF8
1FFFFF60DFFFF60EFFF8
1FFFFF509AAAA50CFFF8
1FFFFF300000000BFFF8
1FFFFF12DDDDD909FFF8
1FFFFF04FFFFFC07FFF8
1FFFFD05FFFFFD06FFF8
1FFFFB06FFFFFE04FFF8
1FFFFA18FFFFFF24FFF8
1FFFFFFFFFFFFFFFFFF8
0FFFFFFFFFFFFFFFFFF8
0DFFFFFFFFFFFFFFFFF5
07FFFFFFFFFFFFFFFFE1
01CFFFFFFFFFFFFFFF50
001BFFFFFFFFFFFFE600
00005ADFFFFFFEC81000
ENDCHAR
STARTCHAR uni01CE
ENCODING 462
SWIDTH 578 0
DWIDTH 19 0
BBX 20 31 -1 0
BITMAP
00000004761057510000
000001BFFFECFFFE2000
000007FFFFFFFFFF9000
00000AFF97FF97FFC000
000008FFC1EF39FFB000
000005FFF3AD1EFF8000
000001FFF9586FFF5000
000000CFFE13CFFF1000
0000007FFF97FFFB0000
0000016FFFFFFFF50000
0003BFFFFFFFFFFE7000
005FFFB2000014EFFB10
02FFFFD35666307FFFA0
0AFFFFFFFFFFF06FFFF2
0EFFFFFFFFFFF16FFFF7
1FFFFFFFFFFFF16FFFF8
1FFFFFFFFFFFF16FFFF8
1FFFFFA42222306FFFF8
1FFFFC013333206FFFF8
1FFFFA0AFFFFF16FFFF8
1FFFF90BFFFFF16FFFF8
1FFFFA0AFFFFF16FFFF8
1FFFFC014444306FFFF8
1FFFFF931111337FFFF8
1FFFFFFFFFFFFFFFFFF8
0FFFFFFFFFFFFFFFFFF8
0DFFFFFFFFFFFFFFFFF5
07FFFFFFFFFFFFFFFFE1
01CFFFFFFFFFFFFFFF50
001BFFFFFFFFFFFFE600
00005ADFFFFFFEC81000
ENDCHAR
STARTCHAR uni01CF
ENCODING 463
SWIDTH 578 0
DWIDTH 19 0
BBX 20 31 -1 0
BITMAP
00000003662047620000
000000AFFFEBFFFE4000
000005FFFFFFFFFFC000
000007FFB5FFB6FFE000
000006FFE0DF57FFD000
000003FFF58E1DFFB000
000000EFFB3A4FFF7000
0000009FFF24AFFF3000
0000005FFFA7EFFD0000
0000015FFFFFFFF80000
0003BFFFFFFFFFFF7000
005FFF9000000006FB10
02FFFFB555105559FFA0
0AFFFFFFFF41FFFFFFF2
0EFFFFFFFF41FFFFFFF7
1FFFFFFFFF41FFFFFFF8
1FFFFFFFFF41FFFFFFF8
1FFFFFFFFF41FFFFFFF8
1FFFFFFFFF41FFFFFFF8
1FFFFFFFFF41FFFFFFF8
1FFFFFFFFF41FFFFFFF8
1FFFFFFFFF41FFFFFFF8
1FFFFFB444104448FFF8
1FFFFF9111111116FFF8
1FFFFFFFFFFFFFFFFFF8
0FFFFFFFFFFFFFFFFFF8
0DFFFFFFFFFFFFFFFFF5
07FFFFFFFFFFFFFFFFE1
01CFFFFFFFFFFFFFFF50
001BFFFFFFFFFFFFE600
00005ADFFFFFFEC81000
ENDCHAR
STARTCHAR uni01D0
ENCODING 464
SWIDTH 578 0
DWIDTH 19 0
BBX 20 31 -1 0
BITMAP
00000004662057510000
000000BFFFECFFFE3000
000006FFFFFFFFFFA000
000009FFA7FFA7FFD000
000007FFD0EF39FFC000
000004FFF49E1EFF9000
000001FFFA495FFF6000
000000BFFF13BFFF2000
0000006FFF97FFFC0000
0000016FFFFFFFF60000
0003BFFFFFFFFFFE7000
005FFF9000000006FB10
02FFFFB555105559FFA0
0AFFFFFFFF41FFFFFFF2
0EFFFFFFFF41FFFFFFF7
1FFFFFFFFF41FFFFFFF8
1FFFFFFFFF41FFFFFFF8
1FFFFFFFFF41FFFFFFF8
1FFFFFFFFF41FFFFFFF8
1FFFFFFFFF41FFFFFFF8
1FFFFFFFFF41FFFFFFF8
1FFFFFFFFF41FFFFFFF8
1FFFFFB444104448FFF8
1FFFFF9111111116FFF8
1FFFFFFFFFFFFFFFFFF8
0FFFFFFFFFFFFFFFFFF8
0DFFFFFFFFFFFFFFFFF5
07FFFFFFFFFFFFFFFFE1
01CFFFFFFFFFFFFFFF50
001BFFFFFFFFFFFFE600
00005ADFFFFFFEC81000
ENDCHAR
STARTCHAR uni01D1
ENCODING 465
SWIDTH 578 0
DWIDTH 19 0
BBX 20 31 -1 0
BITMAP
00000004761057510000
000001CFFFDDFFFD2000
000008FFFFFFFFFF8000
00000BFF98FF88FFB000
000009FFB1FF1BFFA000
000006FFF2BC2FFF7000
000002FFF8677FFF4000
000000DFFD22DFFE0000
0000008FFF88FFFA0000
0000017FFFFFFFF40000
0003BFFFFFFFFFFE7000
005FFFD31000014EFB10
02FFFF4045555405FFA0
0AFFFF24FFFFFF32FFF2
0EFFFF14FFFFFF32FFF7
1FFFFF14FFFFFF32FFF8
1FFFFF14FFFFFF32FFF8
1FFFFF14FFFFFF32FFF8
1FFFFF14FFFFFF32FFF8
1FFFFF14FFFFFF32FFF8
1FFFFF14FFFFFF32FFF8
1FFFFF23FFFFFF22FFF8
1FFFFF4034444305FFF8
1FFFFFE42111124EFFF8
1FFFFFFFFFFFFFFFFFF8
0FFFFFFFFFFFFFFFFFF8
0DFFFFFFFFFFFFFFFFF5
07FFFFFFFFFFFFFFFFE1
01CFFFFFFFFFFFFFFF50
001BFFFFFFFFFFFFE600
00005ADFFFFFFEC81000
ENDCHAR
STARTCHAR uni01D3
ENCODING 467
SWIDTH 578 0
DWIDTH 19 0
BBX 20 31 -1 0
BITMAP
00000004762057510000
000000BFFFECFFFE3000
000007FFFFFFFFFFA000
000009FFA7FF97FFD000
000008FFD0EF39FFB000
000005FFF3AD1EFF9000
000001FFF9586FFF5000
000000BFFE13BFFF1000
0000007FFF97FFFB0000
0000016FFFFFFFF60000
0003BFFFFFFFFFFE7000
005FFF06FFFFFF23FB10
02FFFF06FFFFFF23FFA0
0AFFFF06FFFFFF23FFF2
0EFFFF06FFFFFF23FFF7
1FFFFF06FFFFFF23FFF8
1FFFFF06FFFFFF23FFF8
1FFFFF06FFFFFF23FFF8
1FFFFF06FFFFFF23FFF8
1FFFFF06FFFFFF23FFF8
1FFFFF06FFFFFF23FFF8
1FFFFF04FFFFFF14FFF8
1FFFFF3034444206FFF8
1FFFFFD42111125EFFF8
1FFFFFFFFFFFFFFFFFF8
0FFFFFFFFFFFFFFFFFF8
0DFFFFFFFFFFFFFFFFF5
07FFFFFFFFFFFFFFFFE1
01CFFFFFFFFFFFFFFF50
001BFFFFFFFFFFFFE600
00005ADFFFFFFEC81000
ENDCHAR
ENDFONT
